{
.appVersion = "3151";
.formatVersion = 3;
axes = (
{
name = Weight;
tag = wght;
}
);
classes = (
{
automatic = 1;
code = "A Aacute Abreve Acircumflex Adieresis Agrave Amacron Aogonek Aring Atilde AE B C Cacute Ccaron Ccedilla Ccircumflex Cdotaccent D Eth E Eacute Ebreve Ecaron Ecircumflex Edieresis Edotaccent Egrave Emacron Eogonek Etilde F G Gbreve Gcaron Gcircumflex Gdotaccent H Hcircumflex I Iacute Icircumflex Idieresis Igrave Iogonek J K L Lslash M N Nacute Ncaron Ntilde Eng O Oacute Obreve Ocircumflex Odieresis Ograve Ohungarumlaut Omacron Oogonek Oslash Otilde OE P Thorn Q R S Scaron Germandbls T U Uacute Ubreve Ucircumflex Udieresis Ugrave Umacron Uring Utilde V W X Y Yacute Ycircumflex Ydieresis Ygrave Ymacron Ytilde Z Zacute Zcaron Zdotaccent";
name = Uppercase;
}
);
date = "2022-10-16 00:50:14 +0000";
familyName = Platypi_August16;
featurePrefixes = (
{
automatic = 1;
code = "languagesystem DFLT dflt;

languagesystem latn dflt;
";
name = Languagesystems;
}
);
features = (
{
automatic = 1;
code = "feature frac;
feature case;
";
tag = aalt;
},
{
automatic = 1;
code = "lookup ccmp_Other_1 {
	@CombiningTopAccents = [acutecomb brevecomb caroncomb circumflexcomb dieresiscomb dotaccentcomb gravecomb hungarumlautcomb macroncomb ringcomb tildecomb];
	@CombiningNonTopAccents = [cedillacomb ogonekcomb slashlongcomb slashshortcomb];
	sub [i j]' @CombiningTopAccents by [idotless jdotless];
	sub [i j]' @CombiningNonTopAccents @CombiningTopAccents by [idotless jdotless];
	@Markscomb = [dieresiscomb dotaccentcomb gravecomb acutecomb hungarumlautcomb circumflexcomb caroncomb brevecomb ringcomb tildecomb macroncomb slashshortcomb slashlongcomb];
	@MarkscombCase = [dieresiscomb.case dotaccentcomb.case gravecomb.case acutecomb.case hungarumlautcomb.case circumflexcomb.case caroncomb.case brevecomb.case ringcomb.case tildecomb.case macroncomb.case slashshortcomb.case slashlongcomb.case];
	sub @Markscomb @Markscomb' by @MarkscombCase;

glyphs = (
{
color = 8;
glyphname = A;
lastChange = "2022-12-11 11:42:57 +0000";
layers = (
{
anchors = (
{
name = bottom;
pos = (246,0);
},
{
name = ogonek;
pos = (493,0);
},
{
name = top;
pos = (378,640);
}
);
guides = (
{
pos = (317,562);
},
{
pos = (75,62);
},
{
pos = (77,72);
}
);
layerId = m01;
shapes = (
{
closed = 1;
nodes = (
(164,0,l),
(170,24,l),
(101,72,l),
(364,562,l),
(352,562,l),
(432,72,l),
(339,15,l),
(335,0,l),
(571,0,l),
(576,24,l),
(527,62,l),
(411,640,l),
(373,640,l),
(25,62,l),
(-44,15,l),
(-48,0,l)
);
},
{
closed = 1;
nodes = (
(465,211,l),
(475,250,l),
(166,250,l),
(156,211,l)
);
},
{
closed = 1;
nodes = (
(389,563,l),
(389,640,l),
(287,640,l),
(283,625,l),
(351,563,l)
);
}
);
width = 623;
},
{
anchors = (
{
name = bottom;
pos = (297,0);
},
{
name = ogonek;
pos = (528,10);
},
{
name = top;
pos = (272,640);
}
);
associatedMasterId = m01;
layerId = "363390C8-C499-4EEC-A2E9-4BF428213FF3";
name = "6 Nov 22, 10:15";
shapes = (
{
closed = 1;
nodes = (
(204,0,l),
(208,28,l),
(125,62,l),
(274,562,l),
(259,562,l),
(430,65,l),
(357,17,l),
(359,0,l),
(588,0,l),
(592,28,l),
(534,55,l),
(317,640,l),
(264,640,l),
(53,56,l),
(2,17,l),
(4,0,l)
);
},
{
closed = 1;
nodes = (
(439,203,l),
(439,248,l),
(132,248,l),
(132,203,l)
);
},
{
closed = 1;
nodes = (
(300,563,l),
(300,640,l),
(187,640,l),
(185,624,l),
(260,563,l)
);
}
);
width = 594;
},
{
anchors = (
{
name = bottom;
pos = (328,0);
},
{
name = ogonek;
pos = (559,0);
},
{
name = top;
pos = (303,640);
}
);
associatedMasterId = m01;
background = {
shapes = (
{
closed = 1;
nodes = (
(304,640,l),
(63,69,l),
(-14,25,l),
(-10,0,l),
(228,0,l),
(230,16,l),
(137,63,l),
(299,519,l),
(295,519,l),
(468,63,l),
(369,25,l),
(373,0,l),
(638,0,l),
(640,14,l),
(571,69,l),
(331,640,l)
);
}
);
};
layerId = "0111EC7A-006F-4AB8-B7F6-65C39290EE5F";
name = "27 Nov 22, 15:43";
shapes = (
{
closed = 1;
nodes = (
(209,0,l),
(213,24,l),
(130,62,l),
(305,562,l),
(290,562,l),
(471,65,l),
(398,15,l),
(400,0,l),
(634,0,l),
(638,24,l),
(575,55,l),
(348,640,l),
(295,640,l),
(58,56,l),
(2,15,l),
(4,0,l)
);
},
{
closed = 1;
nodes = (
(470,213,l),
(470,258,l),
(163,258,l),
(163,213,l)
);
},
{
closed = 1;
nodes = (
(331,563,l),
(331,640,l),
(206,640,l),
(204,625,l),
(291,563,l)
);
}
);
width = 640;
}
);
metricLeft = "=V";
metricRight = "=V";
unicode = 65;
},
{
color = 8;
glyphname = AE;
lastChange = "2022-12-11 05:30:04 +0000";
layers = (
{
anchors = (
{
name = bottom;
pos = (452,0);
},
{
name = top;
pos = (613,640);
}
);
background = {
shapes = (
{
closed = 1;
nodes = (
(748,0,l),
(760,52,l),
(463,43,l),
(453,0,l)
);
},
{
closed = 1;
nodes = (
(755,0,l),
(802,183,l),
(788,183,l),
(656,47,l),
(649,0,l)
);
},
{
closed = 1;
nodes = (
(724,354,l),
(497,344,l),
(489,308,l),
(711,300,l)
);
},
{
closed = 1;
nodes = (
(697,214,l),
(755,428,l),
(732,428,l),
(664,350,l),
(646,304,l),
(683,214,l)
);
},
{
closed = 1;
nodes = (
(868,640,l),
(545,640,l),
(534,593,l),
(856,583,l)
);
},
{
closed = 1;
nodes = (
(845,495,l),
(872,646,l),
(862,646,l),
(760,640,l),
(749,593,l),
(831,495,l)
);
}
);
};
layerId = m01;
shapes = (
{
closed = 1;
nodes = (
(164,0,l),
(170,24,l),
(94,65,l),
(463,589,l),
(505,589,l),
(517,640,l),
(453,640,l),
(13,54,l),
(-44,15,l),
(-48,0,l)
);
},
{
closed = 1;
nodes = (
(467,221,l),
(477,260,l),
(200,260,l),
(189,221,l)
);
},
{
closed = 1;
nodes = (
(483,0,l),
(549,640,l),
(478,640,l),
(400,67,l),
(315,15,l),
(311,0,l)
);
},
{
closed = 1;
nodes = (
(430,563,l),
(469,640,l),
(344,640,l),
(340,625,l),
(418,563,l)
);
},
{
closed = 1;
nodes = (
(760,0,l),
(772,49,l),
(417,34,l),
(408,0,l)
);
},
{
closed = 1;
nodes = (
(767,0,l),
(804,160,l),
(790,160,l),
(667,44,l),
(660,0,l)
);
},
{
closed = 1;
nodes = (
(737,358,l),
(491,347,l),
(483,316,l),
(724,307,l)
);
},
{
closed = 1;
nodes = (
(720,231,l),
(758,422,l),
(735,422,l),
(677,354,l),
(659,311,l),
(706,231,l)
);
},
{
closed = 1;
nodes = (
(880,640,l),
(544,640,l),
(535,606,l),
(868,591,l)
);
},
{
closed = 1;
nodes = (
(858,508,l),
(884,646,l),
(875,646,l),
(773,640,l),
(762,596,l),
(844,508,l)
);
}
);
width = 856;
}
);
metricLeft = "=A";
metricRight = "=E";
unicode = 198;
},
{
color = 8;
glyphname = B;
lastChange = "2022-12-11 02:16:08 +0000";
layers = (
{
background = {
shapes = (
{
closed = 1;
nodes = (
(211,0,ls),
(367,0,o),
(495,82,o),
(522,199,cs),
(541,281,o),
(498,338,o),
(412,349,c),
(414,355,l),
(478,374,o),
(540,436,o),
(554,496,cs),
(577,596,o),
(523,640,o),
(377,640,cs),
(252,640,l),
(242,598,l),
(330,598,ls),
(440,598,o),
(485,559,o),
(466,480,cs),
(449,406,o),
(403,362,o),
(338,359,cs),
(186,351,l),
(178,315,l),
(298,315,ls),
(404,315,o),
(446,272,o),
(422,170,cs),
(403,86,o),
(344,45,o),
(243,45,cs),
(122,45,l),
(111,0,l)
);
},
{
closed = 1;
nodes = (
(141,0,l),
(289,640,l),
(137,640,l),
(133,625,l),
(188,575,l),
(70,65,l),
(-8,15,l),
(-11,0,l)
);
}
);
};
layerId = m01;
shapes = (
{
closed = 1;
nodes = (
(211,0,ls),
(367,0,o),
(494,78,o),
(520,190,cs),
(538,269,o),
(491,339,o),
(412,349,c),
(414,355,l),
(478,374,o),
(540,436,o),
(554,496,cs),
(574,584,o),
(506,640,o),
(377,640,cs),
(252,640,l),
(242,602,l),
(330,602,ls),
(441,602,o),
(486,562,o),
(466,480,cs),
(448,405,o),
(397,361,o),
(323,358,cs),
(186,351,l),
(178,318,l),
(298,318,ls),
(406,318,o),
(448,269,o),
(425,170,cs),
(406,87,o),
(341,41,o),
(243,41,cs),
(122,41,l),
(111,0,l)
);
},
{
closed = 1;
nodes = (
(141,0,l),
(289,640,l),
(137,640,l),
(133,625,l),
(188,575,l),
(70,65,l),
(-8,15,l),
(-11,0,l)
);
}
);
width = 560;
}
);
metricLeft = "=H";
metricRight = "=O*0.8";
unicode = 66;
},
{
color = 8;
glyphname = C;
lastChange = "2022-12-11 05:32:57 +0000";
layers = (
{
anchors = (
{
name = bottom;
pos = (285,0);
},
{
name = top;
pos = (463,640);
}
);
background = {
shapes = (
{
closed = 1;
nodes = (
(442,-16,o),
(606,140,o),
(649,338,cs),
(690,525,o),
(602,656,o),
(435,656,cs),
(269,656,o),
(105,500,o),
(62,302,cs),
(21,115,o),
(109,-16,o),
(276,-16,cs)
);
},
{
closed = 1;
nodes = (
(178,27,o),
(117,152,o),
(156,330,cs),
(193,496,o),
(296,613,o),
(407,613,cs),
(533,613,o),
(594,488,o),
(555,310,cs),
(518,144,o),
(415,27,o),
(304,27,cs)
);
}
);
};
layerId = m01;
shapes = (
{
closed = 1;
nodes = (
(20,120,o),
(111,-16,o),
(285,-16,cs),
(395,-16,o),
(494,42,o),
(561,147,c),
(542,162,l),
(462,73,o),
(401,39,o),
(324,39,cs),
(181,39,o),
(119,162,o),
(164,358,cs),
(199,507,o),
(305,612,o),
(419,612,cs),
(464,612,o),
(508,589,o),
(541,548,c),
(541,625,l),
(456,625,l),
(557,497,l),
(571,497,l),
(642,602,l),
(590,637,o),
(515,656,o),
(433,656,cs),
(271,656,o),
(109,506,o),
(65,314,cs)
);
}
);
width = 609;
},
{
anchors = (
{
name = bottom;
pos = (345,0);
},
{
name = top;
pos = (327,640);
}
);
associatedMasterId = m01;
layerId = "0CF4DF91-703F-41F2-9D65-CF6EB55C6607";
name = "17 Nov 22, 21:38";
shapes = (
{
closed = 1;
nodes = (
(469,-16,o),
(572,45,o),
(613,142,c),
(580,163,l),
(523,83,o),
(465,52,o),
(373,52,cs),
(230,52,o),
(141,166,o),
(141,348,cs),
(141,502,o),
(224,599,o),
(357,599,cs),
(419,599,o),
(466,584,o),
(514,550,c),
(534,453,l),
(579,457,l),
(599,593,l),
(537,637,o),
(468,656,o),
(374,656,cs),
(190,656,o),
(45,503,o),
(45,309,cs),
(45,118,o),
(169,-16,o),
(346,-16,cs)
);
}
);
width = 658;
}
);
metricLeft = "=O";
metricRight = "=O-10";
unicode = 67;
},
{
color = 8;
glyphname = D;
lastChange = "2022-12-11 05:31:15 +0000";
layers = (
{
anchors = (
{
name = bottom;
pos = (215,0);
},
{
name = center;
pos = (161,320);
},
{
name = top;
pos = (348,640);
}
);
background = {
shapes = (
{
closed = 1;
nodes = (
(432,0,o),
(596,148,o),
(639,338,cs),
(680,515,o),
(592,640,o),
(425,640,cs),
(259,640,o),
(95,492,o),
(52,302,cs),
(11,125,o),
(99,0,o),
(266,0,cs)
);
},
{
closed = 1;
nodes = (
(168,41,o),
(107,160,o),
(146,330,cs),
(183,488,o),
(286,599,o),
(397,599,cs),
(523,599,o),
(584,480,o),
(545,310,cs),
(508,152,o),
(405,41,o),
(294,41,cs)
);
}
);
};
layerId = m01;
shapes = (
{
closed = 1;
nodes = (
(215,0,ls),
(417,0,o),
(573,126,o),
(619,327,cs),
(665,528,o),
(573,640,o),
(362,640,c),
(247,640,l),
(237,600,l),
(343,600,ls),
(504,600,o),
(569,490,o),
(523,292,cs),
(486,130,o),
(380,40,o),
(227,40,c),
(109,40,l),
(99,0,l)
);
},
{
closed = 1;
nodes = (
(141,0,l),
(289,640,l),
(137,640,l),
(133,625,l),
(188,575,l),
(71,65,l),
(-7,15,l),
(-11,0,l)
);
}
);
width = 635;
}
);
metricLeft = "=H";
metricRight = "=O";
unicode = 68;
},
{
color = 8;
glyphname = E;
lastChange = "2022-12-11 00:33:26 +0000";
layers = (
{
anchors = (
{
name = bottom;
pos = (226,0);
},
{
name = ogonek;
pos = (405,0);
},
{
name = top;
pos = (374,640);
},
{
name = topleft;
pos = (118,640);
}
);
layerId = m01;
shapes = (
{
closed = 1;
nodes = (
(140,0,l),
(288,640,l),
(136,640,l),
(133,625,l),
(188,575,l),
(70,65,l),
(-8,15,l),
(-12,0,l)
);
},
{
closed = 1;
nodes = (
(468,0,l),
(480,49,l),
(135,34,l),
(126,0,l)
);
},
{
closed = 1;
nodes = (
(475,0,l),
(512,160,l),
(498,160,l),
(375,44,l),
(368,0,l)
);
},
{
closed = 1;
nodes = (
(434,354,l),
(198,343,l),
(190,312,l),
(421,303,l)
);
},
{
closed = 1;
nodes = (
(417,227,l),
(455,418,l),
(432,418,l),
(374,350,l),
(356,307,l),
(403,227,l)
);
},
{
closed = 1;
nodes = (
(597,640,l),
(274,640,l),
(265,606,l),
(585,591,l)
);
},
{
closed = 1;
nodes = (
(575,508,l),
(601,646,l),
(592,646,l),
(490,640,l),
(479,596,l),
(561,508,l)
);
}
);
width = 564;
},
{
anchors = (
{
name = bottom;
pos = (294,0);
},
{
name = ogonek;
pos = (483,10);
},
{
name = top;
pos = (294,640);
},
{
name = topleft;
pos = (25,640);
}
);
associatedMasterId = m01;
layerId = "FA479D06-7CB8-42D7-916F-D972B725C066";
name = "17 Nov 22, 21:33";
shapes = (
{
closed = 1;
nodes = (
(204,0,l),
(204,640,l),
(47,640,l),
(45,623,l),
(114,575,l),
(114,65,l),
(45,17,l),
(47,0,l)
);
},
{
closed = 1;
nodes = (
(539,0,l),
(539,52,l),
(189,39,l),
(189,0,l)
);
},
{
closed = 1;
nodes = (
(546,0,l),
(548,177,l),
(512,184,l),
(455,47,l),
(409,0,l)
);
},
{
closed = 1;
nodes = (
(417,300,l),
(417,354,l),
(181,346,l),
(181,306,l)
);
},
{
closed = 1;
nodes = (
(425,214,l),
(432,428,l),
(400,428,l),
(365,350,l),
(357,304,l),
(405,214,l)
);
},
{
closed = 1;
nodes = (
(519,640,l),
(189,640,l),
(189,601,l),
(519,588,l)
);
},
{
closed = 1;
nodes = (
(529,493,l),
(522,646,l),
(512,646,l),
(390,640,l),
(436,593,l),
(493,486,l)
);
}
);
width = 587;
}
);
metricLeft = "=H";
unicode = 69;
},
{
color = 8;
glyphname = F;
lastChange = "2022-12-11 05:07:10 +0000";
layers = (
{
background = {
shapes = (
{
closed = 1;
nodes = (
(211,0,l),
(211,640,l),
(51,640,l),
(51,625,l),
(121,575,l),
(121,65,l),
(51,15,l),
(51,0,l)
);
},
{
closed = 1;
nodes = (
(546,0,l),
(546,52,l),
(196,37,l),
(196,0,l)
);
},
{
closed = 1;
nodes = (
(553,0,l),
(558,183,l),
(543,183,l),
(437,47,l),
(441,0,l)
);
},
{
closed = 1;
nodes = (
(424,354,l),
(188,343,l),
(188,309,l),
(424,300,l)
);
},
{
closed = 1;
nodes = (
(430,214,l),
(439,428,l),
(415,428,l),
(362,350,l),
(354,304,l),
(415,214,l)
);
},
{
closed = 1;
nodes = (
(526,640,l),
(196,640,l),
(196,603,l),
(526,588,l)
);
},
{
closed = 1;
nodes = (
(538,495,l),
(529,646,l),
(519,646,l),
(417,640,l),
(413,593,l),
(523,495,l)
);
}
);
};
layerId = m01;
shapes = (
{
closed = 1;
nodes = (
(235,0,l),
(241,24,l),
(155,63,l),
(288,640,l),
(136,640,l),
(133,625,l),
(188,575,l),
(70,65,l),
(-8,15,l),
(-12,0,l)
);
},
{
closed = 1;
nodes = (
(434,339,l),
(194,328,l),
(186,297,l),
(422,288,l)
);
},
{
closed = 1;
nodes = (
(418,212,l),
(456,403,l),
(433,403,l),
(374,335,l),
(356,292,l),
(403,212,l)
);
},
{
closed = 1;
nodes = (
(579,640,l),
(256,640,l),
(247,606,l),
(567,591,l)
);
},
{
closed = 1;
nodes = (
(552,502,l),
(583,646,l),
(573,646,l),
(474,640,l),
(463,596,l),
(538,502,l)
);
}
);
width = 525;
},
{
associatedMasterId = m01;
layerId = "A6A1025C-04E5-4557-9211-3D902AF2500E";
name = "17 Nov 22, 21:34";
shapes = (
{
closed = 1;
nodes = (
(304,0,l),
(308,28,l),
(204,63,l),
(204,640,l),
(47,640,l),
(45,623,l),
(114,575,l),
(114,65,l),
(45,17,l),
(47,0,l)
);
},
{
closed = 1;
nodes = (
(418,290,l),
(418,344,l),
(177,336,l),
(177,295,l)
);
},
{
closed = 1;
nodes = (
(426,199,l),
(433,414,l),
(401,414,l),
(366,340,l),
(358,294,l),
(406,199,l)
);
},
{
closed = 1;
nodes = (
(513,640,l),
(183,640,l),
(183,601,l),
(513,588,l)
);
},
{
closed = 1;
nodes = (
(515,495,l),
(516,646,l),
(506,646,l),
(384,640,l),
(430,593,l),
(476,488,l)
);
}
);
width = 535;
}
);
metricLeft = "=H";
metricRight = "=E";
unicode = 70;
},
{
color = 8;
glyphname = G;
lastChange = "2022-12-11 05:32:51 +0000";
layers = (
{
anchors = (
{
name = bottom;
pos = (380,0);
},
{
name = top;
pos = (463,640);
}
);
background = {
shapes = (
{
closed = 1;
nodes = (
(20,120,o),
(111,-16,o),
(285,-16,cs),
(395,-16,o),
(494,42,o),
(561,147,c),
(542,162,l),
(462,73,o),
(401,39,o),
(324,39,cs),
(181,39,o),
(119,162,o),
(164,358,cs),
(199,507,o),
(305,612,o),
(419,612,cs),
(464,612,o),
(508,589,o),
(541,548,c),
(541,625,l),
(456,625,l),
(557,497,l),
(571,497,l),
(642,602,l),
(590,637,o),
(515,656,o),
(433,656,cs),
(271,656,o),
(109,506,o),
(65,314,cs)
);
}
);
};
layerId = m01;
shapes = (
{
closed = 1;
nodes = (
(461,61,o),
(404,39,o),
(324,39,cs),
(181,39,o),
(119,162,o),
(164,358,cs),
(199,507,o),
(305,612,o),
(419,612,cs),
(464,612,o),
(513,592,o),
(546,559,c),
(541,625,l),
(462,625,l),
(567,506,l),
(581,506,l),
(652,602,l),
(603,635,o),
(518,656,o),
(433,656,cs),
(271,656,o),
(109,506,o),
(65,314,cs),
(20,120,o),
(111,-16,o),
(285,-16,cs),
(392,-16,o),
(475,19,o),
(560,98,c),
(593,243,l),
(663,274,l),
(669,298,l),
(448,298,l),
(445,283,l),
(504,225,l),
(466,57,l),
(500,57,l),
(511,110,l)
);
}
);
width = 674;
},
{
anchors = (
{
name = bottom;
pos = (361,0);
},
{
name = top;
pos = (361,640);
}
);
associatedMasterId = m01;
layerId = "F7EC8CBB-DD1C-4AE6-991D-53893B2FDE3C";
name = "10 Nov 22, 12:51";
shapes = (
{
closed = 1;
nodes = (
(452,-16,o),
(541,53,o),
(593,176,c),
(560,183,l),
(505,88,o),
(453,52,o),
(373,52,cs),
(234,52,o),
(136,174,o),
(136,348,cs),
(136,502,o),
(221,599,o),
(357,599,cs),
(425,599,o),
(477,580,o),
(529,538,c),
(546,454,l),
(588,460,l),
(614,594,l),
(547,637,o),
(474,656,o),
(374,656,cs),
(187,656,o),
(40,503,o),
(40,309,cs),
(40,118,o),
(166,-16,o),
(346,-16,cs)
);
},
{
closed = 1;
nodes = (
(609,-16,l),
(609,238,l),
(686,270,l),
(682,298,l),
(438,298,l),
(438,276,l),
(515,239,l),
(515,75,l),
(584,-16,l)
);
}
);
width = 715;
},
{
anchors = (
{
name = bottom;
pos = (361,0);
},
{
name = top;
pos = (361,640);
}
);
associatedMasterId = m01;
layerId = "335F377F-5C47-4168-86B7-DA6228DF6504";
name = "17 Nov 22, 21:40";
shapes = (
{
closed = 1;
nodes = (
(452,-16,o),
(541,53,o),
(593,176,c),
(560,183,l),
(505,88,o),
(453,52,o),
(373,52,cs),
(230,52,o),
(141,166,o),
(141,348,cs),
(141,502,o),
(224,599,o),
(357,599,cs),
(425,599,o),
(477,580,o),
(529,538,c),
(546,454,l),
(588,460,l),
(614,594,l),
(547,637,o),
(474,656,o),
(374,656,cs),
(190,656,o),
(45,503,o),
(45,309,cs),
(45,118,o),
(169,-16,o),
(346,-16,cs)
);
},
{
closed = 1;
nodes = (
(609,-16,l),
(609,238,l),
(686,270,l),
(682,298,l),
(438,298,l),
(438,276,l),
(515,239,l),
(515,75,l),
(584,-16,l)
);
}
);
width = 715;
},
{
anchors = (
{
name = bottom;
pos = (361,0);
},
{
name = top;
pos = (361,640);
}
);
associatedMasterId = m01;
layerId = "FDE2FF97-862F-4E7E-8630-6FED5EE54729";
name = "18 Nov 22, 19:33";
shapes = (
{
closed = 1;
nodes = (
(452,-16,o),
(541,53,o),
(593,176,c),
(560,183,l),
(505,88,o),
(453,52,o),
(373,52,cs),
(230,52,o),
(141,166,o),
(141,348,cs),
(141,502,o),
(224,599,o),
(357,599,cs),
(398,599,o),
(420,595,o),
(445,584,c),
(554,458,l),
(575,460,l),
(618,601,l),
(548,641,o),
(480,656,o),
(374,656,cs),
(190,656,o),
(45,503,o),
(45,309,cs),
(45,118,o),
(169,-16,o),
(346,-16,cs)
);
},
{
closed = 1;
nodes = (
(609,-16,l),
(609,238,l),
(686,270,l),
(682,298,l),
(438,298,l),
(438,276,l),
(515,239,l),
(515,75,l),
(584,-16,l)
);
}
);
width = 715;
}
);
metricLeft = "=O";
metricRight = "=H";
unicode = 71;
},
{
color = 8;
glyphname = H;
lastChange = "2022-12-11 11:44:52 +0000";
layers = (
{
anchors = (
{
name = bottom;
pos = (369,0);
},
{
name = center;
pos = (408,476);
},
{
name = top;
pos = (450,640);
},
{
name = topleft;
pos = (27,640);
}
);
guides = (
{
angle = 90;
pos = (296,24);
},
{
angle = 90;
pos = (52,15);
}
);
layerId = m01;
shapes = (
{
closed = 1;
nodes = (
(617,0,l),
(622,24,l),
(550,63,l),
(669,577,l),
(759,616,l),
(764,640,l),
(532,640,l),
(528,625,l),
(583,575,l),
(465,65,l),
(387,15,l),
(384,0,l)
);
},
{
closed = 1;
nodes = (
(221,0,l),
(227,24,l),
(155,63,l),
(274,577,l),
(364,616,l),
(369,640,l),
(136,640,l),
(133,625,l),
(188,575,l),
(70,65,l),
(-8,15,l),
(-11,0,l)
);
},
{
closed = 1;
nodes = (
(544,313,l),
(555,357,l),
(202,357,l),
(191,313,l)
);
}
);
width = 691;
},
{
anchors = (
{
name = bottom;
pos = (363,0);
},
{
name = center;
pos = (363,320);
},
{
name = top;
pos = (363,640);
},
{
name = topleft;
pos = (21,640);
}
);
associatedMasterId = m01;
guides = (
{
angle = 90;
pos = (285,24);
},
{
angle = 90;
pos = (41,15);
}
);
layerId = "226845E8-4F3E-40B1-9EB6-0581B7C337AE";
name = "27 Nov 22, 08:44";
shapes = (
{
closed = 1;
nodes = (
(697,0,l),
(701,24,l),
(616,63,l),
(616,577,l),
(701,616,l),
(697,640,l),
(459,640,l),
(457,625,l),
(526,575,l),
(526,65,l),
(457,15,l),
(459,0,l)
);
},
{
closed = 1;
nodes = (
(281,0,l),
(285,24,l),
(200,63,l),
(200,577,l),
(285,616,l),
(281,640,l),
(43,640,l),
(41,625,l),
(110,575,l),
(110,65,l),
(41,15,l),
(43,0,l)
);
},
{
closed = 1;
nodes = (
(549,311,l),
(549,359,l),
(177,359,l),
(177,311,l)
);
}
);
width = 726;
}
);
unicode = 72;
},
{
color = 8;
glyphname = I;
lastChange = "2022-12-11 05:07:10 +0000";
layers = (
{
anchors = (
{
name = bottom;
pos = (97,0);
},
{
name = ogonek;
pos = (182,10);
},
{
name = top;
pos = (245,640);
},
{
name = topleft;
pos = (118,640);
}
);
layerId = m01;
shapes = (
{
closed = 1;
nodes = (
(221,0,l),
(227,24,l),
(155,63,l),
(273,577,l),
(363,616,l),
(369,640,l),
(136,640,l),
(133,625,l),
(187,575,l),
(70,65,l),
(-8,15,l),
(-12,0,l)
);
}
);
width = 295;
}
);
metricLeft = "=H";
metricRight = "=H";
unicode = 73;
},
{
color = 8;
glyphname = J;
lastChange = "2022-12-11 02:05:27 +0000";
layers = (
{
layerId = m01;
shapes = (
{
closed = 1;
nodes = (
(48,-161,o),
(126,-63,o),
(158,73,cs),
(274,577,l),
(364,616,l),
(369,640,l),
(137,640,l),
(133,625,l),
(188,575,l),
(32,-102,l),
(53,-85,l),
(-78,-116,l),
(-81,-121,l),
(-73,-195,l),
(-61,-202,l)
);
}
);
width = 295;
}
);
metricLeft = "=H@100";
metricRight = "=H";
unicode = 74;
},
{
color = 8;
glyphname = K;
lastChange = "2022-12-11 05:07:10 +0000";
layers = (
{
layerId = m01;
shapes = (
{
closed = 1;
nodes = (
(311,336,l),
(627,598,l),
(576,640,l),
(167,247,l),
(153,185,l)
);
},
{
closed = 1;
nodes = (
(222,0,l),
(227,24,l),
(155,63,l),
(274,577,l),
(364,616,l),
(369,640,l),
(137,640,l),
(133,625,l),
(188,575,l),
(70,65,l),
(-8,15,l),
(-11,0,l)
);
},
{
closed = 1;
nodes = (
(590,0,l),
(596,24,l),
(484,85,l),
(451,85,l),
(376,15,l),
(373,0,l)
);
},
{
closed = 1;
nodes = (
(561,0,l),
(345,386,l),
(283,334,l),
(449,0,l)
);
},
{
closed = 1;
nodes = (
(569,558,l),
(706,616,l),
(711,640,l),
(488,640,l),
(485,625,l),
(552,558,l)
);
}
);
width = 658;
}
);
metricLeft = "=H";
unicode = 75;
},
{
color = 8;
glyphname = L;
lastChange = "2022-12-11 05:07:10 +0000";
layers = (
{
anchors = (
{
name = bottom;
pos = (215,0);
},
{
name = center;
pos = (175,320);
},
{
name = top;
pos = (363,640);
},
{
name = topright;
pos = (373,640);
}
);
background = {
shapes = (
{
closed = 1;
nodes = (
(210,0,l),
(210,640,l),
(50,640,l),
(50,625,l),
(120,575,l),
(120,65,l),
(50,15,l),
(50,0,l)
);
},
{
closed = 1;
nodes = (
(545,0,l),
(545,52,l),
(195,37,l),
(195,0,l)
);
},
{
closed = 1;
nodes = (
(552,0,l),
(557,183,l),
(542,183,l),
(436,47,l),
(440,0,l)
);
},
{
closed = 1;
nodes = (
(423,354,l),
(187,343,l),
(187,309,l),
(423,300,l)
);
},
{
closed = 1;
nodes = (
(429,214,l),
(438,428,l),
(414,428,l),
(361,350,l),
(353,304,l),
(414,214,l)
);
},
{
closed = 1;
nodes = (
(525,640,l),
(195,640,l),
(195,603,l),
(525,588,l)
);
},
{
closed = 1;
nodes = (
(537,495,l),
(528,646,l),
(518,646,l),
(412,640,l),
(412,593,l),
(522,495,l)
);
}
);
};
layerId = m01;
shapes = (
{
closed = 1;
nodes = (
(449,0,l),
(462,50,l),
(126,35,l),
(117,0,l)
);
},
{
closed = 1;
nodes = (
(456,0,l),
(510,204,l),
(495,204,l),
(342,38,l),
(334,0,l)
);
},
{
closed = 1;
nodes = (
(274,577,l),
(367,616,l),
(373,640,l),
(136,640,l),
(133,625,l),
(188,575,l),
(70,65,l),
(-8,15,l),
(-11,0,l),
(141,0,l)
);
}
);
width = 552;
}
);
metricLeft = "=H";
metricRight = "=E";
unicode = 76;
},
{
color = 8;
glyphname = M;
lastChange = "2022-12-11 05:07:10 +0000";
layers = (
{
guides = (
{
pos = (63,570);
}
);
layerId = m01;
shapes = (
{
closed = 1;
nodes = (
(378,-3,l),
(770,640,l),
(696,640,l),
(404,104,l),
(420,104,l),
(344,640,l),
(243,640,l),
(351,-3,l)
);
},
{
closed = 1;
nodes = (
(201,0,l),
(207,24,l),
(135,63,l),
(257,583,l),
(270,640,l),
(154,640,l),
(151,625,l),
(205,575,l),
(70,65,l),
(-8,15,l),
(-12,0,l)
);
},
{
closed = 1;
nodes = (
(776,0,l),
(781,24,l),
(710,63,l),
(814,577,l),
(904,616,l),
(909,640,l),
(743,640,l),
(624,65,l),
(546,15,l),
(543,0,l)
);
}
);
width = 850;
},
{
associatedMasterId = m01;
layerId = "20323A22-5084-4C8C-B21A-C62E4B12804A";
name = "20 Oct 22, 10:53";
shapes = (
{
closed = 1;
nodes = (
(426,-3,l),
(681,640,l),
(591,640,l),
(432,127,l),
(439,127,l),
(255,640,l),
(139,640,l),
(398,-3,l)
);
},
{
closed = 1;
nodes = (
(240,0,l),
(244,28,l),
(169,63,l),
(169,640,l),
(42,640,l),
(40,623,l),
(109,575,l),
(109,65,l),
(40,17,l),
(42,0,l)
);
},
{
closed = 1;
nodes = (
(823,0,l),
(827,28,l),
(742,63,l),
(742,577,l),
(827,612,l),
(823,640,l),
(652,640,l),
(652,65,l),
(587,17,l),
(589,0,l)
);
}
);
width = 851;
}
);
metricLeft = "=H";
metricRight = "=H";
unicode = 77;
},
{
color = 8;
glyphname = N;
lastChange = "2022-12-11 05:06:50 +0000";
layers = (
{
anchors = (
{
name = bottom;
pos = (287,0);
},
{
name = top;
pos = (435,640);
}
);
layerId = m01;
shapes = (
{
closed = 1;
nodes = (
(537,-6,l),
(683,577,l),
(772,616,l),
(778,640,l),
(564,640,l),
(560,625,l),
(615,575,l),
(525,90,l),
(546,93,l),
(287,640,l),
(180,640,l),
(505,-6,l)
);
},
{
closed = 1;
nodes = (
(202,0,l),
(208,24,l),
(136,63,l),
(233,575,l),
(260,640,l),
(137,640,l),
(134,625,l),
(191,575,l),
(70,65,l),
(-8,15,l),
(-11,0,l)
);
}
);
width = 704;
},
{
associatedMasterId = m01;
layerId = "9D5B240E-6BFB-46A8-B7EF-5B5E3DEF1B62";
name = "20 Oct 22, 08:33";
shapes = (
{
closed = 1;
nodes = (
(604,-6,l),
(604,640,l),
(544,640,l),
(544,141,l),
(556,141,l),
(206,640,l),
(82,640,l),
(572,-6,l)
);
},
{
closed = 1;
nodes = (
(254,0,l),
(258,28,l),
(169,63,l),
(169,640,l),
(42,640,l),
(40,623,l),
(109,575,l),
(109,65,l),
(40,17,l),
(42,0,l)
);
},
{
closed = 1;
nodes = (
(604,577,l),
(689,612,l),
(685,640,l),
(473,640,l),
(471,623,l),
(544,575,l)
);
}
);
width = 698;
}
);
metricLeft = "=H";
metricRight = "=H";
unicode = 78;
},
{
color = 8;
glyphname = Eng;
lastChange = "2022-12-11 05:06:54 +0000";
layers = (
{
anchors = (
{
name = bottom;
pos = (360,0);
},
{
name = top;
pos = (360,640);
}
);
layerId = m01;
shapes = (
{
closed = 1;
nodes = (
(202,0,l),
(208,24,l),
(136,63,l),
(233,575,l),
(260,640,l),
(137,640,l),
(134,625,l),
(191,575,l),
(70,65,l),
(-8,15,l),
(-11,0,l)
);
},
{
closed = 1;
nodes = (
(431,-102,l),
(452,-85,l),
(321,-116,l),
(318,-121,l),
(326,-195,l),
(338,-202,l),
(447,-161,o),
(524,-59,o),
(558,77,cs),
(683,577,l),
(772,616,l),
(778,640,l),
(564,640,l),
(560,625,l),
(615,575,l),
(525,90,l),
(546,93,l),
(287,640,l),
(180,640,l),
(505,-6,l),
(486,136,l)
);
}
);
width = 704;
}
);
metricLeft = "=H";
metricRight = "=H";
unicode = 330;
},
{
color = 8;
glyphname = O;
lastChange = "2022-12-11 05:44:06 +0000";
layers = (
{
anchors = (
{
name = bottom;
pos = (238,0);
},
{
name = center;
pos = (356,320);
},
{
name = ogonek;
pos = (375,0);
},
{
name = qtail;
pos = (331,0);
},
{
name = top;
pos = (455,640);
},
{
name = topleft;
pos = (28,640);
},
{
name = topright;
pos = (683,640);
}
);
layerId = m01;
shapes = (
{
closed = 1;
nodes = (
(446,-16,o),
(606,140,o),
(649,338,cs),
(688,516,o),
(589,656,o),
(425,656,cs),
(265,656,o),
(105,500,o),
(62,302,cs),
(23,124,o),
(122,-16,o),
(286,-16,cs)
);
},
{
closed = 1;
nodes = (
(178,27,o),
(117,152,o),
(156,330,cs),
(193,496,o),
(296,613,o),
(407,613,cs),
(533,613,o),
(594,488,o),
(555,310,cs),
(518,144,o),
(415,27,o),
(304,27,cs)
);
}
);
width = 663;
},
{
anchors = (
{
name = bottom;
pos = (353,0);
},
{
name = center;
pos = (353,320);
},
{
name = ogonek;
pos = (447,0);
},
{
name = top;
pos = (353,640);
},
{
name = topleft;
pos = (25,640);
},
{
name = topright;
pos = (680,640);
}
);
associatedMasterId = m01;
layerId = "55D636DD-17C5-4DD6-AE2F-F2984AACD55F";
name = "10 Nov 22, 12:50";
shapes = (
{
closed = 1;
nodes = (
(533,-16,o),
(665,131,o),
(665,341,cs),
(665,526,o),
(543,656,o),
(359,656,cs),
(172,656,o),
(40,509,o),
(40,299,cs),
(40,114,o),
(162,-16,o),
(346,-16,cs)
);
},
{
closed = 1;
nodes = (
(230,41,o),
(136,164,o),
(136,338,cs),
(136,512,o),
(204,599,o),
(342,599,cs),
(475,599,o),
(569,476,o),
(569,302,cs),
(569,128,o),
(501,41,o),
(363,41,cs)
);
}
);
width = 705;
},
{
anchors = (
{
name = bottom;
pos = (363,0);
},
{
name = center;
pos = (363,320);
},
{
name = ogonek;
pos = (453,0);
},
{
name = qtail;
pos = (410,0);
},
{
name = top;
pos = (363,640);
},
{
name = topleft;
pos = (35,640);
},
{
name = topright;
pos = (690,640);
}
);
associatedMasterId = m01;
layerId = "36853037-D8DF-4545-8F7D-883F1DA26BF6";
name = "11 Dec 22, 09:39";
shapes = (
{
closed = 1;
nodes = (
(537,-16,o),
(680,141,o),
(680,341,cs),
(680,526,o),
(552,656,o),
(369,656,cs),
(188,656,o),
(45,499,o),
(45,299,cs),
(45,114,o),
(173,-16,o),
(356,-16,cs)
);
},
{
closed = 1;
nodes = (
(243,41,o),
(141,180,o),
(141,358,cs),
(141,513,o),
(217,599,o),
(352,599,cs),
(482,599,o),
(584,460,o),
(584,282,cs),
(584,127,o),
(508,41,o),
(373,41,cs)
);
}
);
width = 725;
}
);
unicode = 79;
},
{
color = 8;
glyphname = OE;
lastChange = "2022-12-11 05:05:28 +0000";
layers = (
{
layerId = m01;
shapes = (
{
closed = 1;
nodes = (
(489,0,l),
(637,640,l),
(551,640,l),
(404,0,l)
);
},
{
closed = 1;
nodes = (
(817,0,l),
(829,49,l),
(484,34,l),
(475,0,l)
);
},
{
closed = 1;
nodes = (
(824,0,l),
(861,160,l),
(847,160,l),
(724,44,l),
(717,0,l)
);
},
{
closed = 1;
nodes = (
(783,354,l),
(547,343,l),
(539,312,l),
(770,303,l)
);
},
{
closed = 1;
nodes = (
(766,227,l),
(804,418,l),
(781,418,l),
(723,350,l),
(705,307,l),
(752,227,l)
);
},
{
closed = 1;
nodes = (
(946,640,l),
(623,640,l),
(614,606,l),
(934,591,l)
);
},
{
closed = 1;
nodes = (
(924,508,l),
(950,646,l),
(941,646,l),
(839,640,l),
(828,596,l),
(910,508,l)
);
},
{
closed = 1;
nodes = (
(469,640,ls),
(267,640,o),
(111,514,o),
(65,313,cs),
(19,112,o),
(111,0,o),
(322,0,c),
(437,0,l),
(447,40,l),
(341,40,ls),
(180,40,o),
(115,150,o),
(161,348,cs),
(198,510,o),
(304,600,o),
(457,600,c),
(575,600,l),
(585,640,l)
);
}
);
width = 913;
},
{
associatedMasterId = m01;
layerId = "08FED0D2-71F0-4AC7-B6DD-4D8D47805CB9";
name = "3 Dec 22, 09:58";
shapes = (
{
closed = 1;
nodes = (
(409,-16,o),
(455,-10,o),
(484,0,c),
(476,57,l),
(447,46,o),
(415,41,o),
(373,41,cs),
(243,41,o),
(141,180,o),
(141,358,cs),
(141,513,o),
(217,599,o),
(352,599,cs),
(417,599,o),
(475,564,o),
(517,508,c),
(531,622,l),
(485,646,o),
(435,656,o),
(369,656,cs),
(188,656,o),
(45,499,o),
(45,299,cs),
(45,114,o),
(173,-16,o),
(356,-16,cs)
);
},
{
closed = 1;
nodes = (
(891,0,l),
(891,52,l),
(541,35,l),
(541,0,l)
);
},
{
closed = 1;
nodes = (
(566,0,l),
(566,640,l),
(476,640,l),
(476,0,l)
);
},
{
closed = 1;
nodes = (
(898,0,l),
(903,183,l),
(888,183,l),
(782,47,l),
(786,0,l)
);
},
{
closed = 1;
nodes = (
(769,354,l),
(533,343,l),
(533,309,l),
(769,300,l)
);
},
{
closed = 1;
nodes = (
(775,214,l),
(784,428,l),
(760,428,l),
(707,350,l),
(699,304,l),
(760,214,l)
);
},
{
closed = 1;
nodes = (
(871,640,l),
(541,640,l),
(541,605,l),
(871,588,l)
);
},
{
closed = 1;
nodes = (
(883,495,l),
(874,646,l),
(864,646,l),
(758,640,l),
(758,593,l),
(868,495,l)
);
}
);
width = 928;
}
);
metricLeft = "=O";
metricRight = "=E";
unicode = 338;
},
{
color = 8;
glyphname = P;
lastChange = "2022-12-11 02:25:06 +0000";
layers = (
{
background = {
shapes = (
{
closed = 1;
nodes = (
(224,240,ls),
(395,240,o),
(535,328,o),
(565,454,cs),
(593,578,o),
(527,640,o),
(363,640,cs),
(233,640,l),
(223,595,l),
(335,595,ls),
(444,595,o),
(490,532,o),
(465,420,cs),
(445,335,o),
(374,285,o),
(265,280,cs),
(150,275,l),
(142,240,l)
);
},
{
closed = 1;
nodes = (
(236,0,l),
(241,24,l),
(155,63,l),
(288,640,l),
(136,640,l),
(133,625,l),
(188,575,l),
(70,65,l),
(-8,15,l),
(-11,0,l)
);
}
);
};
layerId = m01;
shapes = (
{
closed = 1;
nodes = (
(224,244,ls),
(400,244,o),
(529,325,o),
(559,454,cs),
(585,568,o),
(509,640,o),
(363,640,cs),
(233,640,l),
(223,599,l),
(335,599,ls),
(449,599,o),
(492,540,o),
(465,420,cs),
(445,335,o),
(373,285,o),
(265,280,cs),
(150,275,l),
(142,244,l)
);
},
{
closed = 1;
nodes = (
(236,0,l),
(241,24,l),
(155,63,l),
(288,640,l),
(136,640,l),
(133,625,l),
(188,575,l),
(70,65,l),
(-8,15,l),
(-11,0,l)
);
}
);
width = 531;
}
);
metricLeft = "=H";
metricRight = "=D-15";
unicode = 80;
},
{
color = 8;
glyphname = Thorn;
lastChange = "2022-12-11 06:57:06 +0000";
layers = (
{
layerId = m01;
shapes = (
{
closed = 1;
nodes = (
(236,0,l),
(241,24,l),
(155,63,l),
(274,577,l),
(378,616,l),
(384,640,l),
(137,640,l),
(133,625,l),
(188,575,l),
(70,65,l),
(-8,15,l),
(-11,0,l)
);
},
{
closed = 1;
nodes = (
(209,145,ls),
(361,145,o),
(484,219,o),
(508,325,cs),
(532,426,o),
(448,505,o),
(318,505,cs),
(207,505,l),
(197,464,l),
(272,464,ls),
(400,464,o),
(451,412,o),
(426,308,cs),
(407,226,o),
(342,185,o),
(230,185,c),
(135,185,l),
(125,145,l)
);
}
);
width = 510;
}
);
metricLeft = "=H";
metricRight = "=D-15";
unicode = 222;
},
{
color = 8;
glyphname = Q;
lastChange = "2022-12-11 00:50:58 +0000";
layers = (
{
guides = (
{
},
{
angle = 90;
pos = (680,345);
}
);
layerId = m01;
shapes = (
{
ref = O;
},
{
pos = (-76,0);
ref = _tail.Q;
}
);
width = 663;
},
{
associatedMasterId = m01;
layerId = "5A8DA049-EFB6-4278-8648-B6E51B45B1C0";
name = "18 Nov 22, 22:09";
shapes = (
{
ref = O;
},
{
closed = 1;
nodes = (
(652,-167,o),
(682,-156,o),
(710,-130,c),
(703,-113,l),
(673,-119,o),
(610,-94,o),
(498,-33,cs),
(447,-5,l),
(447,28,l),
(361,7,l),
(434,-67,ls),
(503,-137,o),
(556,-167,o),
(610,-167,cs)
);
}
);
width = 705;
}
);
metricLeft = "=O";
metricRight = "=O@345";
unicode = 81;
},
{
color = 8;
glyphname = R;
lastChange = "2022-12-11 11:45:15 +0000";
layers = (
{
anchors = (
{
name = bottom;
pos = (251,0);
},
{
name = top;
pos = (362,640);
}
);
layerId = m01;
shapes = (
{
closed = 1;
nodes = (
(222,0,l),
(227,24,l),
(155,63,l),
(288,640,l),
(137,640,l),
(133,625,l),
(188,575,l),
(70,65,l),
(-8,15,l),
(-11,0,l)
);
},
{
closed = 1;
nodes = (
(532,0,l),
(360,287,l),
(363,302,l),
(272,291,l),
(426,0,l)
);
},
{
closed = 1;
nodes = (
(555,0,l),
(561,24,l),
(489,63,l),
(475,0,l)
);
},
{
closed = 1;
nodes = (
(302,274,l),
(305,287,l),
(424,287,o),
(535,366,o),
(558,467,cs),
(582,569,o),
(503,640,o),
(362,640,cs),
(253,640,l),
(243,599,l),
(324,599,ls),
(447,599,o),
(489,548,o),
(462,433,cs),
(446,367,o),
(387,318,o),
(319,314,cs),
(180,306,l),
(172,274,l)
);
}
);
width = 623;
}
);
metricLeft = "=H";
metricRight = "=K";
unicode = 82;
},
{
color = 8;
glyphname = S;
lastChange = "2022-12-11 09:06:07 +0000";
layers = (
{
anchors = (
{
name = bottom;
pos = (201,0);
},
{
name = top;
pos = (375,640);
}
);
layerId = m01;
shapes = (
{
closed = 1;
nodes = (
(307,-16,o),
(410,64,o),
(433,166,cs),
(480,376,o),
(157,341,o),
(202,531,cs),
(215,587,o),
(262,616,o),
(321,616,cs),
(350,616,o),
(374,609,o),
(401,592,c),
(411,631,l),
(361,631,l),
(434,511,l),
(448,511,l),
(505,611,l),
(462,640,o),
(404,656,o),
(344,656,cs),
(242,656,o),
(147,590,o),
(127,505,cs),
(74,280,o),
(399,317,o),
(357,146,cs),
(339,72,o),
(283,25,o),
(212,25,cs),
(167,25,o),
(131,35,o),
(95,59,c),
(99,24,l),
(146,24,l),
(72,154,l),
(58,154,l),
(10,54,l),
(70,5,o),
(127,-16,o),
(198,-16,cs)
);
}
);
width = 491;
},
{
anchors = (
{
name = bottom;
pos = (278,0);
},
{
name = top;
pos = (278,640);
}
);
associatedMasterId = m01;
layerId = "8D65D12E-36DD-4862-8991-9B1603AE615E";
name = "5 Nov 22, 19:53";
shapes = (
{
closed = 1;
nodes = (
(406,-16,o),
(510,60,o),
(510,169,c),
(510,263,o),
(448,325,o),
(305,373,cs),
(183,413,o),
(142,449,o),
(142,514,cs),
(142,570,o),
(182,602,o),
(254,602,cs),
(308,602,o),
(348,588,o),
(397,550,c),
(415,464,l),
(453,468,l),
(475,598,l),
(427,634,o),
(348,656,o),
(272,656,cs),
(154,656,o),
(61,581,o),
(61,485,c),
(61,394,o),
(114,336,o),
(235,294,cs),
(365,250,o),
(429,199,o),
(429,140,cs),
(429,77,o),
(371,38,o),
(279,38,cs),
(215,38,o),
(166,53,o),
(129,84,c),
(114,184,l),
(74,190,l),
(45,41,l),
(104,1,o),
(170,-16,o),
(259,-16,cs)
);
}
);
width = 555;
},
{
anchors = (
{
name = bottom;
pos = (278,0);
},
{
name = top;
pos = (278,640);
}
);
associatedMasterId = m01;
layerId = "7D25DB1E-62F2-42FD-9E37-B3998C5B0A1B";
name = "10 Nov 22, 21:35";
shapes = (
{
closed = 1;
nodes = (
(403,-16,o),
(504,60,o),
(504,169,c),
(504,269,o),
(449,326,o),
(305,375,cs),
(196,410,o),
(160,445,o),
(160,514,cs),
(160,568,o),
(196,602,o),
(254,602,cs),
(309,602,o),
(344,589,o),
(393,551,c),
(411,465,l),
(449,469,l),
(471,599,l),
(424,634,o),
(348,656,o),
(272,656,cs),
(164,656,o),
(79,581,o),
(79,485,c),
(79,390,o),
(126,332,o),
(235,294,cs),
(371,247,o),
(423,205,o),
(423,140,cs),
(423,80,o),
(364,38,o),
(279,38,cs),
(218,38,o),
(181,50,o),
(129,85,c),
(114,191,l),
(74,197,l),
(45,48,l),
(106,3,o),
(171,-16,o),
(259,-16,cs)
);
}
);
width = 549;
},
{
anchors = (
{
name = bottom;
pos = (271,0);
},
{
name = top;
pos = (271,640);
}
);
associatedMasterId = m01;
layerId = "0C632628-1E74-4862-A545-0E2F10F55B0C";
name = "12 Nov 22, 12:03";
shapes = (
{
closed = 1;
nodes = (
(400,-16,o),
(497,60,o),
(497,169,c),
(497,269,o),
(442,326,o),
(298,375,cs),
(198,407,o),
(159,446,o),
(159,514,cs),
(159,568,o),
(195,602,o),
(252,602,cs),
(301,602,o),
(338,588,o),
(386,551,c),
(404,465,l),
(442,469,l),
(462,588,l),
(409,633,o),
(343,656,o),
(265,656,cs),
(161,656,o),
(80,581,o),
(80,485,c),
(80,388,o),
(125,330,o),
(228,294,cs),
(364,247,o),
(416,205,o),
(416,140,cs),
(416,83,o),
(357,38,o),
(283,38,cs),
(218,38,o),
(175,55,o),
(128,98,c),
(117,204,l),
(77,210,l),
(50,72,l),
(100,13,o),
(170,-16,o),
(262,-16,cs)
);
}
);
width = 547;
},
{
anchors = (
{
name = bottom;
pos = (261,0);
},
{
name = top;
pos = (261,640);
}
);
associatedMasterId = m01;
layerId = "F45CE8CE-E35F-4823-AA90-135B68582C9E";
name = "17 Nov 22, 09:43";
shapes = (
{
closed = 1;
nodes = (
(395,-16,o),
(477,55,o),
(477,169,c),
(477,271,o),
(425,328,o),
(288,375,cs),
(189,407,o),
(151,445,o),
(151,514,cs),
(151,573,o),
(187,606,o),
(252,606,cs),
(301,606,o),
(335,591,o),
(373,552,c),
(390,478,l),
(428,482,l),
(448,610,l),
(393,641,o),
(332,656,o),
(264,656,cs),
(158,656,o),
(75,581,o),
(75,485,c),
(75,392,o),
(120,335,o),
(223,299,cs),
(350,254,o),
(399,207,o),
(399,129,cs),
(399,64,o),
(361,36,o),
(275,36,cs),
(208,36,o),
(162,54,o),
(127,96,c),
(116,173,l),
(76,179,l),
(50,45,l),
(111,1,o),
(170,-16,o),
(264,-16,cs)
);
}
);
width = 527;
},
{
anchors = (
{
name = bottom;
pos = (261,0);
},
{
name = top;
pos = (261,640);
}
);
associatedMasterId = m01;
background = {
shapes = (
{
closed = 1;
nodes = (
(380,-16,o),
(477,65,o),
(477,179,c),
(477,312,o),
(377,345,o),
(285,377,cs),
(188,410,o),
(151,446,o),
(151,512,cs),
(151,573,o),
(195,606,o),
(253,606,cs),
(302,606,o),
(345,584,o),
(373,562,c),
(390,488,l),
(428,492,l),
(448,610,l),
(393,641,o),
(332,656,o),
(264,656,cs),
(158,656,o),
(75,581,o),
(75,485,cs),
(75,387,o),
(127,329,o),
(252,287,cs),
(330,261,o),
(401,240,o),
(401,160,cs),
(401,85,o),
(346,36,o),
(275,36,cs),
(214,36,o),
(164,65,o),
(127,96,c),
(116,173,l),
(76,179,l),
(50,45,l),
(114,12,o),
(176,-16,o),
(264,-16,cs)
);
}
);
};
layerId = "680E9A61-04F4-4CD7-98C9-FFEEE6A7B869";
name = "17 Nov 22, 21:48";
shapes = (
{
closed = 1;
nodes = (
(383,-16,o),
(477,70,o),
(477,179,c),
(477,278,o),
(432,327,o),
(298,374,cs),
(188,412,o),
(151,447,o),
(151,514,cs),
(151,571,o),
(190,606,o),
(252,606,cs),
(295,606,o),
(332,593,o),
(373,562,c),
(398,478,l),
(415,480,l),
(448,610,l),
(393,641,o),
(332,656,o),
(264,656,cs),
(158,656,o),
(75,581,o),
(75,485,c),
(75,382,o),
(120,333,o),
(254,288,cs),
(364,250,o),
(400,216,o),
(400,151,cs),
(400,83,o),
(348,36,o),
(275,36,cs),
(217,36,o),
(172,54,o),
(127,96,c),
(103,186,l),
(86,189,l),
(50,45,l),
(132,1,o),
(191,-16,o),
(264,-16,cs)
);
}
);
width = 527;
}
);
metricLeft = "=O+5";
metricRight = "=O+5";
unicode = 83;
},
{
color = 8;
glyphname = Germandbls;
lastChange = "2022-12-11 06:00:36 +0000";
layers = (
{
layerId = m01;
shapes = (
{
closed = 1;
nodes = (
(485,-16,o),
(595,77,o),
(622,195,cs),
(647,303,o),
(576,387,o),
(462,387,c),
(481,365,l),
(667,624,l),
(664,640,l),
(571,640,ls),
(325,640,o),
(177,527,o),
(124,299,cs),
(70,65,l),
(-8,15,l),
(-11,0,l),
(140,0,l),
(220,348,ls),
(258,513,o),
(361,595,o),
(531,595,c),
(618,595,l),
(577,616,l),
(400,362,l),
(405,352,l),
(430,352,l),
(514,352,o),
(561,270,o),
(537,165,cs),
(516,73,o),
(451,16,o),
(368,16,cs),
(315,16,l),
(372,10,l),
(308,114,l),
(294,114,l),
(243,45,l),
(276,4,o),
(319,-16,o),
(372,-16,cs)
);
}
);
width = 669;
},
{
associatedMasterId = m01;
layerId = "588BDE71-2337-4899-AC6F-BB110C9C8E8A";
name = "3 Dec 22, 09:24";
shapes = (
{
closed = 1;
nodes = (
(400,355,l),
(580,640,l),
(573,656,l),
(457,656,ls),
(222,656,o),
(90,524,o),
(90,289,cs),
(90,65,l),
(20,15,l),
(20,0,l),
(180,0,l),
(180,348,ls),
(180,519,o),
(255,605,o),
(427,616,cs),
(517,622,l),
(500,638,l),
(315,381,l),
(315,377,l),
(324,342,l),
(334,342,l),
(427,342,o),
(502,263,o),
(502,150,cs),
(502,69,o),
(444,24,o),
(359,24,cs),
(303,24,l),
(363,10,l),
(290,135,l),
(276,135,l),
(233,40,l),
(271,4,o),
(329,-16,o),
(394,-16,cs),
(504,-16,o),
(601,77,o),
(601,195,cs),
(601,300,o),
(489,383,o),
(359,383,c)
);
}
);
width = 646;
},
{
associatedMasterId = m01;
background = {
shapes = (
{
closed = 1;
nodes = (
(254,0,ls),
(418,0,o),
(533,82,o),
(533,199,cs),
(533,281,o),
(474,338,o),
(381,349,c),
(381,355,l),
(444,374,o),
(494,436,o),
(494,496,cs),
(494,596,o),
(427,640,o),
(273,640,cs),
(141,640,l),
(141,598,l),
(234,598,ls),
(349,598,o),
(406,559,o),
(406,480,cs),
(406,406,o),
(368,362,o),
(300,359,cs),
(142,351,l),
(142,315,l),
(269,315,ls),
(380,315,o),
(435,272,o),
(435,170,cs),
(435,86,o),
(383,45,o),
(277,45,cs),
(149,45,l),
(149,0,l)
);
},
{
closed = 1;
nodes = (
(180,0,l),
(180,640,l),
(20,640,l),
(20,625,l),
(90,575,l),
(90,65,l),
(20,15,l),
(20,0,l)
);
}
);
};
layerId = "FFBCBE0A-3BD6-494A-A903-DDBED740D012";
name = "3 Dec 22, 09:28";
shapes = (
{
closed = 1;
nodes = (
(455,355,l),
(580,640,l),
(573,656,l),
(457,656,ls),
(222,656,o),
(90,524,o),
(90,289,cs),
(90,65,l),
(20,15,l),
(20,0,l),
(180,0,l),
(180,348,ls),
(180,519,o),
(255,605,o),
(427,616,cs),
(517,622,l),
(500,638,l),
(370,381,l),
(370,377,l),
(379,342,l),
(389,342,l),
(482,342,o),
(557,263,o),
(557,150,cs),
(557,69,o),
(499,24,o),
(414,24,cs),
(358,24,l),
(418,10,l),
(345,135,l),
(331,135,l),
(288,40,l),
(326,4,o),
(384,-16,o),
(449,-16,cs),
(559,-16,o),
(656,77,o),
(656,195,cs),
(656,300,o),
(544,383,o),
(414,383,c)
);
}
);
width = 646;
},
{
associatedMasterId = m01;
background = {
shapes = (
{
closed = 1;
nodes = (
(254,0,ls),
(418,0,o),
(533,82,o),
(533,199,cs),
(533,281,o),
(474,338,o),
(381,349,c),
(381,355,l),
(444,374,o),
(494,436,o),
(494,496,cs),
(494,596,o),
(427,640,o),
(273,640,cs),
(141,640,l),
(141,598,l),
(234,598,ls),
(349,598,o),
(406,559,o),
(406,480,cs),
(406,406,o),
(368,362,o),
(300,359,cs),
(142,351,l),
(142,315,l),
(269,315,ls),
(380,315,o),
(435,272,o),
(435,170,cs),
(435,86,o),
(383,45,o),
(277,45,cs),
(149,45,l),
(149,0,l)
);
},
{
closed = 1;
nodes = (
(180,0,l),
(180,640,l),
(20,640,l),
(20,625,l),
(90,575,l),
(90,65,l),
(20,15,l),
(20,0,l)
);
}
);
};
layerId = "AD9CA0F3-F8CF-4E71-A537-606A1399ABB5";
name = "3 Dec 22, 09:53";
shapes = (
{
closed = 1;
nodes = (
(555,-16,o),
(656,77,o),
(656,195,cs),
(656,313,o),
(567,387,o),
(424,387,c),
(459,365,l),
(600,640,l),
(593,656,l),
(491,656,ls),
(212,656,o),
(90,556,o),
(90,329,cs),
(90,65,l),
(20,15,l),
(20,0,l),
(180,0,l),
(180,388,ls),
(180,530,o),
(262,605,o),
(427,616,cs),
(517,622,l),
(500,638,l),
(365,362,l),
(373,352,l),
(399,352,l),
(487,352,o),
(557,270,o),
(557,165,cs),
(557,76,o),
(502,20,o),
(414,20,cs),
(358,20,l),
(418,10,l),
(345,139,l),
(331,139,l),
(277,45,l),
(321,4,o),
(371,-16,o),
(427,-16,cs)
);
}
);
width = 701;
}
);
metricLeft = "=H";
metricRight = "=O";
unicode = 7838;
},
{
color = 8;
glyphname = T;
lastChange = "2022-12-12 03:41:10 +0000";
layers = (
{
anchors = (
{
name = bottom;
pos = (240,0);
},
{
name = center;
pos = (314,320);
},
{
name = top;
pos = (388,640);
}
);
background = {
shapes = (
{
closed = 1;
nodes = (
(647,0,l),
(647,24,l),
(562,63,l),
(562,577,l),
(647,616,l),
(647,640,l),
(402,640,l),
(402,625,l),
(472,575,l),
(472,65,l),
(402,15,l),
(402,0,l)
);
},
{
closed = 1;
nodes = (
(231,0,l),
(231,24,l),
(146,63,l),
(146,577,l),
(231,616,l),
(231,640,l),
(-14,640,l),
(-14,625,l),
(56,575,l),
(56,65,l),
(-14,15,l),
(-14,0,l)
);
},
{
closed = 1;
nodes = (
(495,311,l),
(495,359,l),
(123,359,l),
(123,311,l)
);
}
);
};
guides = (
{
pos = (104,490);
}
);
layerId = m01;
shapes = (
{
closed = 1;
nodes = (
(364,0,l),
(369,24,l),
(298,63,l),
(431,640,l),
(345,640,l),
(213,65,l),
(135,15,l),
(131,0,l)
);
},
{
closed = 1;
nodes = (
(96,490,l),
(221,603,l),
(211,640,l),
(112,646,l),
(102,646,l),
(81,490,l)
);
},
{
closed = 1;
nodes = (
(380,606,l),
(388,640,l),
(118,640,l),
(106,591,l)
);
},
{
closed = 1;
nodes = (
(658,640,l),
(388,640,l),
(380,606,l),
(646,591,l)
);
},
{
closed = 1;
nodes = (
(625,490,l),
(677,646,l),
(667,646,l),
(565,640,l),
(538,603,l),
(611,490,l)
);
}
);
width = 579;
}
);
metricLeft = "=V";
metricRight = "=V";
unicode = 84;
},
{
color = 8;
glyphname = U;
lastChange = "2022-12-11 05:44:25 +0000";
layers = (
{
anchors = (
{
name = bottom;
pos = (246,0);
},
{
name = ogonek;
pos = (344,0);
},
{
name = top;
pos = (414,640);
},
{
name = topright;
pos = (673,640);
}
);
layerId = m01;
shapes = (
{
closed = 1;
nodes = (
(391,-16,o),
(498,93,o),
(540,266,cs),
(617,582,l),
(695,616,l),
(701,640,l),
(503,640,l),
(499,625,l),
(554,575,l),
(491,280,l),
(482,244,ls),
(450,116,o),
(384,44,o),
(300,44,cs),
(180,44,o),
(132,124,o),
(165,266,cs),
(238,577,l),
(328,616,l),
(333,640,l),
(101,640,l),
(97,625,l),
(152,575,l),
(78,258,ls),
(40,97,o),
(117,-16,o),
(263,-16,cs)
);
}
);
width = 605;
},
{
associatedMasterId = m01;
layerId = "8E1E38BD-EEF0-460B-9499-F3153D66540E";
name = "20 Oct 22, 11:21";
shapes = (
{
closed = 1;
nodes = (
(480,-16,o),
(553,74,o),
(553,280,cs),
(553,584,l),
(626,611,l),
(622,640,l),
(408,640,l),
(406,622,l),
(498,572,l),
(498,283,ls),
(498,112,o),
(451,47,o),
(330,47,cs),
(215,47,o),
(165,113,o),
(165,265,cs),
(165,574,l),
(264,611,l),
(260,640,l),
(4,640,l),
(2,622,l),
(75,568,l),
(75,262,ls),
(75,69,o),
(147,-16,o),
(313,-16,cs)
);
}
);
width = 628;
}
);
metricLeft = "=V";
metricRight = "=V";
unicode = 85;
},
{
color = 8;
glyphname = V;
lastChange = "2022-12-10 11:35:50 +0000";
layers = (
{
guides = (
{
pos = (399,568);
},
{
pos = (399,577);
}
);
layerId = m01;
shapes = (
{
closed = 1;
nodes = (
(274,0,l),
(639,577,l),
(714,616,l),
(720,640,l),
(487,640,l),
(483,625,l),
(555,568,l),
(302,106,l),
(310,106,l),
(250,568,l),
(346,616,l),
(352,640,l),
(100,640,l),
(97,625,l),
(151,577,l),
(249,0,l)
);
}
);
width = 624;
}
);
unicode = 86;
},
{
color = 8;
glyphname = W;
lastChange = "2022-12-10 11:34:25 +0000";
layers = (
{
anchors = (
{
name = bottom;
pos = (412,0);
},
{
name = top;
pos = (560,640);
}
);
layerId = m01;
shapes = (
{
closed = 1;
nodes = (
(587,0,l),
(940,577,l),
(1014,616,l),
(1020,640,l),
(793,640,l),
(790,625,l),
(857,570,l),
(603,88,l),
(624,88,l),
(574,568,l),
(666,616,l),
(672,640,l),
(440,640,l),
(437,625,l),
(484,577,l),
(499,462,l),
(494,442,l),
(561,0,l)
);
},
{
closed = 1;
nodes = (
(262,0,l),
(556,480,l),
(514,530,l),
(288,105,l),
(298,105,l),
(250,568,l),
(342,616,l),
(348,640,l),
(100,640,l),
(97,625,l),
(151,577,l),
(236,0,l)
);
}
);
width = 924;
}
);
metricLeft = "=V";
metricRight = "=V";
unicode = 87;
},
{
color = 8;
glyphname = X;
lastChange = "2022-12-10 11:36:05 +0000";
layers = (
{
layerId = m01;
shapes = (
{
closed = 1;
nodes = (
(618,0,l),
(624,24,l),
(557,69,l),
(385,357,l),
(321,314,l),
(447,64,l),
(363,15,l),
(359,0,l)
);
},
{
closed = 1;
nodes = (
(211,0,l),
(216,24,l),
(153,65,l),
(364,341,l),
(323,341,l),
(75,73,l),
(-18,15,l),
(-21,0,l)
);
},
{
closed = 1;
nodes = (
(392,344,l),
(275,575,l),
(354,616,l),
(359,640,l),
(119,640,l),
(115,625,l),
(173,573,l),
(326,301,l)
);
},
{
closed = 1;
nodes = (
(380,319,l),
(604,567,l),
(699,616,l),
(704,640,l),
(477,640,l),
(473,625,l),
(531,576,l),
(338,319,l)
);
}
);
width = 688;
}
);
unicode = 88;
},
{
color = 8;
glyphname = Y;
lastChange = "2022-12-10 11:34:52 +0000";
layers = (
{
anchors = (
{
name = bottom;
pos = (245,0);
},
{
name = top;
pos = (403,640);
},
{
name = topleft;
pos = (134,640);
}
);
layerId = m01;
shapes = (
{
closed = 1;
nodes = (
(294,190,l),
(594,575,l),
(670,616,l),
(676,640,l),
(447,640,l),
(444,625,l),
(510,571,l),
(311,262,l),
(325,262,l),
(250,568,l),
(342,616,l),
(348,640,l),
(100,640,l),
(97,625,l),
(151,577,l),
(273,190,l)
);
},
{
closed = 1;
nodes = (
(364,0,l),
(369,24,l),
(297,63,l),
(343,266,l),
(258,266,l),
(212,65,l),
(134,15,l),
(131,0,l)
);
}
);
width = 580;
}
);
metricLeft = "=V";
metricRight = "=V";
unicode = 89;
},
{
color = 8;
glyphname = Z;
lastChange = "2022-12-11 05:36:25 +0000";
layers = (
{
anchors = (
{
name = bottom;
pos = (209,0);
},
{
name = center;
pos = (282,320);
},
{
name = top;
pos = (325,640);
}
);
layerId = m01;
shapes = (
{
closed = 1;
nodes = (
(77,0,l),
(561,614,l),
(552,640,l),
(487,640,l),
(-23,16,l),
(-26,0,l)
);
},
{
closed = 1;
nodes = (
(453,0,l),
(467,62,l),
(18,37,l),
(9,0,l)
);
},
{
closed = 1;
nodes = (
(460,0,l),
(504,219,l),
(490,219,l),
(346,38,l),
(338,0,l)
);
},
{
closed = 1;
nodes = (
(96,475,l),
(228,593,l),
(229,640,l),
(130,646,l),
(120,646,l),
(82,475,l)
);
},
{
closed = 1;
nodes = (
(527,603,l),
(535,640,l),
(134,640,l),
(120,581,l)
);
}
);
width = 530;
},
{
anchors = (
{
name = bottom;
pos = (281,0);
},
{
name = center;
pos = (281,320);
},
{
name = top;
pos = (281,640);
}
);
associatedMasterId = m01;
layerId = "5439F151-69B3-47A5-8E52-D6071ED5F9E0";
name = "17 Nov 22, 21:51";
shapes = (
{
closed = 1;
nodes = (
(122,0,l),
(537,614,l),
(517,640,l),
(464,640,l),
(20,16,l),
(25,0,l)
);
},
{
closed = 1;
nodes = (
(531,0,l),
(531,62,l),
(71,42,l),
(71,0,l)
);
},
{
closed = 1;
nodes = (
(546,0,l),
(552,196,l),
(514,200,l),
(454,47,l),
(401,0,l)
);
},
{
closed = 1;
nodes = (
(113,589,l),
(173,640,l),
(51,646,l),
(38,646,l),
(34,470,l),
(65,463,l)
);
},
{
closed = 1;
nodes = (
(501,600,l),
(501,640,l),
(55,640,l),
(55,581,l)
);
}
);
width = 572;
}
);
unicode = 90;
},
{
color = 8;
glyphname = a;
lastChange = "2022-12-12 05:39:28 +0000";
layers = (
{
anchors = (
{
name = bottom;
pos = (184,0);
},
{
name = ogonek;
pos = (397,0);
},
{
name = top;
pos = (315,430);
}
);
layerId = m01;
shapes = (
{
closed = 1;
nodes = (
(328,203,l),
(302,107,ls),
(282,34,o),
(298,-12,o),
(344,-12,cs),
(406,-12,o),
(460,34,o),
(484,107,c),
(463,116,l),
(435,60,o),
(415,38,o),
(391,38,cs),
(370,38,o),
(365,57,o),
(377,108,cs),
(455,442,l),
(436,442,l),
(388,407,l),
(369,416,l),
(368,412,ls),
(315,201,o),
(229,52,o),
(158,52,cs),
(107,52,o),
(94,109,o),
(119,223,cs),
(144,335,o),
(207,405,o),
(281,405,cs),
(340,405,o),
(367,368,o),
(386,256,c),
(432,367,l),
(393,417,o),
(349,442,o),
(300,442,cs),
(179,442,o),
(60,331,o),
(29,190,cs),
(2,71,o),
(39,-12,o),
(119,-12,cs),
(189,-12,o),
(262,65,o),
(321,203,c)
);
}
);
width = 514;
},
{
associatedMasterId = m01;
layerId = "37C8B204-8596-47B0-AAA8-6AD21C8AD271";
name = "25 Oct 22, 08:49";
shapes = (
{
closed = 1;
nodes = (
(404,-12,o),
(433,0,o),
(449,18,c),
(449,34,l),
(404,26,o),
(381,43,o),
(381,86,c),
(381,285,ls),
(381,390,o),
(328,442,o),
(221,442,cs),
(139,442,o),
(91,417,o),
(42,366,c),
(79,284,l),
(110,292,l),
(118,360,l),
(146,380,o),
(170,388,o),
(205,388,cs),
(268,388,o),
(295,352,o),
(295,270,cs),
(295,68,l),
(298,68,l),
(303,21,o),
(335,-12,o),
(375,-12,cs)
);
},
{
closed = 1;
nodes = (
(210,-12,o),
(249,12,o),
(292,68,c),
(306,68,l),
(306,123,l),
(260,70,o),
(228,50,o),
(190,50,cs),
(143,50,o),
(117,72,o),
(117,110,cs),
(117,166,o),
(147,192,o),
(238,217,cs),
(327,241,l),
(326,272,l),
(201,249,ls),
(88,228,o),
(32,179,o),
(32,101,cs),
(32,32,o),
(82,-12,o),
(162,-12,cs)
);
}
);
width = 457;
},
{
anchors = (
{
name = bottom;
pos = (236,0);
},
{
name = ogonek;
pos = (439,0);
},
{
name = top;
pos = (236,430);
}
);
associatedMasterId = m01;
layerId = "E6B211CA-FC05-4BF0-BFF7-6EF23D986220";
name = "1 Nov 22, 09:03";
shapes = (
{
closed = 1;
nodes = (
(418,-12,o),
(447,0,o),
(463,18,c),
(463,34,l),
(418,26,o),
(395,43,o),
(395,86,c),
(395,285,ls),
(395,386,o),
(335,442,o),
(229,442,cs),
(153,442,o),
(97,419,o),
(46,366,c),
(83,284,l),
(114,292,l),
(122,360,l),
(149,379,o),
(177,388,o),
(213,388,cs),
(280,388,o),
(309,352,o),
(309,270,cs),
(309,68,l),
(312,68,l),
(317,21,o),
(349,-12,o),
(389,-12,cs)
);
},
{
closed = 1;
nodes = (
(220,-12,o),
(265,15,o),
(306,68,c),
(320,68,l),
(320,123,l),
(278,74,o),
(237,50,o),
(197,50,cs),
(146,50,o),
(117,72,o),
(117,110,cs),
(117,162,o),
(156,194,o),
(246,217,cs),
(341,241,l),
(340,276,l),
(209,253,ls),
(95,233,o),
(32,179,o),
(32,101,cs),
(32,32,o),
(85,-12,o),
(169,-12,cs)
);
}
);
width = 471;
},
{
anchors = (
{
name = bottom;
pos = (241,0);
},
{
name = ogonek;
pos = (444,0);
},
{
name = top;
pos = (231,430);
}
);
associatedMasterId = m01;
layerId = "3D553E42-C943-42E2-828F-2451A6F20224";
name = "15 Nov 22, 07:30";
shapes = (
{
closed = 1;
nodes = (
(423,-12,o),
(452,0,o),
(468,18,c),
(468,34,l),
(423,26,o),
(400,43,o),
(400,86,c),
(400,285,ls),
(400,381,o),
(338,442,o),
(238,442,cs),
(168,442,o),
(107,415,o),
(54,360,c),
(88,279,l),
(127,289,l),
(127,368,l),
(155,385,o),
(180,391,o),
(218,391,cs),
(282,391,o),
(314,351,o),
(314,270,cs),
(314,68,l),
(317,68,l),
(322,21,o),
(354,-12,o),
(394,-12,cs)
);
},
{
closed = 1;
nodes = (
(212,-12,o),
(268,17,o),
(311,68,c),
(325,68,l),
(325,123,l),
(285,76,o),
(238,50,o),
(193,50,cs),
(147,50,o),
(122,74,o),
(122,118,cs),
(122,162,o),
(165,195,o),
(251,217,cs),
(346,241,l),
(345,279,l),
(171,238,ls),
(85,218,o),
(37,169,o),
(37,101,cs),
(37,35,o),
(85,-12,o),
(154,-12,cs)
);
}
);
width = 485;
},
{
anchors = (
{
name = bottom;
pos = (227,0);
},
{
name = ogonek;
pos = (430,0);
},
{
name = top;
pos = (217,430);
}
);
associatedMasterId = m01;
background = {
shapes = (
{
closed = 1;
nodes = (
(-52,430,l),
(-54,409,l),
(38,372,l),
(22,396,l),
(22,157,ls),
(22,49,o),
(68,-12,o),
(149,-12,cs),
(213,-12,o),
(267,14,o),
(329,75,c),
(343,75,l),
(343,144,l),
(313,90,o),
(253,52,o),
(199,52,cs),
(138,52,o),
(108,95,o),
(108,182,cs),
(108,383,l),
(94,365,l),
(166,417,l),
(164,430,l)
);
}
);
};
layerId = "63F48114-5D37-41F3-A354-DF50916E4BD9";
name = "17 Nov 22, 13:25";
shapes = (
{
closed = 1;
nodes = (
(345,-12,l),
(438,36,l),
(438,48,l),
(370,90,l),
(386,61,l),
(386,285,ls),
(386,386,o),
(336,442,o),
(246,442,cs),
(166,442,o),
(106,418,o),
(48,363,c),
(99,283,l),
(115,284,l),
(129,370,l),
(152,385,o),
(178,391,o),
(215,391,cs),
(272,391,o),
(300,351,o),
(300,270,cs),
(300,58,l),
(308,58,l),
(330,-12,l)
);
},
{
closed = 1;
nodes = (
(210,-12,o),
(265,15,o),
(300,58,c),
(311,58,l),
(311,117,l),
(276,74,o),
(232,50,o),
(189,50,cs),
(150,50,o),
(126,74,o),
(126,113,cs),
(126,159,o),
(166,192,o),
(247,214,cs),
(332,237,l),
(331,273,l),
(212,249,ls),
(109,228,o),
(44,166,o),
(44,89,cs),
(44,32,o),
(94,-12,o),
(157,-12,cs)
);
}
);
width = 450;
},
{
anchors = (
{
name = bottom;
pos = (228,0);
},
{
name = ogonek;
pos = (371,0);
},
{
name = top;
pos = (218,430);
}
);
associatedMasterId = m01;
background = {
shapes = (
{
closed = 1;
nodes = (
(-51,430,l),
(-53,409,l),
(39,372,l),
(23,396,l),
(23,157,ls),
(23,49,o),
(69,-12,o),
(150,-12,cs),
(214,-12,o),
(268,14,o),
(330,75,c),
(344,75,l),
(344,144,l),
(314,90,o),
(254,52,o),
(200,52,cs),
(139,52,o),
(109,95,o),
(109,182,cs),
(109,383,l),
(95,365,l),
(167,417,l),
(165,430,l)
);
}
);
};
layerId = "B1BAF75A-8201-46CA-B504-47D351930975";
name = "19 Nov 22, 20:58";
shapes = (
{
closed = 1;
nodes = (
(346,-12,l),
(446,36,l),
(446,48,l),
(371,100,l),
(387,71,l),
(387,285,ls),
(387,386,o),
(333,442,o),
(237,442,cs),
(166,442,o),
(102,418,o),
(45,369,c),
(92,287,l),
(105,288,l),
(176,384,l),
(188,390,o),
(200,392,o),
(216,392,cs),
(273,392,o),
(301,352,o),
(301,270,cs),
(301,58,l),
(309,58,l),
(331,-12,l)
);
},
{
closed = 1;
nodes = (
(208,-12,o),
(266,15,o),
(301,58,c),
(312,58,l),
(312,117,l),
(277,74,o),
(231,50,o),
(185,50,cs),
(146,50,o),
(122,74,o),
(122,113,cs),
(122,160,o),
(162,193,o),
(243,214,cs),
(333,237,l),
(332,273,l),
(238,255,ls),
(106,230,o),
(40,175,o),
(40,92,cs),
(40,34,o),
(88,-12,o),
(150,-12,cs)
);
}
);
width = 477;
},
{
anchors = (
{
name = bottom;
pos = (228,0);
},
{
name = ogonek;
pos = (371,0);
},
{
name = top;
pos = (231,430);
}
);
associatedMasterId = m01;
background = {
shapes = (
{
closed = 1;
nodes = (
(336,-12,o),
(440,94,o),
(440,230,cs),
(440,354,o),
(351,442,o),
(225,442,cs),
(92,442,o),
(-12,336,o),
(-12,200,cs),
(-12,76,o),
(77,-12,o),
(203,-12,cs)
);
},
{
closed = 1;
nodes = (
(138,33,o),
(75,121,o),
(75,233,cs),
(75,343,o),
(119,397,o),
(209,397,cs),
(290,397,o),
(353,309,o),
(353,197,cs),
(353,87,o),
(309,33,o),
(219,33,cs)
);
}
);
};
layerId = "AF6BB1AC-371D-4012-827B-77A06C5D4AE2";
name = "23 Nov 22, 09:07";
shapes = (
{
closed = 1;
nodes = (
(346,-12,l),
(446,36,l),
(446,48,l),
(371,100,l),
(387,71,l),
(387,285,ls),
(387,386,o),
(333,442,o),
(237,442,cs),
(166,442,o),
(102,418,o),
(45,369,c),
(92,287,l),
(105,288,l),
(176,384,l),
(188,390,o),
(200,392,o),
(216,392,cs),
(273,392,o),
(301,352,o),
(301,270,cs),
(301,58,l),
(309,58,l),
(331,-12,l)
);
},
{
closed = 1;
nodes = (
(208,-12,o),
(266,15,o),
(301,58,c),
(312,58,l),
(312,117,l),
(277,74,o),
(231,50,o),
(185,50,cs),
(146,50,o),
(122,74,o),
(122,113,cs),
(122,160,o),
(162,193,o),
(243,214,cs),
(333,237,l),
(332,273,l),
(238,255,ls),
(106,230,o),
(40,175,o),
(40,92,cs),
(40,34,o),
(88,-12,o),
(150,-12,cs)
);
}
);
width = 477;
}
);
metricLeft = "=o";
metricRight = "=n";
unicode = 97;
},
{
color = 8;
glyphname = ae;
lastChange = "2022-12-12 05:39:22 +0000";
layers = (
{
anchors = (
{
name = bottom;
pos = (350,0);
},
{
name = top;
pos = (423,430);
}
);
layerId = m01;
shapes = (
{
closed = 1;
nodes = (
(531,-12,o),
(603,41,o),
(645,135,c),
(623,143,l),
(585,77,o),
(537,44,o),
(477,44,cs),
(393,44,o),
(361,109,o),
(389,224,cs),
(416,336,o),
(471,399,o),
(543,399,cs),
(576,399,o),
(589,373,o),
(577,327,cs),
(563,269,o),
(483,236,o),
(352,236,c),
(352,209,l),
(522,209,o),
(643,262,o),
(665,346,cs),
(679,400,o),
(633,442,o),
(561,442,cs),
(446,442,o),
(332,338,o),
(301,205,cs),
(273,83,o),
(336,-12,o),
(445,-12,cs)
);
},
{
closed = 1;
nodes = (
(271,128,o),
(209,52,o),
(158,52,cs),
(107,52,o),
(94,109,o),
(119,223,cs),
(144,335,o),
(207,405,o),
(281,405,cs),
(340,405,o),
(367,368,o),
(386,256,c),
(432,367,l),
(393,417,o),
(349,442,o),
(300,442,cs),
(179,442,o),
(60,331,o),
(29,190,cs),
(2,71,o),
(39,-12,o),
(119,-12,cs),
(189,-12,o),
(266,65,o),
(325,203,c),
(319,247,l)
);
}
);
width = 698;
}
);
metricLeft = "=a";
metricRight = "=e";
unicode = 230;
},
{
color = 8;
glyphname = b;
lastChange = "2022-12-11 06:54:59 +0000";
layers = (
{
layerId = m01;
shapes = (
{
closed = 1;
nodes = (
(116,9,l),
(118,18,ls),
(163,220,o),
(260,378,o),
(337,378,cs),
(385,378,o),
(396,321,o),
(371,207,cs),
(345,90,o),
(289,25,o),
(214,25,cs),
(150,25,o),
(117,61,o),
(93,155,c),
(43,43,l),
(83,8,o),
(136,-12,o),
(191,-12,cs),
(311,-12,o),
(430,99,o),
(461,240,cs),
(489,364,o),
(456,442,o),
(376,442,cs),
(306,442,o),
(217,350,o),
(164,227,c),
(157,227,l),
(213,430,l),
(284,735,l),
(264,735,l),
(109,689,l),
(109,675,l),
(202,638,l),
(191,675,l),
(43,43,l)
);
}
);
width = 490;
},
{
associatedMasterId = m01;
layerId = "0C3977BD-DC67-441E-B70E-3DC1ABFAC8B2";
name = "25 Oct 22, 08:40";
shapes = (
{
closed = 1;
nodes = (
(417,-12,o),
(523,94,o),
(523,228,cs),
(523,359,o),
(443,442,o),
(316,442,cs),
(262,442,o),
(217,422,o),
(168,375,c),
(155,375,l),
(155,303,l),
(203,356,o),
(249,383,o),
(294,383,cs),
(384,383,o),
(434,319,o),
(434,205,cs),
(434,97,o),
(381,36,o),
(286,36,cs),
(241,36,o),
(208,48,o),
(168,78,c),
(150,97,l),
(125,39,l),
(167,4,o),
(215,-12,o),
(283,-12,cs)
);
},
{
closed = 1;
nodes = (
(100,-7,l),
(161,56,l),
(168,63,l),
(168,375,l),
(165,375,l),
(168,408,o),
(170,460,o),
(170,546,cs),
(170,720,l),
(152,720,l),
(17,665,l),
(17,653,l),
(100,605,l),
(84,640,l),
(84,-7,l)
);
}
);
width = 555;
},
{
associatedMasterId = m01;
layerId = "190EC7A6-6A16-4F43-9301-0ED72DC66A1F";
name = "29 Oct 22, 13:58";
shapes = (
{
closed = 1;
nodes = (
(405,-12,o),
(503,94,o),
(503,228,cs),
(503,354,o),
(422,442,o),
(306,442,cs),
(252,442,o),
(213,423,o),
(168,375,c),
(155,375,l),
(155,303,l),
(205,363,o),
(238,383,o),
(284,383,cs),
(367,383,o),
(414,319,o),
(414,205,cs),
(414,98,o),
(366,38,o),
(281,38,cs),
(241,38,o),
(213,46,o),
(168,72,c),
(150,97,l),
(125,39,l),
(172,2,o),
(216,-12,o),
(281,-12,cs)
);
},
{
closed = 1;
nodes = (
(100,-7,l),
(161,56,l),
(168,63,l),
(168,375,l),
(165,375,l),
(168,408,o),
(170,460,o),
(170,546,cs),
(170,720,l),
(152,720,l),
(17,665,l),
(17,653,l),
(100,605,l),
(84,640,l),
(84,-7,l)
);
}
);
width = 535;
},
{
associatedMasterId = m01;
layerId = "97D5D555-DDA5-49EA-A5E3-D54F4CF39309";
name = "17 Nov 22, 21:25";
shapes = (
{
closed = 1;
nodes = (
(396,-12,o),
(501,94,o),
(501,228,cs),
(501,354,o),
(422,442,o),
(309,442,cs),
(254,442,o),
(219,427,o),
(166,380,c),
(153,380,l),
(153,319,l),
(199,363,o),
(236,380,o),
(287,380,cs),
(364,380,o),
(412,313,o),
(412,205,cs),
(412,97,o),
(358,36,o),
(262,36,cs),
(227,36,o),
(200,45,o),
(166,68,c),
(148,97,l),
(123,33,l),
(173,-1,o),
(208,-12,o),
(262,-12,cs)
);
},
{
closed = 1;
nodes = (
(98,-7,l),
(159,56,l),
(166,63,l),
(166,380,l),
(163,380,l),
(166,410,o),
(168,483,o),
(168,546,cs),
(168,720,l),
(150,720,l),
(15,665,l),
(15,653,l),
(98,605,l),
(82,640,l),
(82,-7,l)
);
}
);
width = 545;
}
);
metricLeft = "=h";
metricRight = "=o";
unicode = 98;
},
{
color = 8;
glyphname = c;
lastChange = "2022-12-11 06:14:57 +0000";
layers = (
{
anchors = (
{
name = bottom;
pos = (185,0);
},
{
name = top;
pos = (300,430);
}
);
background = {
shapes = (
{
closed = 1;
nodes = (
(339,-12,o),
(395,12,o),
(444,68,c),
(425,93,l),
(381,57,o),
(342,43,o),
(286,43,cs),
(190,43,o),
(129,116,o),
(129,233,cs),
(129,338,o),
(172,397,o),
(249,397,cs),
(305,397,o),
(352,346,o),
(355,281,c),
(93,263,l),
(93,228,l),
(446,228,l),
(446,365,o),
(383,442,o),
(271,442,cs),
(142,442,o),
(41,336,o),
(41,200,cs),
(41,76,o),
(131,-12,o),
(260,-12,cs)
);
}
);
};
layerId = m01;
shapes = (
{
closed = 1;
nodes = (
(354,325,l),
(365,325,l),
(412,404,l),
(376,429,o),
(339,442,o),
(300,442,cs),
(181,442,o),
(64,338,o),
(33,205,cs),
(3,72,o),
(58,-12,o),
(177,-12,cs),
(263,-12,o),
(335,41,o),
(377,135,c),
(355,143,l),
(311,67,o),
(267,34,o),
(209,34,cs),
(123,34,o),
(91,102,o),
(121,224,cs),
(149,340,o),
(205,405,o),
(277,405,c)
);
}
);
width = 421;
},
{
anchors = (
{
name = bottom;
pos = (237,0);
},
{
name = top;
pos = (237,430);
}
);
associatedMasterId = m01;
layerId = "C40D9770-BA95-4555-8C1F-217C3D99E667";
name = "17 Nov 22, 20:01";
shapes = (
{
closed = 1;
nodes = (
(338,-12,o),
(394,18,o),
(428,80,c),
(405,97,l),
(370,58,o),
(335,43,o),
(277,43,cs),
(187,43,o),
(130,116,o),
(130,233,cs),
(130,330,o),
(178,391,o),
(254,391,cs),
(293,391,o),
(323,380,o),
(352,354,c),
(366,285,l),
(408,289,l),
(424,386,l),
(376,423,o),
(324,442,o),
(268,442,cs),
(141,442,o),
(42,336,o),
(42,200,cs),
(42,76,o),
(132,-12,o),
(261,-12,cs)
);
}
);
width = 470;
}
);
metricLeft = "=o";
metricRight = "=o*0.75";
unicode = 99;
},
{
color = 8;
glyphname = d;
lastChange = "2022-12-11 07:00:17 +0000";
layers = (
{
anchors = (
{
name = bottom;
pos = (273,0);
},
{
name = center;
pos = (351,539);
},
{
name = top;
pos = (273,735);
},
{
name = topright;
pos = (527,735);
}
);
layerId = m01;
shapes = (
{
closed = 1;
nodes = (
(183,-12,o),
(272,81,o),
(326,203,c),
(334,203,l),
(307,107,ls),
(287,34,o),
(303,-12,o),
(349,-12,cs),
(411,-12,o),
(465,34,o),
(489,107,c),
(468,116,l),
(440,60,o),
(420,38,o),
(396,38,cs),
(374,38,o),
(369,61,o),
(380,108,cs),
(527,735,l),
(507,735,l),
(352,689,l),
(352,675,l),
(445,638,l),
(434,675,l),
(372,410,ls),
(325,208,o),
(230,52,o),
(153,52,cs),
(105,52,o),
(94,109,o),
(119,223,cs),
(145,340,o),
(201,405,o),
(276,405,cs),
(340,405,o),
(372,364,o),
(391,256,c),
(437,367,l),
(396,415,o),
(347,442,o),
(299,442,cs),
(179,442,o),
(60,331,o),
(29,190,cs),
(1,66,o),
(34,-12,o),
(114,-12,cs)
);
}
);
width = 519;
},
{
associatedMasterId = m01;
layerId = "FA78EB34-F677-4D4F-934E-6540DCBCF5B3";
name = "22 Oct 22, 10:51";
shapes = (
{
closed = 1;
nodes = (
(430,-12,l),
(544,39,l),
(544,51,l),
(457,107,l),
(473,78,l),
(473,720,l),
(455,720,l),
(320,665,l),
(320,653,l),
(403,605,l),
(387,634,l),
(387,567,ls),
(387,482,o),
(388,443,o),
(390,409,c),
(387,409,l),
(387,59,l),
(395,59,l),
(415,-12,l)
);
},
{
closed = 1;
nodes = (
(291,-12,o),
(340,11,o),
(389,58,c),
(401,58,l),
(401,121,l),
(353,68,o),
(314,47,o),
(261,47,cs),
(171,47,o),
(121,111,o),
(121,225,cs),
(121,328,o),
(178,392,o),
(269,392,cs),
(315,392,o),
(351,377,o),
(387,342,c),
(405,333,l),
(431,372,l),
(386,419,o),
(333,442,o),
(272,442,cs),
(138,442,o),
(32,336,o),
(32,202,cs),
(32,71,o),
(112,-12,o),
(239,-12,cs)
);
}
);
width = 556;
},
{
associatedMasterId = m01;
layerId = "A9495A31-85A9-4B6E-ACDA-8228427C7189";
name = "24 Oct 22, 22:36";
shapes = (
{
closed = 1;
nodes = (
(293,-12,o),
(338,8,o),
(387,55,c),
(400,55,l),
(400,127,l),
(352,74,o),
(306,47,o),
(261,47,cs),
(171,47,o),
(121,111,o),
(121,225,cs),
(121,332,o),
(174,392,o),
(269,392,cs),
(319,392,o),
(348,382,o),
(387,352,c),
(405,333,l),
(430,391,l),
(388,426,o),
(340,442,o),
(272,442,cs),
(138,442,o),
(32,336,o),
(32,202,cs),
(32,71,o),
(112,-12,o),
(239,-12,cs)
);
},
{
closed = 1;
nodes = (
(430,-12,l),
(544,39,l),
(544,51,l),
(457,107,l),
(473,78,l),
(473,720,l),
(455,720,l),
(320,665,l),
(320,653,l),
(403,605,l),
(387,634,l),
(387,567,ls),
(387,482,o),
(388,453,o),
(390,419,c),
(387,419,l),
(387,59,l),
(395,59,l),
(415,-12,l)
);
}
);
width = 556;
},
{
associatedMasterId = m01;
layerId = "CC7E22DC-FC06-4AF8-A1C1-F2B074CC1A8F";
name = "25 Oct 22, 08:40";
shapes = (
{
closed = 1;
nodes = (
(293,-12,o),
(338,8,o),
(387,55,c),
(400,55,l),
(400,127,l),
(352,74,o),
(306,47,o),
(261,47,cs),
(171,47,o),
(121,111,o),
(121,225,cs),
(121,333,o),
(174,394,o),
(269,394,cs),
(314,394,o),
(347,382,o),
(387,352,c),
(405,333,l),
(430,391,l),
(388,426,o),
(340,442,o),
(272,442,cs),
(138,442,o),
(32,336,o),
(32,202,cs),
(32,71,o),
(112,-12,o),
(239,-12,cs)
);
},
{
closed = 1;
nodes = (
(430,-12,l),
(544,39,l),
(544,51,l),
(457,107,l),
(473,78,l),
(473,720,l),
(455,720,l),
(320,665,l),
(320,653,l),
(403,605,l),
(387,634,l),
(387,567,ls),
(387,482,o),
(388,453,o),
(390,419,c),
(387,419,l),
(387,59,l),
(395,59,l),
(415,-12,l)
);
}
);
width = 556;
},
{
associatedMasterId = m01;
layerId = "B80EE512-93CC-47A0-A521-ADD5CE53FB9D";
name = "17 Nov 22, 11:02";
shapes = (
{
closed = 1;
nodes = (
(291,-12,o),
(326,3,o),
(379,50,c),
(392,50,l),
(392,111,l),
(346,67,o),
(309,50,o),
(258,50,cs),
(181,50,o),
(133,117,o),
(133,225,cs),
(133,333,o),
(187,394,o),
(283,394,cs),
(318,394,o),
(345,385,o),
(379,362,c),
(397,333,l),
(422,397,l),
(372,431,o),
(337,442,o),
(283,442,cs),
(149,442,o),
(44,336,o),
(44,202,cs),
(44,76,o),
(123,-12,o),
(236,-12,cs)
);
},
{
closed = 1;
nodes = (
(426,-12,l),
(536,39,l),
(536,51,l),
(449,107,l),
(465,78,l),
(465,720,l),
(447,720,l),
(312,665,l),
(312,653,l),
(395,605,l),
(379,634,l),
(379,567,ls),
(379,510,o),
(380,446,o),
(382,422,c),
(379,422,l),
(379,50,l),
(387,50,l),
(411,-12,l)
);
}
);
width = 548;
},
{
associatedMasterId = m01;
layerId = "2891B063-67D2-4C5D-9416-436C2842EBE7";
name = "25 Nov 22, 09:07";
shapes = (
{
closed = 1;
nodes = (
(280,-12,o),
(335,17,o),
(380,68,c),
(393,68,l),
(393,129,l),
(354,77,o),
(307,48,o),
(262,48,cs),
(179,48,o),
(127,116,o),
(127,225,cs),
(127,342,o),
(174,400,o),
(270,400,cs),
(313,400,o),
(353,383,o),
(380,353,c),
(398,327,l),
(423,402,l),
(382,430,o),
(336,442,o),
(274,442,cs),
(143,442,o),
(40,335,o),
(40,199,cs),
(40,69,o),
(112,-12,o),
(227,-12,cs)
);
},
{
closed = 1;
nodes = (
(427,-12,l),
(527,39,l),
(527,51,l),
(450,107,l),
(466,78,l),
(466,720,l),
(448,720,l),
(313,665,l),
(313,653,l),
(396,595,l),
(380,624,l),
(380,567,ls),
(380,493,o),
(381,450,o),
(383,425,c),
(380,425,l),
(380,68,l),
(388,68,l),
(412,-12,l)
);
}
);
width = 556;
}
);
metricLeft = "=o";
metricRight = "=n";
unicode = 100;
},
{
color = 8;
glyphname = eth;
lastChange = "2022-12-11 09:15:04 +0000";
layers = (
{
background = {
shapes = (
{
closed = 1;
nodes = (
(363,410,l),
(375,372,o),
(384,307,o),
(384,263,cs),
(384,103,o),
(343,33,o),
(250,33,cs),
(169,33,o),
(106,121,o),
(106,233,cs),
(106,343,o),
(150,397,o),
(240,397,cs),
(310,397,o),
(358,360,o),
(400,276,c),
(400,376,l),
(362,420,o),
(314,442,o),
(256,442,cs),
(123,442,o),
(19,334,o),
(19,196,cs),
(19,74,o),
(108,-12,o),
(234,-12,cs),
(373,-12,o),
(471,106,o),
(471,273,cs),
(471,497,o),
(313,701,o),
(113,735,c),
(104,698,l),
(242,651,o),
(337,548,o),
(367,410,c)
);
}
);
};
layerId = m01;
shapes = (
{
closed = 1;
nodes = (
(300,-12,o),
(399,92,o),
(434,257,cs),
(481,486,o),
(381,697,o),
(205,735,c),
(192,707,l),
(311,660,o),
(375,553,o),
(371,408,c),
(368,408,l),
(370,345,o),
(360,268,o),
(342,206,c),
(314,87,o),
(265,28,o),
(194,28,cs),
(120,28,o),
(92,104,o),
(121,224,cs),
(149,343,o),
(198,402,o),
(269,402,cs),
(316,402,o),
(369,354,o),
(397,286,c),
(407,340,l),
(389,403,o),
(342,442,o),
(286,442,cs),
(175,442,o),
(64,338,o),
(33,205,cs),
(2,72,o),
(57,-12,o),
(177,-12,cs)
);
},
{
closed = 1;
nodes = (
(500,683,l),
(486,720,l),
(189,555,l),
(204,518,l)
);
}
);
width = 459;
},
{
associatedMasterId = m01;
layerId = "AF4F926D-2C41-4F78-B3F9-6DE9A27D9887";
name = "26 Nov 22, 09:01";
shapes = (
{
closed = 1;
nodes = (
(410,-12,o),
(496,90,o),
(496,273,cs),
(496,509,o),
(358,682,o),
(138,720,c),
(129,683,l),
(293,646,o),
(386,540,o),
(411,364,c),
(422,373,l),
(386,417,o),
(335,442,o),
(279,442,cs),
(139,442,o),
(40,342,o),
(40,200,cs),
(40,76,o),
(130,-12,o),
(257,-12,cs)
);
},
{
closed = 1;
nodes = (
(188,36,o),
(129,117,o),
(129,233,cs),
(129,336,o),
(177,394,o),
(263,394,cs),
(348,394,o),
(407,313,o),
(407,197,cs),
(407,94,o),
(359,36,o),
(273,36,cs)
);
},
{
closed = 1;
nodes = (
(456,690,l),
(437,720,l),
(165,555,l),
(184,525,l)
);
}
);
width = 536;
}
);
metricLeft = "=o";
metricRight = "=o";
unicode = 240;
},
{
color = 8;
glyphname = e;
lastChange = "2022-12-11 06:39:24 +0000";
layers = (
{
anchors = (
{
name = bottom;
pos = (159,0);
},
{
name = ogonek;
pos = (245,0);
},
{
name = top;
pos = (293,430);
}
);
layerId = m01;
shapes = (
{
closed = 1;
nodes = (
(263,-12,o),
(335,41,o),
(377,135,c),
(355,143,l),
(317,77,o),
(269,44,o),
(209,44,cs),
(125,44,o),
(93,109,o),
(121,224,cs),
(148,336,o),
(203,399,o),
(275,399,cs),
(308,399,o),
(321,373,o),
(309,327,cs),
(295,269,o),
(215,236,o),
(84,236,c),
(84,209,l),
(254,209,o),
(375,262,o),
(397,346,cs),
(411,400,o),
(365,442,o),
(293,442,cs),
(178,442,o),
(64,338,o),
(33,205,cs),
(5,83,o),
(68,-12,o),
(177,-12,cs)
);
}
);
width = 430;
}
);
metricLeft = "=o";
metricRight = "=o";
unicode = 101;
},
{
color = 8;
glyphname = f;
lastChange = "2022-12-11 07:09:09 +0000";
layers = (
{
layerId = m01;
shapes = (
{
closed = 1;
nodes = (
(11,-250,o),
(69,-188,o),
(92,-89,cs),
(251,585,ls),
(269,660,o),
(302,693,o),
(361,693,cs),
(379,693,o),
(396,687,o),
(418,674,c),
(329,725,l),
(426,629,l),
(437,629,l),
(475,725,l),
(444,741,o),
(421,747,o),
(391,747,cs),
(289,747,o),
(185,646,o),
(155,518,cs),
(13,-88,ls),
(-10,-186,o),
(-37,-233,o),
(-83,-259,c),
(-73,-277,l)
);
},
{
closed = 1;
nodes = (
(138,380,l),
(147,457,l),
(48,399,l),
(43,380,l)
);
},
{
closed = 1;
nodes = (
(348,380,l),
(363,443,l),
(202,419,l),
(193,380,l)
);
}
);
width = 337;
}
);
metricLeft = "=n";
unicode = 102;
},
{
color = 8;
glyphname = g;
lastChange = "2022-12-18 04:03:24 +0000";
layers = (
{
anchors = (
{
name = bottom;
pos = (278,-280);
},
{
name = top;
pos = (263,430);
}
);
layerId = m01;
shapes = (
{
closed = 1;
nodes = (
(234,-277,o),
(335,-199,o),
(353,-126,cs),
(397,52,o),
(74,-7,o),
(101,90,cs),
(106,107,o),
(118,120,o),
(145,138,c),
(126,154,l),
(72,123,o),
(49,99,o),
(40,66,cs),
(-4,-95,o),
(310,-19,o),
(284,-148,cs),
(275,-193,o),
(216,-241,o),
(137,-241,cs),
(55,-241,o),
(-1,-197,o),
(14,-137,cs),
(21,-104,o),
(55,-75,o),
(126,-42,c),
(126,-29,l),
(91,-30,l),
(91,-38,l),
(23,-54,o),
(-39,-105,o),
(-50,-154,cs),
(-68,-233,o),
(-3,-277,o),
(116,-277,cs)
);
},
{
closed = 1;
nodes = (
(277,112,o),
(370,188,o),
(393,284,cs),
(414,372,o),
(358,442,o),
(266,442,cs),
(169,442,o),
(76,366,o),
(53,270,cs),
(32,182,o),
(88,112,o),
(180,112,cs)
);
},
{
closed = 1;
nodes = (
(139,144,o),
(115,201,o),
(135,283,cs),
(153,361,o),
(199,410,o),
(254,410,cs),
(307,410,o),
(331,353,o),
(311,271,cs),
(293,193,o),
(247,144,o),
(192,144,cs)
);
},
{
closed = 1;
nodes = (
(354,403,l),
(354,417,l),
(437,417,o),
(531,492,o),
(468,544,c),
(390,544,l),
(390,535,l),
(431,499,o),
(400,449,o),
(325,430,c),
(325,403,l)
);
}
);
width = 437;
},
{
anchors = (
{
name = bottom;
pos = (253,-280);
},
{
name = top;
pos = (238,430);
}
);
associatedMasterId = m01;
layerId = "C847D58A-02FA-4425-9B47-BB67F611F1DF";
name = "15 Nov 22, 08:55";
shapes = (
{
closed = 1;
nodes = (
(392,-292,o),
(491,-225,o),
(491,-130,cs),
(491,-36,o),
(406,30,o),
(284,30,cs),
(218,30,ls),
(156,30,o),
(129,47,o),
(129,85,cs),
(129,107,o),
(141,126,o),
(164,143,c),
(141,159,l),
(92,131,o),
(64,90,o),
(64,45,cs),
(64,-18,o),
(98,-58,o),
(153,-58,cs),
(263,-58,ls),
(362,-58,o),
(417,-92,o),
(417,-152,cs),
(417,-216,o),
(362,-252,o),
(264,-252,cs),
(166,-252,o),
(104,-211,o),
(104,-146,cs),
(104,-109,o),
(120,-80,o),
(153,-58,c),
(165,-36,l),
(118,-43,l),
(118,-54,l),
(68,-73,o),
(37,-115,o),
(37,-163,cs),
(37,-246,o),
(114,-292,o),
(252,-292,cs)
);
},
{
closed = 1;
nodes = (
(341,122,o),
(423,197,o),
(423,292,cs),
(423,384,o),
(357,442,o),
(252,442,cs),
(148,442,o),
(66,367,o),
(66,271,cs),
(66,179,o),
(132,122,o),
(237,122,cs)
);
},
{
closed = 1;
nodes = (
(190,164,o),
(150,214,o),
(150,294,cs),
(150,362,o),
(181,400,o),
(236,400,cs),
(299,400,o),
(339,351,o),
(339,273,cs),
(339,203,o),
(308,164,o),
(253,164,cs)
);
},
{
closed = 1;
nodes = (
(359,419,l),
(467,462,l),
(472,477,l),
(403,552,l),
(331,425,l),
(359,409,l)
);
}
);
width = 506;
},
{
anchors = (
{
name = bottom;
pos = (238,-280);
},
{
name = top;
pos = (223,430);
}
);
associatedMasterId = m01;
layerId = "9ADF3129-AE2E-4183-ACCD-2646D0F3543C";
name = "17 Nov 22, 12:55";
shapes = (
{
closed = 1;
nodes = (
(377,-292,o),
(476,-225,o),
(476,-130,cs),
(476,-36,o),
(391,30,o),
(269,30,cs),
(203,30,ls),
(141,30,o),
(114,47,o),
(114,85,cs),
(114,107,o),
(126,126,o),
(149,143,c),
(126,159,l),
(77,131,o),
(49,90,o),
(49,45,cs),
(49,-18,o),
(83,-58,o),
(138,-58,cs),
(248,-58,ls),
(347,-58,o),
(402,-92,o),
(402,-152,cs),
(402,-216,o),
(347,-252,o),
(249,-252,cs),
(151,-252,o),
(89,-211,o),
(89,-146,cs),
(89,-109,o),
(105,-80,o),
(138,-58,c),
(150,-36,l),
(103,-43,l),
(103,-54,l),
(53,-73,o),
(22,-115,o),
(22,-163,cs),
(22,-246,o),
(99,-292,o),
(237,-292,cs)
);
},
{
closed = 1;
nodes = (
(324,122,o),
(404,197,o),
(404,292,cs),
(404,384,o),
(340,442,o),
(237,442,cs),
(135,442,o),
(55,367,o),
(55,272,cs),
(55,180,o),
(119,122,o),
(222,122,cs)
);
},
{
closed = 1;
nodes = (
(175,164,o),
(135,214,o),
(135,294,cs),
(135,362,o),
(166,400,o),
(221,400,cs),
(284,400,o),
(324,351,o),
(324,273,cs),
(324,203,o),
(293,164,o),
(238,164,cs)
);
},
{
closed = 1;
nodes = (
(344,417,l),
(459,471,l),
(464,486,l),
(388,552,l),
(316,425,l),
(344,409,l)
);
}
);
width = 491;
},
{
anchors = (
{
name = bottom;
pos = (228,-280);
},
{
name = top;
pos = (213,430);
}
);
associatedMasterId = m01;
layerId = "DF1B9152-19C1-45B7-8FA4-D1F62DC92406";
name = "17 Nov 22, 13:51";
shapes = (
{
closed = 1;
nodes = (
(342,-58,o),
(395,-92,o),
(395,-152,cs),
(395,-217,o),
(339,-254,o),
(239,-254,cs),
(147,-254,o),
(89,-211,o),
(89,-142,cs),
(89,-105,o),
(102,-77,o),
(135,-43,c),
(209,-36,l),
(102,-30,l),
(102,-39,l),
(49,-74,o),
(22,-112,o),
(22,-155,cs),
(22,-239,o),
(104,-292,o),
(234,-292,cs),
(364,-292,o),
(466,-221,o),
(466,-130,cs),
(466,-27,o),
(375,30,o),
(212,30,cs),
(134,30,o),
(104,45,o),
(104,85,cs),
(104,107,o),
(116,126,o),
(139,143,c),
(114,159,l),
(60,128,o),
(39,99,o),
(39,56,cs),
(39,-20,o),
(108,-58,o),
(248,-58,cs)
);
},
{
closed = 1;
nodes = (
(314,122,o),
(394,197,o),
(394,292,cs),
(394,384,o),
(330,442,o),
(227,442,cs),
(125,442,o),
(45,367,o),
(45,272,cs),
(45,180,o),
(109,122,o),
(212,122,cs)
);
},
{
closed = 1;
nodes = (
(165,164,o),
(125,214,o),
(125,294,cs),
(125,362,o),
(156,400,o),
(211,400,cs),
(274,400,o),
(314,351,o),
(314,273,cs),
(314,203,o),
(283,164,o),
(228,164,cs)
);
},
{
closed = 1;
nodes = (
(334,417,l),
(445,471,l),
(446,486,l),
(371,553,l),
(309,425,l),
(334,409,l)
);
}
);
width = 446;
},
{
anchors = (
{
name = bottom;
pos = (256,-280);
},
{
name = top;
pos = (241,430);
}
);
associatedMasterId = m01;
layerId = "14FEC683-A876-4146-87AE-A345FFDCD009";
name = "25 Nov 22, 11:23";
shapes = (
{
closed = 1;
nodes = (
(382,-292,o),
(484,-221,o),
(484,-130,cs),
(484,-25,o),
(413,24,o),
(251,31,cs),
(158,35,o),
(122,50,o),
(122,83,cs),
(122,102,o),
(130,118,o),
(151,142,c),
(126,158,l),
(76,119,o),
(57,89,o),
(57,52,cs),
(57,-21,o),
(109,-53,o),
(246,-62,cs),
(367,-71,o),
(413,-96,o),
(413,-152,cs),
(413,-215,o),
(363,-250,o),
(274,-250,cs),
(171,-250,o),
(107,-208,o),
(107,-142,cs),
(107,-104,o),
(121,-77,o),
(158,-43,c),
(227,-36,l),
(120,-33,l),
(120,-42,l),
(64,-79,o),
(40,-116,o),
(40,-163,cs),
(40,-242,o),
(122,-292,o),
(252,-292,cs)
);
},
{
closed = 1;
nodes = (
(343,114,o),
(424,191,o),
(424,288,cs),
(424,378,o),
(354,442,o),
(255,442,cs),
(152,442,o),
(71,365,o),
(71,268,cs),
(71,178,o),
(141,114,o),
(240,114,cs)
);
},
{
closed = 1;
nodes = (
(199,155,o),
(155,213,o),
(155,287,cs),
(155,363,o),
(183,401,o),
(239,401,cs),
(296,401,o),
(340,343,o),
(340,269,cs),
(340,193,o),
(312,155,o),
(256,155,cs)
);
},
{
closed = 1;
nodes = (
(362,414,l),
(473,465,l),
(474,480,l),
(380,556,l),
(375,555,l),
(331,422,l),
(362,402,l)
);
}
);
width = 484;
}
);
metricLeft = "=o";
metricRight = "=n";
unicode = 103;
},
{
color = 8;
glyphname = h;
lastChange = "2022-12-11 06:07:26 +0000";
layers = (
{
anchors = (
{
name = bottom;
pos = (344,0);
},
{
name = center;
pos = (198,539);
},
{
name = top;
pos = (352,740);
}
);
layerId = m01;
shapes = (
{
closed = 1;
nodes = (
(113,0,l),
(117,18,ls),
(161,217,o),
(253,374,o),
(327,374,cs),
(367,374,o),
(373,336,o),
(351,258,cs),
(305,94,ls),
(287,29,o),
(307,-12,o),
(358,-12,cs),
(420,-12,o),
(474,34,o),
(498,107,c),
(477,116,l),
(449,60,o),
(429,38,o),
(405,38,cs),
(380,38,o),
(377,59,o),
(391,108,cs),
(441,286,ls),
(469,386,o),
(446,442,o),
(377,442,cs),
(294,442,o),
(222,371,o),
(159,227,c),
(151,227,l),
(213,430,l),
(284,735,l),
(264,735,l),
(109,689,l),
(109,675,l),
(202,638,l),
(191,675,l),
(33,0,l)
);
}
);
width = 528;
},
{
anchors = (
{
name = bottom;
pos = (288,0);
},
{
name = center;
pos = (288,360);
},
{
name = top;
pos = (363,430);
}
);
associatedMasterId = m01;
layerId = "25B9F6E7-E432-4E7A-8224-52DAB751A29C";
name = "17 Nov 22, 12:38";
shapes = (
{
closed = 1;
nodes = (
(564,0,l),
(566,21,l),
(474,58,l),
(490,34,l),
(490,265,ls),
(490,379,o),
(438,442,o),
(345,442,cs),
(287,442,o),
(242,421,o),
(183,368,c),
(167,368,l),
(167,298,l),
(214,349,o),
(268,378,o),
(316,378,cs),
(375,378,o),
(404,335,o),
(404,248,cs),
(404,47,l),
(418,65,l),
(346,13,l),
(348,0,l)
);
},
{
closed = 1;
nodes = (
(251,0,l),
(253,21,l),
(167,58,l),
(183,37,l),
(183,368,l),
(177,368,l),
(181,411,o),
(183,478,o),
(183,530,cs),
(183,720,l),
(165,720,l),
(30,665,l),
(30,653,l),
(113,605,l),
(97,634,l),
(97,47,l),
(111,65,l),
(39,13,l),
(41,0,l)
);
}
);
width = 578;
},
{
anchors = (
{
name = bottom;
pos = (281,0);
},
{
name = center;
pos = (281,360);
},
{
name = top;
pos = (265,720);
}
);
associatedMasterId = m01;
layerId = "220BB4DB-039D-4D3E-B2CA-352AF2386139";
name = "25 Nov 22, 20:11";
shapes = (
{
closed = 1;
nodes = (
(557,0,l),
(559,21,l),
(467,58,l),
(483,34,l),
(483,273,ls),
(483,381,o),
(437,442,o),
(356,442,cs),
(292,442,o),
(238,416,o),
(176,355,c),
(162,355,l),
(162,290,l),
(198,343,o),
(257,380,o),
(306,380,cs),
(367,380,o),
(397,336,o),
(397,248,cs),
(397,47,l),
(411,65,l),
(339,13,l),
(341,0,l)
);
},
{
closed = 1;
nodes = (
(250,0,l),
(252,21,l),
(160,58,l),
(176,34,l),
(176,355,l),
(170,355,l),
(174,398,o),
(176,478,o),
(176,530,cs),
(176,720,l),
(158,720,l),
(23,665,l),
(23,653,l),
(106,595,l),
(90,624,l),
(90,47,l),
(104,65,l),
(32,13,l),
(34,0,l)
);
}
);
width = 563;
}
);
metricLeft = "=n-5";
metricRight = "=n";
unicode = 104;
},
{
color = 8;
glyphname = idotless;
lastChange = "2022-12-11 06:11:17 +0000";
layers = (
{
anchors = (
{
name = bottom;
pos = (132,0);
},
{
name = ogonek;
pos = (224,0);
},
{
name = top;
pos = (205,430);
}
);
guides = (
{
angle = 90;
pos = (102,416);
},
{
angle = 90;
pos = (188,416);
}
);
layerId = m01;
shapes = (
{
closed = 1;
nodes = (
(238,394,o),
(218,442,o),
(170,442,cs),
(108,442,o),
(54,396,o),
(30,323,c),
(51,313,l),
(79,370,o),
(99,392,o),
(123,392,cs),
(146,392,o),
(151,369,o),
(139,323,cs),
(79,94,ls),
(62,29,o),
(84,-12,o),
(137,-12,cs),
(199,-12,o),
(249,34,o),
(273,107,c),
(252,116,l),
(224,60,o),
(204,38,o),
(180,38,cs),
(156,38,o),
(150,61,o),
(162,108,cs),
(220,326,ls)
);
}
);
width = 303;
}
);
metricLeft = "=n";
metricRight = "=n";
unicode = 305;
},
{
color = 8;
glyphname = jdotless;
lastChange = "2022-12-11 06:11:53 +0000";
layers = (
{
anchors = (
{
name = bottom;
pos = (187,-265);
},
{
name = top;
pos = (205,430);
}
);
layerId = m01;
shapes = (
{
closed = 1;
nodes = (
(41,-250,o),
(102,-181,o),
(125,-82,cs),
(220,326,ls),
(236,395,o),
(218,442,o),
(170,442,cs),
(108,442,o),
(54,396,o),
(30,323,c),
(51,313,l),
(79,370,o),
(99,392,o),
(123,392,cs),
(145,392,o),
(149,367,o),
(139,323,cs),
(43,-88,ls),
(20,-186,o),
(-7,-233,o),
(-53,-259,c),
(-43,-277,l)
);
}
);
width = 229;
}
);
metricLeft = "=n";
metricRight = "=o";
unicode = 567;
},
{
color = 8;
glyphname = k;
lastChange = "2022-12-11 06:09:47 +0000";
layers = (
{
layerId = m01;
shapes = (
{
closed = 1;
nodes = (
(414,-12,o),
(451,24,o),
(478,107,c),
(457,116,l),
(428,58,o),
(409,38,o),
(380,38,cs),
(357,38,o),
(339,56,o),
(322,96,cs),
(271,217,l),
(194,197,l),
(239,88,ls),
(270,13,o),
(299,-12,o),
(355,-12,cs)
);
},
{
closed = 1;
nodes = (
(264,735,l),
(109,689,l),
(109,675,l),
(202,638,l),
(191,675,l),
(33,0,l),
(114,0,l),
(162,215,ls),
(185,315,o),
(251,385,o),
(323,385,cs),
(355,385,o),
(366,366,o),
(357,327,cs),
(341,262,o),
(259,213,o),
(143,202,c),
(143,180,l),
(295,193,o),
(418,261,o),
(440,346,cs),
(454,400,o),
(415,442,o),
(351,442,cs),
(295,442,o),
(223,393,o),
(188,330,c),
(183,330,l),
(223,474,l),
(284,735,l)
);
}
);
width = 508;
},
{
associatedMasterId = m01;
layerId = "1FA66F66-78AB-41B7-A419-DADC0E5DC766";
name = "25 Oct 22, 08:55";
shapes = (
{
closed = 1;
nodes = (
(247,0,l),
(249,21,l),
(169,58,l),
(185,34,l),
(185,720,l),
(167,720,l),
(32,665,l),
(32,653,l),
(115,605,l),
(99,634,l),
(99,47,l),
(113,65,l),
(41,13,l),
(43,0,l)
);
},
{
closed = 1;
nodes = (
(529,0,l),
(531,21,l),
(443,70,l),
(445,0,l)
);
},
{
closed = 1;
nodes = (
(515,0,l),
(263,270,l),
(209,225,l),
(389,0,l)
);
},
{
closed = 1;
nodes = (
(254,256,l),
(264,256,l),
(471,410,l),
(360,410,l),
(144,192,l),
(180,187,l)
);
},
{
closed = 1;
nodes = (
(502,407,l),
(500,430,l),
(295,430,l),
(292,415,l),
(341,370,l),
(394,362,l)
);
}
);
width = 536;
},
{
associatedMasterId = m01;
layerId = "0C7EDF39-BC9E-4EA2-9580-56E52D3DB013";
name = "26 Nov 22, 10:54";
shapes = (
{
closed = 1;
nodes = (
(253,0,l),
(255,21,l),
(175,58,l),
(191,34,l),
(191,720,l),
(173,720,l),
(38,665,l),
(38,653,l),
(121,595,l),
(105,624,l),
(105,47,l),
(119,65,l),
(47,13,l),
(49,0,l)
);
},
{
closed = 1;
nodes = (
(531,0,l),
(533,21,l),
(445,70,l),
(447,0,l)
);
},
{
closed = 1;
nodes = (
(517,0,l),
(268,275,l),
(208,224,l),
(391,0,l)
);
},
{
closed = 1;
nodes = (
(260,255,l),
(270,256,l),
(477,410,l),
(366,410,l),
(150,192,l),
(186,186,l)
);
},
{
closed = 1;
nodes = (
(508,407,l),
(506,430,l),
(301,430,l),
(298,415,l),
(347,370,l),
(400,362,l)
);
}
);
width = 535;
}
);
metricLeft = "=h";
metricRight = "=n";
unicode = 107;
},
{
color = 8;
glyphname = l;
lastChange = "2022-12-11 06:33:57 +0000";
layers = (
{
anchors = (
{
name = bottom;
pos = (95,0);
},
{
name = center;
pos = (159,360);
},
{
name = top;
pos = (155,720);
},
{
name = topright;
pos = (284,735);
}
);
layerId = m01;
shapes = (
{
closed = 1;
nodes = (
(55,94,ls),
(39,26,o),
(59,-12,o),
(108,-12,cs),
(170,-12,o),
(224,34,o),
(248,107,c),
(227,116,l),
(199,60,o),
(179,38,o),
(155,38,cs),
(131,38,o),
(125,57,o),
(137,108,cs),
(284,735,l),
(264,735,l),
(109,689,l),
(109,675,l),
(202,638,l),
(191,675,l)
);
}
);
width = 278;
}
);
metricLeft = "=h";
metricRight = "=n";
unicode = 108;
},
{
color = 8;
glyphname = m;
lastChange = "2022-12-11 06:15:34 +0000";
layers = (
{
background = {
shapes = (
{
closed = 1;
nodes = (
(567,0,l),
(567,20,l),
(469,68,l),
(491,26,l),
(491,273,ls),
(491,381,o),
(444,442,o),
(363,442,cs),
(299,442,o),
(245,416,o),
(183,355,c),
(169,355,l),
(169,296,l),
(209,347,o),
(260,376,o),
(313,376,cs),
(375,376,o),
(405,334,o),
(405,248,cs),
(405,28,l),
(426,78,l),
(347,13,l),
(347,0,l)
);
},
{
closed = 1;
nodes = (
(259,0,l),
(259,20,l),
(161,68,l),
(183,26,l),
(183,355,l),
(175,355,l),
(180,435,l),
(160,435,l),
(30,379,l),
(30,366,l),
(134,288,l),
(97,362,l),
(97,28,l),
(118,78,l),
(39,13,l),
(39,0,l)
);
}
);
};
layerId = m01;
shapes = (
{
closed = 1;
nodes = (
(417,227,l),
(437,288,ls),
(468,387,o),
(453,442,o),
(396,442,cs),
(321,442,o),
(253,371,o),
(191,227,c),
(183,227,l),
(214,323,ls),
(237,393,o),
(218,442,o),
(170,442,cs),
(108,442,o),
(54,396,o),
(30,323,c),
(51,313,l),
(79,370,o),
(99,392,o),
(123,392,cs),
(141,392,o),
(150,369,o),
(139,323,cs),
(65,0,l),
(145,0,l),
(149,18,ls),
(193,217,o),
(277,374,o),
(344,374,cs),
(378,374,o),
(388,336,o),
(366,258,cs),
(294,0,l),
(375,0,l),
(380,18,ls),
(443,246,o),
(515,374,o),
(580,374,cs),
(616,374,o),
(622,339,o),
(599,258,cs),
(553,94,ls),
(535,29,o),
(555,-12,o),
(606,-12,cs),
(668,-12,o),
(722,34,o),
(746,107,c),
(725,116,l),
(697,60,o),
(677,38,o),
(653,38,cs),
(628,38,o),
(625,59,o),
(639,108,cs),
(689,286,ls),
(717,386,o),
(696,442,o),
(630,442,cs),
(552,442,o),
(485,371,o),
(424,227,c)
);
}
);
width = 776;
},
{
associatedMasterId = m01;
layerId = "392B9AAA-2E38-4A82-A439-532BD2A7035A";
name = "20 Nov 22, 14:25";
shapes = (
{
closed = 1;
nodes = (
(824,0,l),
(826,21,l),
(734,58,l),
(750,34,l),
(750,265,ls),
(750,379,o),
(699,442,o),
(607,442,cs),
(547,442,o),
(507,424,o),
(447,368,c),
(434,368,l),
(440,298,l),
(490,354,o),
(530,378,o),
(570,378,cs),
(628,378,o),
(664,328,o),
(664,248,cs),
(664,47,l),
(678,65,l),
(606,13,l),
(608,0,l)
);
},
{
closed = 1;
nodes = (
(244,0,l),
(246,21,l),
(160,58,l),
(176,34,l),
(176,368,l),
(168,368,l),
(172,435,l),
(154,435,l),
(23,380,l),
(23,368,l),
(106,320,l),
(90,349,l),
(90,47,l),
(104,65,l),
(32,13,l),
(34,0,l)
);
},
{
closed = 1;
nodes = (
(526,0,l),
(528,21,l),
(447,58,l),
(463,34,l),
(463,265,ls),
(463,379,o),
(414,442,o),
(327,442,cs),
(277,442,o),
(239,424,o),
(176,368,c),
(160,368,l),
(160,298,l),
(210,354,o),
(250,378,o),
(290,378,cs),
(346,378,o),
(377,331,o),
(377,248,cs),
(377,47,l),
(391,65,l),
(324,13,l),
(326,0,l)
);
},
{
closed = 1;
nodes = (
(463,253,l),
(463,348,l),
(398,348,l),
(398,253,l)
);
}
);
width = 840;
},
{
associatedMasterId = m01;
layerId = "1DCF5F63-A80D-4CCF-9DBB-759E281B71A2";
name = "25 Nov 22, 20:12";
shapes = (
{
closed = 1;
nodes = (
(824,0,l),
(826,21,l),
(734,58,l),
(750,34,l),
(750,273,ls),
(750,391,o),
(710,442,o),
(618,442,cs),
(564,442,o),
(524,421,o),
(460,358,c),
(449,358,l),
(449,290,l),
(488,348,o),
(534,380,o),
(578,380,cs),
(633,380,o),
(664,333,o),
(664,248,cs),
(664,47,l),
(678,65,l),
(606,13,l),
(608,0,l)
);
},
{
closed = 1;
nodes = (
(250,0,l),
(252,21,l),
(160,58,l),
(176,34,l),
(176,358,l),
(168,358,l),
(172,435,l),
(154,435,l),
(23,380,l),
(23,368,l),
(106,310,l),
(90,339,l),
(90,47,l),
(104,65,l),
(32,13,l),
(34,0,l)
);
},
{
closed = 1;
nodes = (
(526,0,l),
(528,21,l),
(447,58,l),
(463,34,l),
(463,273,ls),
(463,391,o),
(423,442,o),
(331,442,cs),
(279,442,o),
(240,421,o),
(176,358,c),
(162,358,l),
(162,290,l),
(201,348,o),
(247,380,o),
(291,380,cs),
(346,380,o),
(377,333,o),
(377,248,cs),
(377,47,l),
(391,65,l),
(323,13,l),
(325,0,l)
);
},
{
closed = 1;
nodes = (
(463,253,l),
(463,348,l),
(398,348,l),
(398,253,l)
);
}
);
width = 840;
}
);
metricLeft = "=n";
metricRight = "=n";
unicode = 109;
},
{
color = 8;
glyphname = n;
lastChange = "2022-12-11 06:43:43 +0000";
layers = (
{
anchors = (
{
name = bottom;
pos = (227,0);
},
{
name = top;
pos = (339,430);
}
);
layerId = m01;
shapes = (
{
closed = 1;
nodes = (
(183,227,l),
(214,323,ls),
(237,393,o),
(218,442,o),
(170,442,cs),
(108,442,o),
(54,396,o),
(30,323,c),
(51,313,l),
(79,370,o),
(99,392,o),
(123,392,cs),
(141,392,o),
(150,369,o),
(139,323,cs),
(65,0,l),
(145,0,l),
(149,18,ls),
(193,217,o),
(285,374,o),
(359,374,cs),
(399,374,o),
(405,336,o),
(383,258,cs),
(337,94,ls),
(319,29,o),
(339,-12,o),
(390,-12,cs),
(452,-12,o),
(506,34,o),
(530,107,c),
(509,116,l),
(481,60,o),
(461,38,o),
(437,38,cs),
(412,38,o),
(409,59,o),
(423,108,cs),
(473,286,ls),
(501,386,o),
(478,442,o),
(409,442,cs),
(326,442,o),
(254,371,o),
(191,227,c)
);
}
);
width = 560;
},
{
anchors = (
{
name = bottom;
pos = (295,0);
},
{
name = top;
pos = (305,430);
}
);
associatedMasterId = m01;
layerId = "78952756-839D-411F-B23C-284E14BD57C2";
name = "15 Nov 22, 07:53";
shapes = (
{
closed = 1;
nodes = (
(571,0,l),
(573,21,l),
(481,58,l),
(497,34,l),
(497,265,ls),
(497,379,o),
(445,442,o),
(352,442,cs),
(294,442,o),
(249,421,o),
(190,368,c),
(174,368,l),
(174,298,l),
(221,349,o),
(275,378,o),
(323,378,cs),
(382,378,o),
(411,335,o),
(411,248,cs),
(411,47,l),
(425,65,l),
(353,13,l),
(355,0,l)
);
},
{
closed = 1;
nodes = (
(258,0,l),
(260,21,l),
(174,58,l),
(190,34,l),
(190,368,l),
(182,368,l),
(186,435,l),
(168,435,l),
(37,380,l),
(37,368,l),
(120,320,l),
(104,349,l),
(104,47,l),
(118,65,l),
(46,13,l),
(48,0,l)
);
}
);
width = 590;
},
{
anchors = (
{
name = bottom;
pos = (290,0);
},
{
name = top;
pos = (300,430);
}
);
associatedMasterId = m01;
background = {
shapes = (
{
closed = 1;
nodes = (
(568,0,l),
(570,21,l),
(478,58,l),
(494,34,l),
(494,265,ls),
(494,379,o),
(442,442,o),
(349,442,cs),
(291,442,o),
(246,421,o),
(187,368,c),
(171,368,l),
(171,298,l),
(218,349,o),
(272,378,o),
(320,378,cs),
(379,378,o),
(408,335,o),
(408,248,cs),
(408,47,l),
(422,65,l),
(350,13,l),
(352,0,l)
);
}
);
};
layerId = "F379C42C-8ED0-46F3-9C2A-9C275EC6497B";
name = "17 Nov 22, 10:06";
shapes = (
{
closed = 1;
nodes = (
(566,0,l),
(568,21,l),
(476,58,l),
(492,34,l),
(492,273,ls),
(492,381,o),
(446,442,o),
(365,442,cs),
(304,442,o),
(259,422,o),
(185,360,c),
(171,360,l),
(171,300,l),
(215,348,o),
(271,378,o),
(315,378,cs),
(376,378,o),
(406,335,o),
(406,248,cs),
(406,47,l),
(420,65,l),
(348,13,l),
(350,0,l)
);
},
{
closed = 1;
nodes = (
(259,0,l),
(261,21,l),
(169,58,l),
(185,34,l),
(185,360,l),
(177,360,l),
(181,435,l),
(163,435,l),
(32,380,l),
(32,368,l),
(115,320,l),
(99,349,l),
(99,47,l),
(113,65,l),
(41,13,l),
(43,0,l)
);
}
);
width = 584;
}
);
unicode = 110;
},
{
color = 8;
glyphname = eng;
lastChange = "2022-12-11 06:50:41 +0000";
layers = (
{
anchors = (
{
name = bottom;
pos = (288,0);
},
{
name = top;
pos = (326,430);
}
);
layerId = m01;
shapes = (
{
closed = 1;
nodes = (
(259,-186,o),
(237,-233,o),
(191,-259,c),
(201,-277,l),
(285,-250,o),
(341,-180,o),
(369,-82,cs),
(473,286,ls),
(501,386,o),
(478,442,o),
(409,442,cs),
(326,442,o),
(254,371,o),
(191,227,c),
(183,227,l),
(214,323,ls),
(237,393,o),
(218,442,o),
(170,442,cs),
(108,442,o),
(54,396,o),
(30,323,c),
(51,313,l),
(79,370,o),
(99,392,o),
(123,392,cs),
(141,392,o),
(150,369,o),
(139,323,cs),
(65,0,l),
(145,0,l),
(149,18,ls),
(193,217,o),
(285,374,o),
(359,374,cs),
(399,374,o),
(405,336,o),
(383,258,cs),
(286,-89,ls)
);
}
);
width = 492;
}
);
metricLeft = "=n";
metricRight = "=j";
unicode = 331;
},
{
color = 8;
glyphname = o;
lastChange = "2022-12-12 05:39:12 +0000";
layers = (
{
anchors = (
{
name = bottom;
pos = (156,0);
},
{
name = center;
pos = (231,215);
},
{
name = ogonek;
pos = (243,0);
},
{
name = top;
pos = (288,430);
},
{
name = topright;
pos = (506,430);
}
);
layerId = m01;
shapes = (
{
closed = 1;
nodes = (
(175,442,o),
(64,338,o),
(33,205,cs),
(2,72,o),
(57,-12,o),
(177,-12,cs),
(288,-12,o),
(399,92,o),
(430,225,cs),
(461,358,o),
(406,442,o),
(286,442,cs)
);
},
{
closed = 1;
nodes = (
(120,28,o),
(92,104,o),
(121,224,cs),
(149,343,o),
(198,402,o),
(269,402,cs),
(343,402,o),
(371,326,o),
(342,206,cs),
(314,87,o),
(265,28,o),
(194,28,cs)
);
}
);
width = 463;
},
{
anchors = (
{
name = bottom;
pos = (272,0);
},
{
name = center;
pos = (272,215);
},
{
name = ogonek;
pos = (341,0);
},
{
name = top;
pos = (272,430);
},
{
name = topright;
pos = (512,430);
}
);
associatedMasterId = m01;
layerId = "96B47452-55F6-4F85-81D9-9F8DCC2FE032";
name = "15 Nov 22, 21:58";
shapes = (
{
closed = 1;
nodes = (
(401,-12,o),
(500,88,o),
(500,230,cs),
(500,354,o),
(410,442,o),
(283,442,cs),
(143,442,o),
(44,342,o),
(44,200,cs),
(44,76,o),
(134,-12,o),
(261,-12,cs)
);
},
{
closed = 1;
nodes = (
(192,36,o),
(133,117,o),
(133,233,cs),
(133,336,o),
(181,394,o),
(267,394,cs),
(352,394,o),
(411,313,o),
(411,197,cs),
(411,94,o),
(363,36,o),
(277,36,cs)
);
}
);
width = 544;
}
);
metricRight = "=|";
unicode = 111;
},
{
color = 8;
glyphname = oe;
lastChange = "2022-12-11 07:04:50 +0000";
layers = (
{
layerId = m01;
shapes = (
{
closed = 1;
nodes = (
(572,-12,o),
(644,41,o),
(686,135,c),
(664,143,l),
(626,77,o),
(578,44,o),
(518,44,cs),
(434,44,o),
(402,109,o),
(430,224,cs),
(457,336,o),
(512,399,o),
(584,399,cs),
(617,399,o),
(630,373,o),
(618,327,cs),
(604,269,o),
(524,236,o),
(393,236,c),
(393,209,l),
(563,209,o),
(684,262,o),
(706,346,cs),
(720,400,o),
(674,442,o),
(602,442,cs),
(487,442,o),
(373,338,o),
(342,205,cs),
(314,83,o),
(377,-12,o),
(486,-12,cs)
);
},
{
closed = 1;
nodes = (
(175,442,o),
(64,338,o),
(33,205,cs),
(2,72,o),
(57,-12,o),
(177,-12,cs),
(288,-12,o),
(399,92,o),
(430,225,cs),
(461,358,o),
(406,442,o),
(286,442,cs)
);
},
{
closed = 1;
nodes = (
(120,28,o),
(92,104,o),
(121,224,cs),
(149,343,o),
(198,402,o),
(269,402,cs),
(343,402,o),
(371,326,o),
(342,206,cs),
(314,87,o),
(265,28,o),
(194,28,cs)
);
}
);
width = 739;
}
);
metricLeft = "=o";
metricRight = "=e";
unicode = 339;
},
{
color = 8;
glyphname = p;
lastChange = "2022-12-11 05:56:48 +0000";
layers = (
{
background = {
shapes = (
{
closed = 1;
nodes = (
(425,-12,o),
(529,96,o),
(529,234,cs),
(529,356,o),
(440,442,o),
(314,442,cs),
(181,442,o),
(77,334,o),
(77,196,cs),
(77,74,o),
(166,-12,o),
(292,-12,cs)
);
},
{
closed = 1;
nodes = (
(227,33,o),
(164,121,o),
(164,233,cs),
(164,343,o),
(208,397,o),
(298,397,cs),
(379,397,o),
(442,309,o),
(442,197,cs),
(442,87,o),
(398,33,o),
(308,33,cs)
);
}
);
};
layerId = m01;
shapes = (
{
closed = 1;
nodes = (
(188,227,l),
(214,323,l),
(236,393,o),
(218,442,o),
(170,442,cs),
(108,442,o),
(54,396,o),
(30,323,c),
(51,313,l),
(79,370,o),
(99,392,o),
(123,392,cs),
(141,392,o),
(150,369,o),
(139,323,cs),
(4,-265,l),
(84,-265,l),
(149,18,ls),
(195,220,o),
(291,378,o),
(368,378,cs),
(416,378,o),
(427,321,o),
(402,207,cs),
(376,90,o),
(320,25,o),
(245,25,cs),
(181,25,o),
(149,66,o),
(130,174,c),
(84,63,l),
(125,15,o),
(174,-12,o),
(222,-12,cs),
(342,-12,o),
(461,99,o),
(492,240,cs),
(520,364,o),
(487,442,o),
(407,442,cs),
(337,442,o),
(249,353,o),
(195,227,c)
);
},
{
closed = 1;
nodes = (
(185,-265,l),
(192,-244,l),
(85,-220,l),
(31,-213,l),
(-47,-252,l),
(-50,-265,l)
);
}
);
width = 521;
},
{
associatedMasterId = m01;
layerId = "78ACDEB3-AB82-4D9F-AFDC-8F6096E09489";
name = "22 Oct 22, 10:48";
shapes = (
{
closed = 1;
nodes = (
(273,-280,l),
(275,-259,l),
(169,-222,l),
(185,-246,l),
(185,-137,ls),
(185,-52,o),
(184,-13,o),
(182,21,c),
(185,21,l),
(185,368,l),
(177,368,l),
(181,435,l),
(163,435,l),
(32,380,l),
(32,368,l),
(115,320,l),
(99,349,l),
(99,-233,l),
(113,-215,l),
(41,-267,l),
(43,-280,l)
);
},
{
closed = 1;
nodes = (
(434,-12,o),
(540,94,o),
(540,228,cs),
(540,359,o),
(460,442,o),
(333,442,cs),
(281,442,o),
(232,419,o),
(183,372,c),
(171,372,l),
(171,309,l),
(219,362,o),
(258,383,o),
(311,383,cs),
(401,383,o),
(451,319,o),
(451,205,cs),
(451,102,o),
(394,38,o),
(303,38,cs),
(257,38,o),
(221,53,o),
(185,88,c),
(167,97,l),
(141,58,l),
(186,11,o),
(239,-12,o),
(300,-12,cs)
);
}
);
width = 540;
},
{
associatedMasterId = m01;
layerId = "F363D5C6-6289-41BE-9EED-A0E7ECBCCE37";
name = "25 Oct 22, 08:32";
shapes = (
{
closed = 1;
nodes = (
(273,-280,l),
(275,-259,l),
(169,-222,l),
(185,-246,l),
(185,-137,ls),
(185,-52,o),
(184,-23,o),
(182,11,c),
(185,11,l),
(185,368,l),
(177,368,l),
(181,435,l),
(163,435,l),
(32,380,l),
(32,368,l),
(115,320,l),
(99,349,l),
(99,-233,l),
(113,-215,l),
(41,-267,l),
(43,-280,l)
);
},
{
closed = 1;
nodes = (
(434,-12,o),
(540,94,o),
(540,228,cs),
(540,359,o),
(460,442,o),
(333,442,cs),
(279,442,o),
(234,422,o),
(185,375,c),
(172,375,l),
(172,303,l),
(220,356,o),
(266,383,o),
(311,383,cs),
(401,383,o),
(451,319,o),
(451,205,cs),
(451,97,o),
(398,36,o),
(303,36,cs),
(258,36,o),
(225,48,o),
(185,78,c),
(167,97,l),
(142,39,l),
(184,4,o),
(232,-12,o),
(300,-12,cs)
);
}
);
width = 572;
},
{
associatedMasterId = m01;
layerId = "702CA5DD-4161-4BD8-824D-789FBF134CF7";
name = "25 Oct 22, 08:47";
shapes = (
{
closed = 1;
nodes = (
(273,-280,l),
(275,-259,l),
(169,-222,l),
(185,-246,l),
(185,-137,ls),
(185,-52,o),
(184,-23,o),
(182,11,c),
(185,11,l),
(185,368,l),
(177,368,l),
(181,435,l),
(163,435,l),
(32,380,l),
(32,368,l),
(115,320,l),
(99,349,l),
(99,-233,l),
(113,-215,l),
(41,-267,l),
(43,-280,l)
);
},
{
closed = 1;
nodes = (
(422,-12,o),
(520,94,o),
(520,228,cs),
(520,359,o),
(447,442,o),
(331,442,cs),
(276,442,o),
(235,423,o),
(185,375,c),
(172,375,l),
(172,303,l),
(224,361,o),
(262,383,o),
(309,383,cs),
(387,383,o),
(431,319,o),
(431,205,cs),
(431,98,o),
(383,38,o),
(298,38,cs),
(258,38,o),
(230,46,o),
(185,72,c),
(167,97,l),
(142,39,l),
(189,2,o),
(233,-12,o),
(298,-12,cs)
);
}
);
width = 552;
},
{
associatedMasterId = m01;
layerId = "221A8906-BBD9-4418-B048-336271AB4F22";
name = "29 Oct 22, 13:54";
shapes = (
{
closed = 1;
nodes = (
(273,-280,l),
(275,-259,l),
(169,-222,l),
(185,-246,l),
(185,-137,ls),
(185,-52,o),
(184,-23,o),
(182,11,c),
(185,11,l),
(185,368,l),
(177,368,l),
(181,435,l),
(163,435,l),
(32,380,l),
(32,368,l),
(115,320,l),
(99,349,l),
(99,-233,l),
(113,-215,l),
(41,-267,l),
(43,-280,l)
);
},
{
closed = 1;
nodes = (
(422,-12,o),
(520,94,o),
(520,228,cs),
(520,354,o),
(439,442,o),
(323,442,cs),
(269,442,o),
(230,423,o),
(185,375,c),
(172,375,l),
(172,303,l),
(222,363,o),
(255,383,o),
(301,383,cs),
(384,383,o),
(431,319,o),
(431,205,cs),
(431,98,o),
(383,38,o),
(298,38,cs),
(258,38,o),
(230,46,o),
(185,72,c),
(167,97,l),
(142,39,l),
(189,2,o),
(233,-12,o),
(298,-12,cs)
);
}
);
width = 552;
},
{
associatedMasterId = m01;
layerId = "5DF781E9-A3EA-4466-A17B-9D170794458B";
name = "29 Oct 22, 14:07";
shapes = (
{
closed = 1;
nodes = (
(273,-280,l),
(275,-259,l),
(169,-222,l),
(185,-246,l),
(185,-137,ls),
(185,-83,o),
(184,-18,o),
(182,11,c),
(185,11,l),
(185,380,l),
(177,380,l),
(181,435,l),
(163,435,l),
(32,380,l),
(32,368,l),
(115,320,l),
(99,349,l),
(99,-233,l),
(113,-215,l),
(41,-267,l),
(43,-280,l)
);
},
{
closed = 1;
nodes = (
(422,-12,o),
(520,94,o),
(520,228,cs),
(520,354,o),
(441,442,o),
(328,442,cs),
(273,442,o),
(238,427,o),
(185,380,c),
(172,380,l),
(172,317,l),
(222,367,o),
(255,383,o),
(306,383,cs),
(386,383,o),
(431,319,o),
(431,205,cs),
(431,98,o),
(383,38,o),
(298,38,cs),
(258,38,o),
(230,46,o),
(185,72,c),
(167,97,l),
(142,39,l),
(189,2,o),
(233,-12,o),
(298,-12,cs)
);
}
);
width = 552;
},
{
associatedMasterId = m01;
layerId = "4B3EF0D4-9A57-43FB-80E3-6524846970FB";
name = "15 Nov 22, 07:58";
shapes = (
{
closed = 1;
nodes = (
(278,-280,l),
(280,-259,l),
(174,-222,l),
(190,-246,l),
(190,-137,ls),
(190,-81,o),
(189,-17,o),
(187,8,c),
(190,8,l),
(190,380,l),
(182,380,l),
(186,435,l),
(168,435,l),
(37,380,l),
(37,368,l),
(120,320,l),
(104,349,l),
(104,-233,l),
(118,-215,l),
(46,-267,l),
(48,-280,l)
);
},
{
closed = 1;
nodes = (
(420,-12,o),
(525,94,o),
(525,228,cs),
(525,354,o),
(446,442,o),
(333,442,cs),
(278,442,o),
(243,427,o),
(190,380,c),
(177,380,l),
(177,319,l),
(223,363,o),
(260,380,o),
(311,380,cs),
(388,380,o),
(436,313,o),
(436,205,cs),
(436,97,o),
(382,36,o),
(286,36,cs),
(251,36,o),
(224,45,o),
(190,68,c),
(172,97,l),
(147,33,l),
(197,-1,o),
(232,-12,o),
(286,-12,cs)
);
}
);
width = 562;
},
{
associatedMasterId = m01;
layerId = "817ACD89-5DB7-4C90-8CC6-3EDE4EC57B2D";
name = "15 Nov 22, 09:33";
shapes = (
{
closed = 1;
nodes = (
(278,-280,l),
(280,-259,l),
(174,-222,l),
(190,-246,l),
(190,-137,ls),
(190,-81,o),
(189,-17,o),
(187,8,c),
(190,8,l),
(190,380,l),
(182,380,l),
(186,435,l),
(168,435,l),
(37,380,l),
(37,368,l),
(120,320,l),
(104,349,l),
(104,-233,l),
(118,-215,l),
(46,-267,l),
(48,-280,l)
);
},
{
closed = 1;
nodes = (
(420,-12,o),
(525,94,o),
(525,228,cs),
(525,359,o),
(451,442,o),
(333,442,cs),
(278,442,o),
(243,427,o),
(190,380,c),
(177,380,l),
(177,319,l),
(223,363,o),
(260,380,o),
(311,380,cs),
(388,380,o),
(436,313,o),
(436,205,cs),
(436,97,o),
(382,36,o),
(286,36,cs),
(251,36,o),
(224,45,o),
(190,68,c),
(172,97,l),
(147,33,l),
(197,-1,o),
(232,-12,o),
(286,-12,cs)
);
}
);
width = 562;
},
{
associatedMasterId = m01;
layerId = "48014473-0572-42E6-A0C1-68C5EE95AF9B";
name = "23 Nov 22, 18:00";
shapes = (
{
closed = 1;
nodes = (
(419,-12,o),
(516,88,o),
(516,231,cs),
(516,361,o),
(444,442,o),
(329,442,cs),
(276,442,o),
(221,413,o),
(176,362,c),
(163,362,l),
(163,301,l),
(202,353,o),
(249,382,o),
(294,382,cs),
(377,382,o),
(429,314,o),
(429,205,cs),
(429,85,o),
(385,32,o),
(286,32,cs),
(241,32,o),
(202,48,o),
(176,77,c),
(158,103,l),
(133,28,l),
(174,0,o),
(220,-12,o),
(282,-12,cs)
);
},
{
closed = 1;
nodes = (
(264,-280,l),
(266,-259,l),
(160,-222,l),
(176,-246,l),
(176,-137,ls),
(176,-61,o),
(175,-22,o),
(173,5,c),
(176,5,l),
(176,362,l),
(168,362,l),
(172,435,l),
(154,435,l),
(23,380,l),
(23,368,l),
(106,310,l),
(90,339,l),
(90,-233,l),
(104,-215,l),
(32,-267,l),
(34,-280,l)
);
}
);
width = 556;
},
{
associatedMasterId = m01;
layerId = "F88CEEC5-DB41-43AE-840B-98AC93ADE395";
name = "24 Nov 22, 15:39";
shapes = (
{
closed = 1;
nodes = (
(426,-12,o),
(524,88,o),
(524,231,cs),
(524,355,o),
(455,442,o),
(356,442,cs),
(296,442,o),
(233,413,o),
(181,362,c),
(168,362,l),
(168,305,l),
(210,356,o),
(256,382,o),
(306,382,cs),
(390,382,o),
(437,319,o),
(437,205,cs),
(437,90,o),
(391,33,o),
(298,33,cs),
(248,33,o),
(206,49,o),
(181,77,c),
(163,103,l),
(138,28,l),
(179,0,o),
(224,-12,o),
(287,-12,cs)
);
},
{
closed = 1;
nodes = (
(269,-280,l),
(271,-259,l),
(159,-214,l),
(181,-254,l),
(181,-137,ls),
(181,-61,o),
(180,-25,o),
(178,5,c),
(181,5,l),
(181,362,l),
(173,362,l),
(178,435,l),
(159,435,l),
(28,380,l),
(28,366,l),
(111,304,l),
(95,333,l),
(95,-252,l),
(116,-202,l),
(37,-267,l),
(38,-280,l)
);
}
);
width = 564;
},
{
associatedMasterId = m01;
background = {
shapes = (
{
closed = 1;
nodes = (
(423,-12,o),
(527,96,o),
(527,234,cs),
(527,356,o),
(438,442,o),
(312,442,cs),
(179,442,o),
(75,334,o),
(75,196,cs),
(75,74,o),
(164,-12,o),
(290,-12,cs)
);
},
{
closed = 1;
nodes = (
(225,33,o),
(162,121,o),
(162,233,cs),
(162,343,o),
(206,397,o),
(296,397,cs),
(377,397,o),
(440,309,o),
(440,197,cs),
(440,87,o),
(396,33,o),
(306,33,cs)
);
}
);
};
layerId = "06EDDF29-CA04-4430-91A1-1433E41794E8";
name = "25 Nov 22, 10:52";
shapes = (
{
closed = 1;
nodes = (
(273,-280,l),
(273,-260,l),
(159,-212,l),
(181,-254,l),
(181,-137,l),
(177,5,l),
(181,5,l),
(181,362,l),
(173,362,l),
(178,435,l),
(158,435,l),
(28,379,l),
(28,366,l),
(132,288,l),
(95,362,l),
(95,-252,l),
(116,-202,l),
(37,-267,l),
(37,-280,l)
);
},
{
closed = 1;
nodes = (
(429,-12,o),
(524,89,o),
(524,249,cs),
(524,362,o),
(455,442,o),
(357,442,cs),
(298,442,o),
(235,413,o),
(181,362,c),
(168,362,l),
(168,307,l),
(213,359,o),
(258,382,o),
(315,382,cs),
(393,382,o),
(437,317,o),
(437,200,cs),
(437,92,o),
(386,32,o),
(296,32,cs),
(250,32,o),
(212,44,o),
(181,68,c),
(163,103,l),
(138,28,l),
(175,2,o),
(225,-12,o),
(278,-12,cs)
);
}
);
width = 564;
}
);
metricLeft = "=n";
metricRight = "=o";
unicode = 112;
},
{
color = 8;
glyphname = thorn;
lastChange = "2022-12-11 06:55:15 +0000";
layers = (
{
layerId = m01;
shapes = (
{
closed = 1;
nodes = (
(155,-265,l),
(162,-244,l),
(55,-220,l),
(1,-213,l),
(-77,-252,l),
(-80,-265,l)
);
},
{
closed = 1;
nodes = (
(284,735,l),
(264,735,l),
(109,689,l),
(109,675,l),
(202,638,l),
(191,675,l),
(-26,-265,l),
(54,-265,l),
(119,18,ls),
(165,220,o),
(261,378,o),
(338,378,cs),
(386,378,o),
(397,321,o),
(372,207,cs),
(346,90,o),
(290,25,o),
(215,25,cs),
(151,25,o),
(119,66,o),
(100,174,c),
(54,63,l),
(95,15,o),
(144,-12,o),
(192,-12,cs),
(312,-12,o),
(431,99,o),
(462,240,cs),
(490,364,o),
(457,442,o),
(377,442,cs),
(307,442,o),
(219,353,o),
(165,227,c),
(158,227,l),
(198,368,l)
);
}
);
width = 491;
}
);
metricLeft = "=h";
metricRight = "=o";
unicode = 254;
},
{
color = 8;
glyphname = q;
lastChange = "2022-12-11 07:01:16 +0000";
layers = (
{
layerId = m01;
shapes = (
{
closed = 1;
nodes = (
(361,-265,l),
(368,-244,l),
(292,-217,l),
(303,-229,l),
(459,442,l),
(440,442,l),
(392,407,l),
(372,410,l),
(325,208,o),
(230,52,o),
(153,52,cs),
(105,52,o),
(94,109,o),
(119,223,cs),
(145,340,o),
(201,405,o),
(276,405,cs),
(340,405,o),
(372,364,o),
(391,256,c),
(437,367,l),
(396,415,o),
(347,442,o),
(299,442,cs),
(179,442,o),
(60,331,o),
(29,190,cs),
(1,66,o),
(34,-12,o),
(114,-12,cs),
(183,-12,o),
(272,81,o),
(326,203,c),
(334,203,l),
(276,0,l),
(221,-238,l),
(244,-212,l),
(129,-252,l),
(128,-265,l)
);
}
);
width = 479;
},
{
associatedMasterId = m01;
layerId = "4C2691E7-C658-4646-8C09-39314CFD3E4D";
name = "22 Oct 22, 10:50";
shapes = (
{
closed = 1;
nodes = (
(291,-12,o),
(338,8,o),
(387,55,c),
(401,55,l),
(401,118,l),
(354,67,o),
(315,47,o),
(261,47,cs),
(171,47,o),
(121,111,o),
(121,225,cs),
(121,328,o),
(178,392,o),
(269,392,cs),
(314,392,o),
(347,377,o),
(387,338,c),
(405,333,l),
(430,357,l),
(384,416,o),
(336,442,o),
(272,442,cs),
(138,442,o),
(32,336,o),
(32,202,cs),
(32,71,o),
(112,-12,o),
(239,-12,cs)
);
},
{
closed = 1;
nodes = (
(529,-280,l),
(531,-259,l),
(455,-219,l),
(471,-243,l),
(471,433,l),
(447,437,l),
(404,382,l),
(387,371,l),
(387,55,l),
(390,55,l),
(387,22,o),
(385,-42,o),
(385,-100,cs),
(385,-233,l),
(399,-215,l),
(296,-267,l),
(298,-280,l)
);
}
);
width = 527;
},
{
associatedMasterId = m01;
layerId = "27CC6EC9-6ED0-4700-8FFE-584A4BDACB9A";
name = "25 Oct 22, 08:40";
shapes = (
{
closed = 1;
nodes = (
(293,-12,o),
(338,8,o),
(387,55,c),
(400,55,l),
(400,127,l),
(352,74,o),
(306,47,o),
(261,47,cs),
(171,47,o),
(121,111,o),
(121,225,cs),
(121,333,o),
(174,394,o),
(269,394,cs),
(314,394,o),
(347,382,o),
(387,352,c),
(405,333,l),
(430,391,l),
(388,426,o),
(340,442,o),
(272,442,cs),
(138,442,o),
(32,336,o),
(32,202,cs),
(32,71,o),
(112,-12,o),
(239,-12,cs)
);
},
{
closed = 1;
nodes = (
(529,-280,l),
(531,-259,l),
(455,-219,l),
(471,-243,l),
(471,433,l),
(447,437,l),
(404,382,l),
(387,371,l),
(387,55,l),
(390,55,l),
(387,22,o),
(385,-42,o),
(385,-100,cs),
(385,-233,l),
(399,-215,l),
(296,-267,l),
(298,-280,l)
);
}
);
width = 527;
}
);
metricLeft = "=o";
metricRight = "=l";
unicode = 113;
},
{
color = 8;
glyphname = r;
lastChange = "2022-12-11 06:43:12 +0000";
layers = (
{
anchors = (
{
name = bottom;
pos = (143,0);
},
{
name = top;
pos = (319,430);
}
);
layerId = m01;
shapes = (
{
closed = 1;
nodes = (
(182,227,l),
(214,323,ls),
(237,392,o),
(218,442,o),
(170,442,cs),
(108,442,o),
(54,396,o),
(30,323,c),
(51,313,l),
(79,370,o),
(99,392,o),
(123,392,cs),
(141,392,o),
(150,369,o),
(139,323,cs),
(65,0,l),
(145,0,l),
(155,44,ls),
(200,242,o),
(282,375,o),
(348,352,c),
(305,381,l),
(378,312,l),
(389,312,l),
(448,433,l),
(434,439,o),
(422,442,o),
(409,442,cs),
(323,442,o),
(250,371,o),
(187,227,c)
);
}
);
width = 433;
},
{
associatedMasterId = m01;
layerId = "E3AD0F2A-2CFD-4B40-9B57-A8120128D61D";
name = "10 Nov 22, 21:23";
shapes = (
{
closed = 1;
nodes = (
(278,0,l),
(280,21,l),
(174,58,l),
(190,34,l),
(190,339,l),
(182,339,l),
(186,435,l),
(168,435,l),
(37,380,l),
(37,368,l),
(120,320,l),
(104,349,l),
(104,47,l),
(118,65,l),
(46,13,l),
(48,0,l)
);
},
{
closed = 1;
nodes = (
(217,333,o),
(263,354,o),
(336,346,c),
(346,439,l),
(339,441,o),
(331,442,o),
(322,442,cs),
(269,442,o),
(222,405,o),
(190,339,c),
(174,339,l),
(186,276,l)
);
}
);
width = 366;
},
{
associatedMasterId = m01;
layerId = "889647CE-5C36-4D79-BD7F-6BE2E2124A1D";
name = "25 Nov 22, 09:01";
shapes = (
{
closed = 1;
nodes = (
(264,0,l),
(266,21,l),
(160,58,l),
(176,34,l),
(176,339,l),
(168,339,l),
(172,435,l),
(154,435,l),
(23,380,l),
(23,368,l),
(106,310,l),
(90,339,l),
(90,47,l),
(104,65,l),
(32,13,l),
(34,0,l)
);
},
{
closed = 1;
nodes = (
(198,328,o),
(228,349,o),
(257,354,c),
(308,302,l),
(323,304,l),
(371,422,l),
(350,436,o),
(330,442,o),
(304,442,cs),
(261,442,o),
(209,401,o),
(177,343,c),
(163,343,l),
(175,296,l)
);
}
);
width = 391;
}
);
metricLeft = "=n";
metricRight = "=o";
unicode = 114;
},
{
color = 8;
glyphname = s;
lastChange = "2022-12-11 06:15:00 +0000";
layers = (
{
anchors = (
{
name = bottom;
pos = (118,0);
},
{
name = top;
pos = (232,430);
}
);
layerId = m01;
shapes = (
{
closed = 1;
nodes = (
(187,-12,o),
(253,38,o),
(266,101,c),
(302,256,o),
(122,252,o),
(145,354,cs),
(153,389,o),
(175,409,o),
(206,409,c),
(285,342,l),
(296,342,l),
(331,419,l),
(291,436,o),
(263,442,o),
(232,442,cs),
(160,442,o),
(93,396,o),
(80,337,c),
(50,197,o),
(224,207,o),
(198,93,cs),
(185,44,o),
(161,22,o),
(118,22,c),
(38,103,l),
(27,103,l),
(-7,33,l),
(19,4,o),
(63,-12,o),
(116,-12,cs)
);
}
);
width = 327;
},
{
anchors = (
{
name = bottom;
pos = (202,0);
},
{
name = top;
pos = (202,430);
}
);
associatedMasterId = m01;
layerId = "68D77137-C094-43C9-8D74-B92FC87AF0FA";
name = "1 Nov 22, 09:23";
shapes = (
{
closed = 1;
nodes = (
(302,-12,o),
(371,43,o),
(371,121,c),
(371,185,o),
(327,228,o),
(227,260,cs),
(140,289,o),
(111,310,o),
(111,342,cs),
(111,372,o),
(142,391,o),
(192,391,cs),
(236,391,o),
(267,382,o),
(294,360,c),
(305,297,l),
(340,300,l),
(368,387,l),
(321,424,o),
(269,442,o),
(210,442,cs),
(111,442,o),
(42,392,o),
(42,321,c),
(42,254,o),
(76,217,o),
(164,188,cs),
(266,155,o),
(300,132,o),
(300,99,cs),
(300,58,o),
(275,40,o),
(217,40,cs),
(162,40,o),
(123,51,o),
(100,73,c),
(84,142,l),
(50,149,l),
(32,43,l),
(72,5,o),
(125,-12,o),
(204,-12,cs)
);
}
);
width = 403;
},
{
anchors = (
{
name = bottom;
pos = (204,0);
},
{
name = top;
pos = (204,430);
}
);
associatedMasterId = m01;
layerId = "D0363E03-A3AB-4349-8346-32B9B8078158";
name = "15 Nov 22, 08:25";
shapes = (
{
closed = 1;
nodes = (
(305,-12,o),
(373,43,o),
(373,121,c),
(373,183,o),
(325,229,o),
(229,260,cs),
(150,287,o),
(123,307,o),
(123,342,cs),
(123,373,o),
(150,393,o),
(194,393,cs),
(223,393,o),
(247,388,o),
(265,377,c),
(306,297,l),
(317,298,l),
(357,387,l),
(308,425,o),
(264,442,o),
(212,442,cs),
(121,442,o),
(57,392,o),
(57,321,c),
(57,253,o),
(90,213,o),
(166,188,cs),
(264,156,o),
(302,130,o),
(302,93,cs),
(302,58,o),
(273,38,o),
(221,38,cs),
(167,38,o),
(134,49,o),
(105,75,c),
(89,148,l),
(55,155,l),
(37,49,l),
(81,8,o),
(137,-12,o),
(208,-12,cs)
);
}
);
width = 410;
},
{
anchors = (
{
name = bottom;
pos = (204,0);
},
{
name = top;
pos = (204,430);
}
);
associatedMasterId = m01;
layerId = "352DEE22-C134-4F65-9542-127DC0C7D805";
name = "17 Nov 22, 13:31";
shapes = (
{
closed = 1;
nodes = (
(299,-12,o),
(370,45,o),
(370,117,c),
(370,179,o),
(325,223,o),
(223,262,cs),
(148,290,o),
(123,311,o),
(123,344,cs),
(123,375,o),
(151,396,o),
(191,396,cs),
(220,396,o),
(245,389,o),
(272,374,c),
(300,299,l),
(316,300,l),
(352,396,l),
(311,428,o),
(268,442,o),
(212,442,cs),
(121,442,o),
(57,390,o),
(57,319,c),
(56,251,o),
(92,215,o),
(199,175,cs),
(271,148,o),
(299,124,o),
(299,88,cs),
(299,56,o),
(269,36,o),
(221,36,cs),
(178,36,o),
(149,44,o),
(117,64,c),
(88,149,l),
(72,150,l),
(44,44,l),
(84,7,o),
(139,-12,o),
(208,-12,cs)
);
}
);
width = 414;
}
);
metricLeft = "=o";
metricRight = "=o";
unicode = 115;
},
{
color = 8;
glyphname = germandbls;
lastChange = "2022-12-11 09:22:35 +0000";
layers = (
{
background = {
shapes = (
{
pos = (-49,0);
ref = o;
}
);
};
layerId = m01;
shapes = (
{
closed = 1;
nodes = (
(245,651,o),
(297,703,o),
(360,703,cs),
(428,703,o),
(461,643,o),
(442,558,cs),
(424,479,o),
(379,430,o),
(325,430,cs),
(311,430,l),
(301,422,l),
(288,364,l),
(304,364,l),
(395,364,o),
(441,285,o),
(415,172,cs),
(394,78,o),
(336,19,o),
(265,19,cs),
(182,19,l),
(282,0,l),
(211,94,l),
(198,94,l),
(150,24,l),
(191,-5,o),
(217,-16,o),
(265,-16,cs),
(373,-16,o),
(470,70,o),
(498,193,cs),
(526,315,o),
(453,410,o),
(333,410,c),
(331,402,l),
(415,402,o),
(498,476,o),
(520,571,cs),
(542,670,o),
(481,747,o),
(381,747,cs),
(266,747,o),
(163,644,o),
(129,497,cs),
(-8,-88,ls),
(-31,-186,o),
(-58,-233,o),
(-104,-259,c),
(-94,-277,l),
(-10,-250,o),
(48,-188,o),
(71,-89,cs),
(226,569,ls)
);
}
);
width = 538;
},
{
associatedMasterId = m01;
layerId = "B0FB3A10-EF20-4A25-A0C2-0653A9161EC1";
name = "30 Oct 22, 15:04";
shapes = (
{
closed = 1;
nodes = (
(116,380,l),
(116,457,l),
(36,392,l),
(38,380,l)
);
},
{
closed = 1;
nodes = (
(463,-12,o),
(522,43,o),
(522,121,c),
(522,185,o),
(484,181,o),
(404,253,cs),
(335,315,o),
(343,331,o),
(343,363,cs),
(343,393,o),
(470,490,o),
(470,549,cs),
(470,666,o),
(406,732,o),
(302,732,cs),
(191,732,o),
(116,644,o),
(116,503,cs),
(116,47,l),
(130,65,l),
(58,13,l),
(60,0,l),
(202,0,l),
(202,570,ls),
(202,645,o),
(235,678,o),
(296,678,cs),
(352,678,o),
(398,639,o),
(398,570,cs),
(398,471,o),
(271,413,o),
(271,342,c),
(271,279,o),
(292,236,o),
(345,188,cs),
(427,115,o),
(451,132,o),
(451,99,cs),
(451,58,o),
(436,40,o),
(378,40,cs),
(323,40,o),
(344,51,o),
(321,73,c),
(306,118,l),
(272,125,l),
(253,43,l),
(293,5,o),
(286,-12,o),
(365,-12,cs)
);
}
);
width = 554;
},
{
associatedMasterId = m01;
layerId = "8846F8E6-1E45-4ABC-9E10-D54C4AC8F36B";
name = "30 Oct 22, 15:20";
shapes = (
{
closed = 1;
nodes = (
(469,-12,o),
(548,66,o),
(548,166,cs),
(548,256,o),
(475,343,o),
(370,375,c),
(426,393,o),
(470,473,o),
(470,556,cs),
(470,659,o),
(401,732,o),
(302,732,cs),
(191,732,o),
(116,644,o),
(116,503,cs),
(116,47,l),
(130,65,l),
(58,13,l),
(60,0,l),
(202,0,l),
(202,570,ls),
(202,645,o),
(235,678,o),
(296,678,cs),
(359,678,o),
(398,631,o),
(398,556,cs),
(398,447,o),
(371,400,o),
(299,387,c),
(283,350,l),
(387,329,o),
(460,254,o),
(460,168,cs),
(460,83,o),
(427,36,o),
(369,36,cs),
(325,36,o),
(294,63,o),
(289,105,cs),
(283,154,l),
(257,160,l),
(235,61,l),
(262,14,o),
(310,-12,o),
(369,-12,cs)
);
},
{
closed = 1;
nodes = (
(116,380,l),
(116,457,l),
(36,392,l),
(38,380,l)
);
}
);
width = 580;
},
{
associatedMasterId = m01;
background = {
shapes = (
{
closed = 0;
nodes = (
(188,569,ls),
(188,659,o),
(224,703,o),
(297,703,cs),
(350,703,l),
(283,725,l),
(378,601,l),
(391,601,l),
(446,699,l),
(446,705,l),
(402,734,o),
(360,747,o),
(308,747,cs),
(187,747,o),
(102,644,o),
(102,497,cs)
);
}
);
};
layerId = "D5860341-D013-4190-955E-1A93B7E74D90";
name = "2 Dec 22, 16:00";
shapes = (
{
closed = 1;
nodes = (
(468,-12,o),
(549,69,o),
(549,171,cs),
(549,265,o),
(483,338,o),
(366,375,c),
(434,388,o),
(481,461,o),
(481,552,cs),
(481,653,o),
(398,732,o),
(293,732,cs),
(181,732,o),
(102,637,o),
(102,503,cs),
(102,47,l),
(116,65,l),
(44,13,l),
(46,0,l),
(188,0,l),
(188,547,ls),
(188,636,o),
(218,678,o),
(287,678,cs),
(356,678,o),
(404,628,o),
(404,547,cs),
(404,445,o),
(374,401,o),
(295,387,c),
(279,350,l),
(386,328,o),
(461,255,o),
(461,173,cs),
(461,64,o),
(429,28,o),
(343,28,c),
(390,10,l),
(301,138,l),
(288,140,l),
(238,30,l),
(273,1,o),
(312,-12,o),
(365,-12,cs)
);
},
{
closed = 1;
nodes = (
(166,310,l),
(166,435,l),
(35,380,l),
(35,368,l),
(118,310,l)
);
}
);
width = 589;
},
{
associatedMasterId = m01;
background = {
shapes = (
{
pos = (1,0);
ref = o;
}
);
};
layerId = "AE8F7DC8-FBE7-438D-BDC3-615C35FD1E77";
name = "11 Dec 22, 19:22";
shapes = (
{
closed = 1;
nodes = (
(295,651,o),
(347,703,o),
(410,703,cs),
(478,703,o),
(511,643,o),
(492,558,cs),
(474,479,o),
(429,430,o),
(375,430,cs),
(361,430,l),
(351,422,l),
(338,364,l),
(354,364,l),
(445,364,o),
(491,285,o),
(465,172,cs),
(444,78,o),
(386,19,o),
(315,19,cs),
(232,19,l),
(332,0,l),
(261,94,l),
(248,94,l),
(200,24,l),
(241,-5,o),
(267,-16,o),
(315,-16,cs),
(423,-16,o),
(520,70,o),
(548,193,cs),
(576,315,o),
(503,410,o),
(383,410,c),
(381,402,l),
(465,402,o),
(548,476,o),
(570,571,cs),
(592,670,o),
(531,747,o),
(431,747,cs),
(316,747,o),
(213,644,o),
(179,497,cs),
(42,-88,ls),
(19,-186,o),
(-8,-233,o),
(-54,-259,c),
(-44,-277,l),
(40,-250,o),
(98,-188,o),
(121,-89,cs),
(276,569,ls)
);
},
{
closed = 1;
nodes = (
(214,323,l),
(237,393,o),
(218,442,o),
(166,442,cs),
(108,442,o),
(54,396,o),
(30,323,c),
(51,313,l),
(79,370,o),
(99,392,o),
(123,392,cs),
(145,392,o),
(149,370,o),
(138,322,c)
);
}
);
width = 588;
}
);
metricLeft = "=n";
metricRight = "=o";
unicode = 223;
},
{
color = 8;
glyphname = t;
lastChange = "2022-12-11 07:08:56 +0000";
layers = (
{
anchors = (
{
name = bottom;
pos = (129,0);
},
{
name = center;
pos = (109,215);
},
{
name = top;
pos = (205,430);
},
{
name = topright;
pos = (271,735);
}
);
guides = (
{
angle = 76.918;
pos = (178,336);
}
);
layerId = m01;
shapes = (
{
closed = 1;
nodes = (
(195,-12,o),
(249,37,o),
(277,125,c),
(256,134,l),
(227,72,o),
(196,42,o),
(164,42,cs),
(124,42,o),
(116,70,o),
(133,144,cs),
(222,527,l),
(200,527,l),
(48,399,l),
(43,380,l),
(120,380,l),
(114,410,l),
(46,117,ls),
(28,38,o),
(60,-12,o),
(128,-12,cs)
);
},
{
closed = 1;
nodes = (
(295,380,l),
(309,438,l),
(149,410,l),
(140,380,l)
);
}
);
width = 303;
}
);
metricLeft = "=n";
metricRight = "=n";
unicode = 116;
},
{
color = 8;
glyphname = u;
lastChange = "2022-12-11 06:44:09 +0000";
layers = (
{
anchors = (
{
name = bottom;
pos = (206,0);
},
{
name = ogonek;
pos = (441,0);
},
{
name = top;
pos = (344,430);
},
{
name = topright;
pos = (534,430);
}
);
background = {
shapes = (
{
closed = 0;
nodes = (
(97,157,l),
(97,49,o),
(144,-12,o),
(225,-12,cs),
(289,-12,o),
(343,14,o),
(405,75,c),
(419,75,l),
(419,134,l),
(379,83,o),
(328,54,o),
(275,54,cs),
(213,54,o),
(183,96,o),
(183,182,c)
);
}
);
};
layerId = m01;
shapes = (
{
closed = 1;
nodes = (
(234,-12,o),
(306,59,o),
(369,203,c),
(377,203,l),
(346,107,l),
(326,34,o),
(342,-12,o),
(388,-12,cs),
(450,-12,o),
(504,34,o),
(528,107,c),
(507,116,l),
(479,60,o),
(459,38,o),
(435,38,cs),
(414,38,o),
(409,57,o),
(421,108,cs),
(495,430,l),
(415,430,l),
(411,412,ls),
(367,213,o),
(275,56,o),
(201,56,cs),
(161,56,o),
(155,94,o),
(177,172,cs),
(223,336,ls),
(241,401,o),
(221,442,o),
(170,442,cs),
(108,442,o),
(54,396,o),
(30,323,c),
(51,314,l),
(79,370,o),
(99,392,o),
(123,392,cs),
(148,392,o),
(151,371,o),
(137,322,cs),
(87,144,ls),
(59,44,o),
(82,-12,o),
(151,-12,cs)
);
}
);
width = 558;
},
{
anchors = (
{
name = bottom;
pos = (284,0);
},
{
name = ogonek;
pos = (494,10);
},
{
name = top;
pos = (274,430);
},
{
name = topright;
pos = (527,430);
}
);
associatedMasterId = m01;
layerId = "A1BCA110-C08A-44CF-A17A-79335E1167F1";
name = "25 Nov 22, 20:21";
shapes = (
{
closed = 1;
nodes = (
(270,-12,o),
(326,11,o),
(380,52,c),
(391,52,l),
(391,106,l),
(345,67,o),
(306,50,o),
(262,50,cs),
(207,50,o),
(176,97,o),
(176,182,cs),
(176,435,l),
(158,435,l),
(27,387,l),
(27,375,l),
(110,314,l),
(90,356,l),
(90,157,ls),
(90,39,o),
(130,-12,o),
(222,-12,cs)
);
},
{
closed = 1;
nodes = (
(421,-12,l),
(523,36,l),
(523,48,l),
(448,110,l),
(464,88,l),
(464,435,l),
(446,435,l),
(315,387,l),
(315,375,l),
(398,314,l),
(378,356,l),
(378,56,l),
(386,52,l),
(406,-12,l)
);
}
);
width = 554;
}
);
metricLeft = "=n";
metricRight = "=n";
unicode = 117;
},
{
color = 8;
glyphname = v;
lastChange = "2022-12-11 07:16:31 +0000";
layers = (
{
guides = (
{
pos = (57,369);
},
{
pos = (150,375);
}
);
layerId = m01;
shapes = (
{
closed = 1;
nodes = (
(361,442,l),
(443,442,o),
(471,389,o),
(440,294,cs),
(411,200,o),
(381,141,o),
(333,81,cs),
(282,16,o),
(242,-12,o),
(202,-12,cs),
(165,-12,o),
(143,20,o),
(142,76,cs),
(137,324,ls),
(136,373,o),
(127,392,o),
(104,392,cs),
(82,392,o),
(69,374,o),
(53,321,c),
(32,328,l),
(43,401,o),
(86,442,o),
(150,442,cs),
(189,442,o),
(213,414,o),
(214,363,cs),
(219,114,ls),
(220,70,o),
(228,51,o),
(246,51,cs),
(264,51,o),
(281,62,o),
(298,85,cs),
(345,148,o),
(365,203,o),
(378,306,cs),
(384,355,o),
(362,380,o),
(313,380,c),
(305,388,l)
);
}
);
width = 458;
},
{
associatedMasterId = m01;
guides = (
{
pos = (57,369);
},
{
pos = (150,375);
}
);
layerId = "F03B2618-258A-4102-AC46-DB85FF11A4E2";
name = "11 Dec 22, 16:20";
shapes = (
{
closed = 1;
nodes = (
(411,200,o),
(381,141,o),
(333,81,cs),
(282,16,o),
(242,-12,o),
(202,-12,cs),
(165,-12,o),
(143,20,o),
(142,76,cs),
(137,324,ls),
(136,373,o),
(127,392,o),
(104,392,cs),
(82,392,o),
(69,374,o),
(53,321,c),
(32,328,l),
(43,401,o),
(86,442,o),
(150,442,cs),
(189,442,o),
(213,414,o),
(214,363,cs),
(219,114,ls),
(220,70,o),
(228,51,o),
(246,51,cs),
(264,51,o),
(281,62,o),
(298,85,cs),
(345,148,o),
(365,203,o),
(378,306,cs),
(385,368,o),
(364,392,o),
(313,380,c),
(305,388,l),
(336,431,o),
(356,442,o),
(387,442,cs),
(449,442,o),
(469,385,o),
(440,294,cs)
);
}
);
width = 458;
}
);
metricLeft = "=n";
metricRight = "=o";
unicode = 118;
},
{
color = 8;
glyphname = w;
lastChange = "2022-12-12 00:43:16 +0000";
layers = (
{
anchors = (
{
name = bottom;
pos = (338,0);
},
{
name = top;
pos = (405,430);
}
);
guides = (
{
pos = (83,92);
}
);
layerId = m01;
shapes = (
{
closed = 1;
nodes = (
(373,367,o),
(354,380,o),
(311,380,c),
(303,388,l),
(359,442,l),
(417,442,o),
(451,413,o),
(452,363,cs),
(457,114,ls),
(458,74,o),
(470,51,o),
(489,51,cs),
(507,51,o),
(524,62,o),
(541,85,cs),
(588,148,o),
(608,203,o),
(621,306,cs),
(627,355,o),
(605,380,o),
(556,380,c),
(548,388,l),
(604,442,l),
(686,442,o),
(714,389,o),
(683,294,cs),
(654,200,o),
(624,141,o),
(576,81,cs),
(525,16,o),
(485,-12,o),
(445,-12,cs),
(403,-12,o),
(386,17,o),
(390,76,cs),
(400,241,l),
(397,241,l),
(374,92,o),
(296,-12,o),
(202,-12,cs),
(165,-12,o),
(143,20,o),
(142,76,cs),
(137,324,ls),
(136,373,o),
(127,392,o),
(104,392,cs),
(82,392,o),
(69,374,o),
(53,321,c),
(32,328,l),
(43,401,o),
(86,442,o),
(150,442,cs),
(189,442,o),
(212,414,o),
(213,363,cs),
(218,114,ls),
(219,70,o),
(228,51,o),
(246,51,cs),
(268,51,o),
(289,61,o),
(302,80,cs),
(348,146,o),
(373,237,o),
(373,336,cs)
);
}
);
width = 701;
},
{
associatedMasterId = m01;
background = {
shapes = (
{
closed = 1;
nodes = (
(470,0,l),
(638,375,l),
(694,410,l),
(694,430,l),
(514,430,l),
(514,417,l),
(573,369,l),
(469,73,l),
(476,73,l),
(349,375,l),
(417,410,l),
(417,430,l),
(206,430,l),
(206,417,l),
(256,369,l),
(419,0,l)
);
}
);
};
guides = (
{
pos = (58,92);
}
);
layerId = "929944E6-84C5-4BC2-97CA-224B199F4CF1";
name = "9 Dec 22, 19:31";
shapes = (
{
closed = 1;
nodes = (
(247,0,l),
(371,373,l),
(371,430,l),
(330,430,l),
(239,73,l),
(250,73,l),
(146,375,l),
(214,410,l),
(214,430,l),
(2,430,l),
(2,417,l),
(55,369,l),
(191,0,l)
);
},
{
closed = 1;
nodes = (
(477,0,l),
(612,369,l),
(674,410,l),
(674,430,l),
(494,430,l),
(494,417,l),
(553,373,l),
(472,73,l),
(482,73,l),
(377,430,l),
(342,430,l),
(317,328,l),
(429,0,l)
);
}
);
width = 676;
}
);
metricLeft = "=v";
metricRight = "=v";
unicode = 119;
},
{
color = 8;
glyphname = x;
lastChange = "2022-12-11 06:30:47 +0000";
layers = (
{
layerId = m01;
shapes = (
{
closed = 1;
nodes = (
(385,-12,o),
(434,34,o),
(458,107,c),
(437,116,l),
(408,58,o),
(390,38,o),
(366,38,cs),
(340,38,o),
(322,58,o),
(305,111,cs),
(227,354,ls),
(207,415,o),
(179,442,o),
(137,442,cs),
(86,442,o),
(43,401,o),
(32,328,c),
(53,321,l),
(68,372,o),
(81,392,o),
(99,392,cs),
(120,392,o),
(135,372,o),
(152,319,cs),
(230,76,ls),
(251,10,o),
(276,-12,o),
(332,-12,cs)
);
},
{
closed = 1;
nodes = (
(437,337,l),
(448,337,l),
(490,431,l),
(480,437,o),
(456,442,o),
(435,442,cs),
(393,442,o),
(355,416,o),
(319,363,cs),
(224,223,l),
(227,189,l),
(399,375,l)
);
},
{
closed = 1;
nodes = (
(10,93,l),
(-1,93,l),
(-43,-1,l),
(-33,-7,o),
(-9,-12,o),
(12,-12,cs),
(54,-12,o),
(92,14,o),
(128,67,cs),
(223,207,l),
(220,241,l),
(48,55,l)
);
}
);
width = 488;
}
);
metricLeft = "=n";
metricRight = "=n";
unicode = 120;
},
{
color = 8;
glyphname = y;
lastChange = "2022-12-11 06:41:40 +0000";
layers = (
{
anchors = (
{
name = bottom;
pos = (296,0);
},
{
name = top;
pos = (323,430);
}
);
background = {
shapes = (
{
closed = 1;
nodes = (
(266,0,l),
(434,375,l),
(490,410,l),
(490,430,l),
(310,430,l),
(310,417,l),
(369,369,l),
(265,73,l),
(272,73,l),
(145,375,l),
(213,410,l),
(213,430,l),
(2,430,l),
(2,417,l),
(52,369,l),
(215,0,l)
);
}
);
};
layerId = m01;
shapes = (
{
closed = 1;
nodes = (
(55,-280,l),
(33,-280,l),
(-24,-199,l),
(210,-25,l),
(187,-58,l),
(137,324,ls),
(131,373,o),
(127,392,o),
(104,392,cs),
(82,392,o),
(69,374,o),
(53,321,c),
(32,328,l),
(43,401,o),
(86,442,o),
(150,442,cs),
(182,442,o),
(204,413,o),
(211,362,cs),
(256,10,l),
(240,3,l),
(276,49,ls),
(337,127,o),
(374,221,o),
(385,306,cs),
(391,355,o),
(369,380,o),
(320,380,c),
(312,388,l),
(368,442,l),
(450,442,o),
(478,389,o),
(447,294,cs),
(418,201,o),
(379,129,o),
(321,56,cs)
);
}
);
width = 465;
},
{
associatedMasterId = m01;
layerId = "7BDC2410-AA00-4A59-A18D-D81C24CFCC97";
name = "25 Oct 22, 08:43";
shapes = (
{
closed = 1;
nodes = (
(154,-280,l),
(438,369,l),
(496,407,l),
(494,430,l),
(312,430,l),
(310,414,l),
(365,374,l),
(269,73,l),
(279,73,l),
(152,375,l),
(224,407,l),
(222,430,l),
(4,430,l),
(2,415,l),
(59,369,l),
(220,4,l),
(64,-211,l),
(133,-284,l)
);
}
);
width = 498;
}
);
metricLeft = "=v";
metricRight = "=v";
unicode = 121;
},
{
color = 8;
glyphname = z;
lastChange = "2022-12-11 06:31:25 +0000";
layers = (
{
anchors = (
{
name = bottom;
pos = (291,0);
},
{
name = center;
pos = (235,215);
},
{
name = top;
pos = (284,430);
}
);
layerId = m01;
shapes = (
{
closed = 1;
nodes = (
(444,418,l),
(418,442,l),
(408,432,ls),
(399,423,o),
(379,420,o),
(349,423,cs),
(202,439,ls),
(142,446,o),
(105,439,o),
(81,416,c),
(116,312,l),
(127,312,l),
(209,395,l),
(162,376,l),
(357,356,l),
(357,374,l),
(30,11,l),
(56,-12,l)
);
},
{
closed = 1;
nodes = (
(87,15,o),
(120,26,o),
(176,26,cs),
(222,26,o),
(258,-12,o),
(315,-12,cs),
(383,-12,o),
(424,24,o),
(438,97,c),
(416,102,l),
(409,76,o),
(383,59,o),
(348,59,cs),
(302,59,o),
(277,90,o),
(225,90,cs),
(176,90,o),
(135,74,o),
(101,42,c),
(67,34,l),
(56,-12,l)
);
}
);
width = 500;
},
{
anchors = (
{
name = bottom;
pos = (210,0);
},
{
name = center;
pos = (210,215);
},
{
name = top;
pos = (210,430);
}
);
associatedMasterId = m01;
layerId = "2158E6B1-1575-4FBD-91B0-FFBA364DF8C5";
name = "26 Nov 22, 13:32";
shapes = (
{
closed = 1;
nodes = (
(127,0,l),
(403,411,l),
(389,430,l),
(328,430,l),
(30,13,l),
(33,0,l)
);
},
{
closed = 1;
nodes = (
(375,0,l),
(375,49,l),
(101,39,l),
(101,0,l)
);
},
{
closed = 1;
nodes = (
(143,400,l),
(132,430,l),
(43,430,l),
(57,291,l),
(68,290,l)
);
},
{
closed = 1;
nodes = (
(402,0,l),
(408,136,l),
(397,139,l),
(315,44,l),
(327,0,l)
);
},
{
closed = 1;
nodes = (
(342,392,l),
(342,430,l),
(84,430,l),
(84,381,l)
);
}
);
width = 438;
}
);
metricLeft = "=o";
metricRight = "=o";
unicode = 122;
},
{
color = 8;
glyphname = g.topAccent;
lastChange = "2022-12-18 04:03:39 +0000";
layers = (
{
anchors = (
{
name = bottom;
pos = (243,-280);
},
{
name = top;
pos = (286,430);
}
);
background = {
shapes = (
{
closed = 1;
nodes = (
(234,-277,o),
(335,-199,o),
(353,-126,cs),
(399,60,o),
(65,-35,o),
(100,85,cs),
(105,103,o),
(120,121,o),
(145,138,c),
(126,154,l),
(72,123,o),
(49,99,o),
(40,66,cs),
(-2,-106,o),
(315,-10,o),
(284,-148,cs),
(275,-193,o),
(216,-241,o),
(137,-241,cs),
(55,-241,o),
(-1,-197,o),
(14,-137,cs),
(21,-104,o),
(55,-75,o),
(126,-42,c),
(126,-29,l),
(91,-30,l),
(91,-38,l),
(23,-54,o),
(-39,-105,o),
(-50,-154,cs),
(-68,-233,o),
(-3,-277,o),
(116,-277,cs)
);
},
{
closed = 1;
nodes = (
(277,112,o),
(370,188,o),
(393,284,cs),
(414,372,o),
(358,442,o),
(266,442,cs),
(169,442,o),
(76,366,o),
(53,270,cs),
(32,182,o),
(88,112,o),
(180,112,cs)
);
},
{
closed = 1;
nodes = (
(135,144,o),
(109,201,o),
(129,283,cs),
(148,364,o),
(193,410,o),
(254,410,cs),
(311,410,o),
(337,353,o),
(317,271,cs),
(298,190,o),
(253,144,o),
(192,144,cs)
);
}
);
};
layerId = m01;
shapes = (
{
closed = 1;
nodes = (
(425,358,o),
(481,373,o),
(481,430,c),
(418,478,l),
(412,472,l),
(412,419,o),
(390,393,o),
(342,422,c),
(323,403,l),
(381,364,l),
(381,385,l)
);
},
{
closed = 1;
nodes = (
(277,112,o),
(370,188,o),
(393,284,cs),
(414,372,o),
(358,442,o),
(266,442,cs),
(169,442,o),
(76,366,o),
(53,270,cs),
(32,182,o),
(88,112,o),
(180,112,cs)
);
},
{
closed = 1;
nodes = (
(139,144,o),
(115,201,o),
(135,283,cs),
(153,361,o),
(199,410,o),
(254,410,cs),
(307,410,o),
(331,353,o),
(311,271,cs),
(293,193,o),
(247,144,o),
(192,144,cs)
);
},
{
closed = 1;
nodes = (
(234,-277,o),
(335,-199,o),
(353,-126,cs),
(397,52,o),
(74,-7,o),
(101,90,cs),
(106,107,o),
(118,120,o),
(145,138,c),
(126,154,l),
(72,123,o),
(49,99,o),
(40,66,cs),
(-4,-95,o),
(310,-19,o),
(284,-148,cs),
(275,-193,o),
(216,-241,o),
(137,-241,cs),
(55,-241,o),
(-1,-197,o),
(14,-137,cs),
(21,-104,o),
(55,-75,o),
(126,-42,c),
(126,-29,l),
(91,-30,l),
(91,-38,l),
(23,-54,o),
(-39,-105,o),
(-50,-154,cs),
(-68,-233,o),
(-3,-277,o),
(116,-277,cs)
);
}
);
width = 438;
},
{
anchors = (
{
name = bottom;
pos = (253,-280);
},
{
name = top;
pos = (238,430);
}
);
associatedMasterId = m01;
layerId = "C847D58A-02FA-4425-9B47-BB67F611F1DF";
name = "15 Nov 22, 08:55";
shapes = (
{
closed = 1;
nodes = (
(392,-292,o),
(491,-225,o),
(491,-130,cs),
(491,-36,o),
(406,30,o),
(284,30,cs),
(218,30,ls),
(156,30,o),
(129,47,o),
(129,85,cs),
(129,107,o),
(141,126,o),
(164,143,c),
(141,159,l),
(92,131,o),
(64,90,o),
(64,45,cs),
(64,-18,o),
(98,-58,o),
(153,-58,cs),
(263,-58,ls),
(362,-58,o),
(417,-92,o),
(417,-152,cs),
(417,-216,o),
(362,-252,o),
(264,-252,cs),
(166,-252,o),
(104,-211,o),
(104,-146,cs),
(104,-109,o),
(120,-80,o),
(153,-58,c),
(165,-36,l),
(118,-43,l),
(118,-54,l),
(68,-73,o),
(37,-115,o),
(37,-163,cs),
(37,-246,o),
(114,-292,o),
(252,-292,cs)
);
},
{
closed = 1;
nodes = (
(341,122,o),
(423,197,o),
(423,292,cs),
(423,384,o),
(357,442,o),
(252,442,cs),
(148,442,o),
(66,367,o),
(66,271,cs),
(66,179,o),
(132,122,o),
(237,122,cs)
);
},
{
closed = 1;
nodes = (
(190,164,o),
(150,214,o),
(150,294,cs),
(150,362,o),
(181,400,o),
(236,400,cs),
(299,400,o),
(339,351,o),
(339,273,cs),
(339,203,o),
(308,164,o),
(253,164,cs)
);
},
{
closed = 1;
nodes = (
(359,419,l),
(467,462,l),
(472,477,l),
(403,552,l),
(331,425,l),
(359,409,l)
);
}
);
width = 506;
},
{
anchors = (
{
name = bottom;
pos = (238,-280);
},
{
name = top;
pos = (223,430);
}
);
associatedMasterId = m01;
layerId = "9ADF3129-AE2E-4183-ACCD-2646D0F3543C";
name = "17 Nov 22, 12:55";
shapes = (
{
closed = 1;
nodes = (
(377,-292,o),
(476,-225,o),
(476,-130,cs),
(476,-36,o),
(391,30,o),
(269,30,cs),
(203,30,ls),
(141,30,o),
(114,47,o),
(114,85,cs),
(114,107,o),
(126,126,o),
(149,143,c),
(126,159,l),
(77,131,o),
(49,90,o),
(49,45,cs),
(49,-18,o),
(83,-58,o),
(138,-58,cs),
(248,-58,ls),
(347,-58,o),
(402,-92,o),
(402,-152,cs),
(402,-216,o),
(347,-252,o),
(249,-252,cs),
(151,-252,o),
(89,-211,o),
(89,-146,cs),
(89,-109,o),
(105,-80,o),
(138,-58,c),
(150,-36,l),
(103,-43,l),
(103,-54,l),
(53,-73,o),
(22,-115,o),
(22,-163,cs),
(22,-246,o),
(99,-292,o),
(237,-292,cs)
);
},
{
closed = 1;
nodes = (
(324,122,o),
(404,197,o),
(404,292,cs),
(404,384,o),
(340,442,o),
(237,442,cs),
(135,442,o),
(55,367,o),
(55,272,cs),
(55,180,o),
(119,122,o),
(222,122,cs)
);
},
{
closed = 1;
nodes = (
(175,164,o),
(135,214,o),
(135,294,cs),
(135,362,o),
(166,400,o),
(221,400,cs),
(284,400,o),
(324,351,o),
(324,273,cs),
(324,203,o),
(293,164,o),
(238,164,cs)
);
},
{
closed = 1;
nodes = (
(344,417,l),
(459,471,l),
(464,486,l),
(388,552,l),
(316,425,l),
(344,409,l)
);
}
);
width = 491;
},
{
anchors = (
{
name = bottom;
pos = (228,-280);
},
{
name = top;
pos = (213,430);
}
);
associatedMasterId = m01;
layerId = "DF1B9152-19C1-45B7-8FA4-D1F62DC92406";
name = "17 Nov 22, 13:51";
shapes = (
{
closed = 1;
nodes = (
(342,-58,o),
(395,-92,o),
(395,-152,cs),
(395,-217,o),
(339,-254,o),
(239,-254,cs),
(147,-254,o),
(89,-211,o),
(89,-142,cs),
(89,-105,o),
(102,-77,o),
(135,-43,c),
(209,-36,l),
(102,-30,l),
(102,-39,l),
(49,-74,o),
(22,-112,o),
(22,-155,cs),
(22,-239,o),
(104,-292,o),
(234,-292,cs),
(364,-292,o),
(466,-221,o),
(466,-130,cs),
(466,-27,o),
(375,30,o),
(212,30,cs),
(134,30,o),
(104,45,o),
(104,85,cs),
(104,107,o),
(116,126,o),
(139,143,c),
(114,159,l),
(60,128,o),
(39,99,o),
(39,56,cs),
(39,-20,o),
(108,-58,o),
(248,-58,cs)
);
},
{
closed = 1;
nodes = (
(314,122,o),
(394,197,o),
(394,292,cs),
(394,384,o),
(330,442,o),
(227,442,cs),
(125,442,o),
(45,367,o),
(45,272,cs),
(45,180,o),
(109,122,o),
(212,122,cs)
);
},
{
closed = 1;
nodes = (
(165,164,o),
(125,214,o),
(125,294,cs),
(125,362,o),
(156,400,o),
(211,400,cs),
(274,400,o),
(314,351,o),
(314,273,cs),
(314,203,o),
(283,164,o),
(228,164,cs)
);
},
{
closed = 1;
nodes = (
(334,417,l),
(445,471,l),
(446,486,l),
(371,553,l),
(309,425,l),
(334,409,l)
);
}
);
width = 446;
},
{
anchors = (
{
name = bottom;
pos = (256,-280);
},
{
name = top;
pos = (241,430);
}
);
associatedMasterId = m01;
layerId = "14FEC683-A876-4146-87AE-A345FFDCD009";
name = "25 Nov 22, 11:23";
shapes = (
{
closed = 1;
nodes = (
(382,-292,o),
(484,-221,o),
(484,-130,cs),
(484,-25,o),
(413,24,o),
(251,31,cs),
(158,35,o),
(122,50,o),
(122,83,cs),
(122,102,o),
(130,118,o),
(151,142,c),
(126,158,l),
(76,119,o),
(57,89,o),
(57,52,cs),
(57,-21,o),
(109,-53,o),
(246,-62,cs),
(367,-71,o),
(413,-96,o),
(413,-152,cs),
(413,-215,o),
(363,-250,o),
(274,-250,cs),
(171,-250,o),
(107,-208,o),
(107,-142,cs),
(107,-104,o),
(121,-77,o),
(158,-43,c),
(227,-36,l),
(120,-33,l),
(120,-42,l),
(64,-79,o),
(40,-116,o),
(40,-163,cs),
(40,-242,o),
(122,-292,o),
(252,-292,cs)
);
},
{
closed = 1;
nodes = (
(343,114,o),
(424,191,o),
(424,288,cs),
(424,378,o),
(354,442,o),
(255,442,cs),
(152,442,o),
(71,365,o),
(71,268,cs),
(71,178,o),
(141,114,o),
(240,114,cs)
);
},
{
closed = 1;
nodes = (
(199,155,o),
(155,213,o),
(155,287,cs),
(155,363,o),
(183,401,o),
(239,401,cs),
(296,401,o),
(340,343,o),
(340,269,cs),
(340,193,o),
(312,155,o),
(256,155,cs)
);
},
{
closed = 1;
nodes = (
(362,414,l),
(473,465,l),
(474,480,l),
(380,556,l),
(375,555,l),
(331,422,l),
(362,402,l)
);
}
);
width = 484;
}
);
metricLeft = "=o";
metricRight = "=n";
},
{
color = 8;
glyphname = f_f;
lastChange = "2022-12-11 09:41:53 +0000";
layers = (
{
layerId = m01;
shapes = (
{
closed = 1;
nodes = (
(463,442,l),
(202,419,l),
(172,381,l),
(452,381,l)
);
},
{
closed = 1;
nodes = (
(302,-250,o),
(360,-188,o),
(383,-89,cs),
(542,585,ls),
(560,660,o),
(593,693,o),
(652,693,cs),
(670,693,o),
(687,687,o),
(709,674,c),
(620,725,l),
(717,629,l),
(728,629,l),
(766,725,l),
(735,741,o),
(712,747,o),
(682,747,cs),
(580,747,o),
(476,646,o),
(446,518,cs),
(304,-88,ls),
(281,-186,o),
(254,-233,o),
(208,-259,c),
(218,-277,l)
);
},
{
closed = 1;
nodes = (
(639,380,l),
(654,443,l),
(493,419,l),
(484,380,l)
);
},
{
closed = 1;
nodes = (
(138,380,l),
(147,457,l),
(48,399,l),
(43,380,l)
);
},
{
closed = 1;
nodes = (
(523,593,l),
(531,669,o),
(482,723,o),
(403,723,cs),
(291,723,o),
(179,622,o),
(149,494,cs),
(13,-88,ls),
(-10,-186,o),
(-37,-233,o),
(-83,-259,c),
(-73,-277,l),
(11,-250,o),
(69,-188,o),
(92,-89,cs),
(245,561,ls),
(261,629,o),
(317,672,o),
(390,672,c),
(418,672,l),
(385,701,l),
(457,565,l),
(426,435,l),
(493,435,l)
);
}
);
width = 628;
}
);
metricLeft = "=f";
metricRight = "=f";
},
{
color = 8;
glyphname = f_f_i;
lastChange = "2022-12-11 09:41:53 +0000";
layers = (
{
anchors = (
{
name = bottom_1;
pos = (776,0);
},
{
name = ogonek_1;
pos = (855,0);
},
{
name = top_1;
pos = (771,622);
}
);
layerId = m01;
shapes = (
{
closed = 1;
nodes = (
(694,380,o),
(703,360,o),
(690,309,cs),
(634,94,ls),
(617,29,o),
(639,-12,o),
(692,-12,cs),
(754,-12,o),
(804,34,o),
(828,107,c),
(807,116,l),
(779,60,o),
(759,38,o),
(735,38,cs),
(711,38,o),
(705,61,o),
(717,108,cs),
(775,326,ls),
(798,413,o),
(773,448,o),
(694,440,cs),
(493,419,l),
(484,380,l),
(658,380,ls)
);
},
{
closed = 1;
nodes = (
(802,539,o),
(828,562,o),
(835,598,cs),
(852,681,o),
(793,747,o),
(700,747,cs),
(588,747,o),
(476,646,o),
(446,518,cs),
(304,-88,ls),
(281,-186,o),
(254,-233,o),
(208,-259,c),
(218,-277,l),
(302,-250,o),
(360,-188,o),
(383,-89,cs),
(542,585,ls),
(558,653,o),
(614,696,o),
(687,696,c),
(709,696,l),
(682,725,l),
(758,539,l),
(769,539,ls)
);
},
{
closed = 1;
nodes = (
(463,442,l),
(202,419,l),
(172,381,l),
(452,381,l)
);
},
{
closed = 1;
nodes = (
(138,380,l),
(147,457,l),
(48,399,l),
(43,380,l)
);
},
{
closed = 1;
nodes = (
(523,593,l),
(531,669,o),
(482,723,o),
(403,723,cs),
(291,723,o),
(179,622,o),
(149,494,cs),
(13,-88,ls),
(-10,-186,o),
(-37,-233,o),
(-83,-259,c),
(-73,-277,l),
(11,-250,o),
(69,-188,o),
(92,-89,cs),
(245,561,ls),
(261,629,o),
(317,672,o),
(390,672,c),
(418,672,l),
(385,701,l),
(457,565,l),
(426,435,l),
(493,435,l)
);
}
);
width = 858;
}
);
metricLeft = f;
metricRight = i;
},
{
color = 8;
glyphname = f_f_l;
lastChange = "2022-12-11 09:41:49 +0000";
layers = (
{
anchors = (
{
name = bottom_1;
pos = (799,0);
},
{
name = center_1;
pos = (803,360);
},
{
name = top_1;
pos = (799,720);
},
{
name = topright_1;
pos = (914,720);
}
);
layerId = m01;
shapes = (
{
closed = 1;
nodes = (
(629,380,l),
(644,443,l),
(493,419,l),
(484,380,l)
);
},
{
closed = 1;
nodes = (
(639,94,ls),
(623,26,o),
(643,-12,o),
(692,-12,cs),
(754,-12,o),
(808,34,o),
(832,107,c),
(811,116,l),
(783,60,o),
(763,38,o),
(739,38,cs),
(715,38,o),
(709,57,o),
(721,108,cs),
(868,735,l),
(848,735,l),
(753,698,l),
(748,671,l),
(786,638,l),
(775,675,l)
);
},
{
closed = 1;
nodes = (
(758,539,l),
(769,539,ls),
(802,539,o),
(801,562,o),
(808,595,cs),
(826,684,o),
(781,747,o),
(700,747,cs),
(588,747,o),
(476,646,o),
(446,518,cs),
(304,-88,ls),
(281,-186,o),
(254,-233,o),
(208,-259,c),
(218,-277,l),
(302,-250,o),
(360,-188,o),
(383,-89,cs),
(542,585,ls),
(558,653,o),
(614,696,o),
(687,696,cs),
(734,696,l),
(682,725,l)
);
},
{
closed = 1;
nodes = (
(463,442,l),
(202,419,l),
(172,381,l),
(452,381,l)
);
},
{
closed = 1;
nodes = (
(138,380,l),
(147,457,l),
(48,399,l),
(43,380,l)
);
},
{
closed = 1;
nodes = (
(523,593,l),
(531,669,o),
(482,723,o),
(403,723,cs),
(291,723,o),
(179,622,o),
(149,494,cs),
(13,-88,ls),
(-10,-186,o),
(-37,-233,o),
(-83,-259,c),
(-73,-277,l),
(11,-250,o),
(69,-188,o),
(92,-89,cs),
(245,561,ls),
(261,629,o),
(317,672,o),
(390,672,c),
(418,672,l),
(385,701,l),
(457,565,l),
(426,435,l),
(493,435,l)
);
}
);
width = 862;
}
);
metricLeft = f;
metricRight = l;
},
{
color = 8;
glyphname = fi;
lastChange = "2022-12-11 09:34:58 +0000";
layers = (
{
anchors = (
{
name = bottom_1;
pos = (503,0);
},
{
name = caret_1;
pos = (280,0);
},
{
name = ogonek_1;
pos = (569,0);
},
{
name = top_1;
pos = (498,622);
}
);
background = {
shapes = (
{
closed = 1;
nodes = (
(193,0,l),
(198,20,l),
(110,68,l),
(121,26,l),
(247,569,ls),
(265,651,o),
(329,703,o),
(410,703,cs),
(450,703,l),
(415,725,l),
(476,530,l),
(487,530,ls),
(523,530,o),
(550,554,o),
(560,598,cs),
(580,685,o),
(522,747,o),
(421,747,cs),
(294,747,o),
(182,644,o),
(148,497,cs),
(40,28,l),
(71,78,l),
(-19,13,l),
(-22,0,l)
);
},
{
closed = 1;
nodes = (
(119,370,l),
(140,462,l),
(46,383,l),
(43,370,l)
);
},
{
closed = 1;
nodes = (
(478,0,l),
(483,20,l),
(401,68,l),
(412,26,l),
(508,442,l),
(212,430,l),
(172,392,l),
(441,363,l),
(420,416,l),
(331,28,l),
(362,78,l),
(272,13,l),
(269,0,l)
);
}
);
};
layerId = m01;
shapes = (
{
closed = 1;
nodes = (
(138,380,l),
(147,457,l),
(48,399,l),
(43,380,l)
);
},
{
closed = 1;
nodes = (
(403,380,o),
(412,360,o),
(399,309,cs),
(343,94,ls),
(326,29,o),
(348,-12,o),
(401,-12,cs),
(463,-12,o),
(513,34,o),
(537,107,c),
(516,116,l),
(488,60,o),
(468,38,o),
(444,38,cs),
(420,38,o),
(414,61,o),
(426,108,cs),
(484,326,ls),
(507,413,o),
(482,448,o),
(403,440,cs),
(202,419,l),
(193,380,l),
(367,380,ls)
);
},
{
closed = 1;
nodes = (
(511,539,o),
(537,562,o),
(544,598,cs),
(561,681,o),
(502,747,o),
(409,747,cs),
(297,747,o),
(185,646,o),
(155,518,cs),
(13,-88,ls),
(-10,-186,o),
(-37,-233,o),
(-83,-259,c),
(-73,-277,l),
(11,-250,o),
(69,-188,o),
(92,-89,cs),
(251,585,ls),
(267,653,o),
(323,696,o),
(396,696,c),
(418,696,l),
(391,725,l),
(467,539,l),
(478,539,ls)
);
}
);
width = 567;
},
{
anchors = (
{
name = bottom_1;
pos = (497,0);
},
{
name = ogonek_1;
pos = (608,10);
},
{
name = top_1;
pos = (502,430);
}
);
associatedMasterId = m01;
layerId = "637A1608-9AD6-4EA1-BD64-DD92DE2D06DA";
name = "19 Nov 22, 16:10";
shapes = (
{
closed = 1;
nodes = (
(279,0,l),
(281,21,l),
(184,58,l),
(200,34,l),
(200,542,ls),
(200,633,o),
(239,678,o),
(318,678,cs),
(356,678,o),
(389,664,o),
(410,640,c),
(428,539,l),
(479,542,l),
(493,660,l),
(457,706,o),
(397,732,o),
(324,732,cs),
(206,732,o),
(114,631,o),
(114,503,cs),
(114,47,l),
(128,65,l),
(56,13,l),
(58,0,l)
);
},
{
closed = 1;
nodes = (
(114,380,l),
(114,457,l),
(34,392,l),
(36,380,l)
);
},
{
closed = 1;
nodes = (
(566,0,l),
(568,21,l),
(482,58,l),
(498,37,l),
(498,404,l),
(412,404,l),
(412,47,l),
(426,65,l),
(359,13,l),
(361,0,l)
);
},
{
closed = 1;
nodes = (
(498,430,l),
(197,420,l),
(165,380,l),
(498,368,l)
);
}
);
width = 580;
},
{
anchors = (
{
name = caret_1;
pos = (286,0);
}
);
associatedMasterId = m01;
layerId = "31992396-766D-4E6F-AB6A-6EDA59EA71E3";
name = "25 Nov 22, 16:15";
shapes = (
{
closed = 1;
nodes = (
(255,0,l),
(257,21,l),
(160,58,l),
(176,34,l),
(176,545,ls),
(176,627,o),
(221,678,o),
(293,678,cs),
(317,678,o),
(342,673,o),
(353,666,c),
(427,523,l),
(440,520,l),
(475,520,o),
(500,544,o),
(500,599,cs),
(500,673,o),
(414,732,o),
(305,732,cs),
(179,732,o),
(90,626,o),
(90,475,cs),
(90,47,l),
(104,65,l),
(32,13,l),
(34,0,l)
);
},
{
closed = 1;
nodes = (
(90,380,l),
(90,472,l),
(10,393,l),
(12,380,l)
);
},
{
closed = 1;
nodes = (
(556,0,l),
(558,21,l),
(466,58,l),
(482,34,l),
(482,430,l),
(166,420,l),
(162,381,l),
(424,364,l),
(396,399,l),
(396,47,l),
(410,65,l),
(338,13,l),
(340,0,l)
);
}
);
width = 572;
},
{
anchors = (
{
name = caret_1;
pos = (286,0);
}
);
associatedMasterId = m01;
layerId = "0DF3824F-5506-4D4F-9647-EABB7C584A32";
name = "26 Nov 22, 16:24";
shapes = (
{
closed = 1;
nodes = (
(255,0,l),
(257,21,l),
(160,58,l),
(176,34,l),
(176,545,ls),
(176,627,o),
(221,678,o),
(293,678,cs),
(317,678,o),
(342,673,o),
(353,666,c),
(427,523,l),
(440,520,l),
(475,520,o),
(500,544,o),
(500,599,cs),
(500,673,o),
(414,732,o),
(305,732,cs),
(179,732,o),
(90,626,o),
(90,475,cs),
(90,47,l),
(104,65,l),
(32,13,l),
(34,0,l)
);
},
{
closed = 1;
nodes = (
(90,380,l),
(90,472,l),
(10,393,l),
(12,380,l)
);
},
{
closed = 1;
nodes = (
(556,0,l),
(558,21,l),
(466,58,l),
(482,34,l),
(482,430,l),
(166,420,l),
(162,381,l),
(424,364,l),
(396,399,l),
(396,47,l),
(410,65,l),
(338,13,l),
(340,0,l)
);
}
);
width = 572;
}
);
metricLeft = "=f";
metricRight = "=i";
unicode = 64257;
},
{
color = 8;
glyphname = fl;
lastChange = "2022-12-11 09:34:58 +0000";
layers = (
{
anchors = (
{
name = bottom_1;
pos = (431,0);
},
{
name = caret_1;
pos = (297,0);
},
{
name = center_1;
pos = (495,360);
},
{
name = top_1;
pos = (491,720);
},
{
name = topright_1;
pos = (620,735);
}
);
background = {
shapes = (
{
closed = 1;
nodes = (
(193,0,l),
(198,20,l),
(110,68,l),
(121,26,l),
(247,569,ls),
(265,651,o),
(329,703,o),
(410,703,cs),
(450,703,l),
(415,725,l),
(476,530,l),
(473,644,l),
(331,28,l),
(362,78,l),
(272,13,l),
(269,0,l),
(478,0,l),
(483,20,l),
(401,68,l),
(412,26,l),
(576,735,l),
(554,735,l),
(472,701,l),
(536,588,l),
(559,686,o),
(514,747,o),
(421,747,cs),
(294,747,o),
(182,644,o),
(148,497,cs),
(40,28,l),
(71,78,l),
(-19,13,l),
(-22,0,l)
);
},
{
closed = 1;
nodes = (
(119,370,l),
(140,462,l),
(46,383,l),
(43,370,l)
);
},
{
closed = 1;
nodes = (
(351,442,l),
(212,430,l),
(172,392,l),
(336,376,l)
);
}
);
};
guides = (
{
angle = 270;
pos = (421,-263);
}
);
layerId = m01;
shapes = (
{
closed = 1;
nodes = (
(138,380,l),
(147,457,l),
(48,399,l),
(43,380,l)
);
},
{
closed = 1;
nodes = (
(338,380,l),
(353,443,l),
(202,419,l),
(193,380,l)
);
},
{
closed = 1;
nodes = (
(348,94,ls),
(332,26,o),
(352,-12,o),
(401,-12,cs),
(463,-12,o),
(517,34,o),
(541,107,c),
(520,116,l),
(492,60,o),
(472,38,o),
(448,38,cs),
(424,38,o),
(418,57,o),
(430,108,cs),
(577,735,l),
(557,735,l),
(462,698,l),
(457,671,l),
(495,638,l),
(484,675,l)
);
},
{
closed = 1;
nodes = (
(467,539,l),
(478,539,ls),
(511,539,o),
(510,562,o),
(517,595,cs),
(535,684,o),
(490,747,o),
(409,747,cs),
(297,747,o),
(185,646,o),
(155,518,cs),
(13,-88,ls),
(-10,-186,o),
(-37,-233,o),
(-83,-259,c),
(-73,-277,l),
(11,-250,o),
(69,-188,o),
(92,-89,cs),
(251,585,ls),
(267,653,o),
(323,696,o),
(396,696,cs),
(443,696,l),
(391,725,l)
);
}
);
width = 571;
},
{
associatedMasterId = m01;
layerId = "89FF5B61-C72B-43A6-BFD9-B29F08EFADA7";
name = "19 Nov 22, 16:18";
shapes = (
{
closed = 1;
nodes = (
(114,380,l),
(114,457,l),
(34,392,l),
(36,380,l)
);
},
{
closed = 1;
nodes = (
(332,441,l),
(197,430,l),
(165,392,l),
(327,376,l)
);
},
{
closed = 1;
nodes = (
(458,687,o),
(407,732,o),
(324,732,cs),
(206,732,o),
(114,631,o),
(114,503,cs),
(114,47,l),
(128,65,l),
(56,13,l),
(58,0,l),
(279,0,l),
(281,21,l),
(184,58,l),
(200,34,l),
(200,542,ls),
(200,633,o),
(239,678,o),
(318,678,cs),
(373,678,o),
(412,640,o),
(412,587,cs),
(412,47,l),
(426,65,l),
(359,13,l),
(361,0,l),
(566,0,l),
(568,21,l),
(482,58,l),
(498,37,l),
(498,720,l),
(480,720,l),
(405,689,l),
(468,607,l)
);
}
);
width = 577;
},
{
associatedMasterId = m01;
layerId = "8DE7C5FF-F91A-4BA0-A025-6E6E0C158177";
name = "25 Nov 22, 16:15";
shapes = (
{
closed = 1;
nodes = (
(255,0,l),
(257,21,l),
(160,58,l),
(176,34,l),
(176,545,ls),
(176,627,o),
(221,678,o),
(293,678,cs),
(317,678,o),
(342,673,o),
(353,666,c),
(406,543,l),
(396,634,l),
(396,47,l),
(410,65,l),
(338,13,l),
(340,0,l),
(556,0,l),
(558,21,l),
(466,58,l),
(482,34,l),
(482,720,l),
(464,720,l),
(402,695,l),
(458,622,l),
(444,693,o),
(389,732,o),
(305,732,cs),
(179,732,o),
(90,626,o),
(90,475,cs),
(90,47,l),
(104,65,l),
(32,13,l),
(34,0,l)
);
},
{
closed = 1;
nodes = (
(90,380,l),
(90,472,l),
(10,393,l),
(12,380,l)
);
},
{
closed = 1;
nodes = (
(307,441,l),
(173,430,l),
(141,392,l),
(302,376,l)
);
}
);
width = 572;
},
{
associatedMasterId = m01;
layerId = "A5C02192-BE70-4E8D-B38A-30C716793285";
name = "26 Nov 22, 16:29";
shapes = (
{
closed = 1;
nodes = (
(255,0,l),
(257,21,l),
(160,58,l),
(176,34,l),
(176,545,ls),
(176,627,o),
(221,678,o),
(293,678,cs),
(317,678,o),
(342,673,o),
(353,666,c),
(406,543,l),
(396,634,l),
(396,47,l),
(410,65,l),
(338,13,l),
(340,0,l),
(556,0,l),
(558,21,l),
(466,58,l),
(482,34,l),
(482,720,l),
(464,720,l),
(402,695,l),
(458,622,l),
(444,693,o),
(389,732,o),
(305,732,cs),
(179,732,o),
(90,626,o),
(90,475,cs),
(90,47,l),
(104,65,l),
(32,13,l),
(34,0,l)
);
},
{
closed = 1;
nodes = (
(90,380,l),
(90,472,l),
(10,393,l),
(12,380,l)
);
},
{
closed = 1;
nodes = (
(307,441,l),
(173,430,l),
(141,392,l),
(302,376,l)
);
}
);
width = 572;
}
);
metricLeft = f;
metricRight = "=l";
unicode = 64258;
},
{
color = 8;
glyphname = zero;
lastChange = "2022-12-11 10:45:00 +0000";
layers = (
{
guides = (
{
angle = 180;
pos = (545,320);
},
{
angle = 270;
pos = (336,627);
}
);
layerId = m01;
shapes = (
{
closed = 1;
nodes = (
(406,-16,o),
(538,123,o),
(583,320,cs),
(626,508,o),
(545,656,o),
(399,656,cs),
(256,656,o),
(124,517,o),
(79,320,cs),
(36,132,o),
(117,-16,o),
(263,-16,cs)
);
},
{
closed = 1;
nodes = (
(167,23,o),
(126,171,o),
(174,382,cs),
(207,526,o),
(290,617,o),
(390,617,cs),
(495,617,o),
(536,469,o),
(488,258,cs),
(455,114,o),
(372,23,o),
(272,23,cs)
);
}
);
width = 614;
},
{
associatedMasterId = m01;
guides = (
{
angle = 180;
pos = (520,320);
},
{
angle = 270;
pos = (311,627);
}
);
layerId = "67A150A7-235D-4842-98C2-07EEA6082810";
name = "8 Nov 22, 14:01";
shapes = (
{
closed = 1;
nodes = (
(474,-12,o),
(565,107,o),
(565,320,cs),
(565,533,o),
(474,652,o),
(311,652,cs),
(148,652,o),
(57,533,o),
(57,320,cs),
(57,107,o),
(148,-12,o),
(311,-12,cs)
);
},
{
closed = 1;
nodes = (
(197,38,o),
(147,124,o),
(147,320,cs),
(147,516,o),
(197,602,o),
(311,602,cs),
(425,602,o),
(475,516,o),
(475,320,cs),
(475,124,o),
(425,38,o),
(311,38,cs)
);
}
);
width = 622;
},
{
associatedMasterId = m01;
layerId = "FF1479A2-40DB-4EF6-A86F-A18038DDA70F";
name = "8 Nov 22, 17:41";
shapes = (
{
closed = 1;
nodes = (
(463,-12,o),
(565,124,o),
(565,340,cs),
(565,540,o),
(478,652,o),
(321,652,cs),
(159,652,o),
(57,516,o),
(57,300,cs),
(57,100,o),
(144,-12,o),
(301,-12,cs)
);
},
{
closed = 1;
nodes = (
(197,38,o),
(147,133,o),
(147,350,cs),
(147,525,o),
(197,602,o),
(311,602,cs),
(425,602,o),
(475,507,o),
(475,290,cs),
(475,115,o),
(425,38,o),
(311,38,cs)
);
}
);
width = 622;
},
{
associatedMasterId = m01;
guides = (
{
angle = 180;
pos = (530,320);
},
{
angle = 270;
pos = (321,627);
}
);
layerId = "43F9E277-05D9-466E-B530-CA554ACB2F74";
name = "10 Dec 22, 12:34";
shapes = (
{
closed = 1;
nodes = (
(468,-16,o),
(582,132,o),
(582,320,cs),
(582,517,o),
(474,656,o),
(321,656,cs),
(174,656,o),
(60,508,o),
(60,320,cs),
(60,123,o),
(168,-16,o),
(321,-16,cs)
);
},
{
closed = 1;
nodes = (
(223,26,o),
(155,159,o),
(155,370,cs),
(155,527,o),
(211,614,o),
(311,614,cs),
(419,614,o),
(487,481,o),
(487,270,cs),
(487,113,o),
(431,26,o),
(331,26,cs)
);
}
);
width = 642;
}
);
metricLeft = "=o+20";
metricRight = "=o+20";
unicode = 48;
},
{
color = 8;
glyphname = one;
lastChange = "2022-12-18 03:55:35 +0000";
layers = (
{
layerId = m01;
shapes = (
{
closed = 1;
nodes = (
(235,598,l),
(107,44,l),
(127,75,l),
(-21,16,l),
(-25,0,l),
(300,0,l),
(305,21,l),
(181,68,l),
(185,44,l),
(322,638,l),
(309,646,l),
(98,552,l),
(99,527,l),
(256,527,l)
);
}
);
width = 390;
},
{
associatedMasterId = m01;
layerId = "58CA8A2E-D428-4569-A23C-79991AE432D1";
name = "10 Dec 22, 12:34";
shapes = (
{
closed = 1;
nodes = (
(392,0,l),
(392,21,l),
(250,68,l),
(266,44,l),
(266,598,l),
(178,598,l),
(178,44,l),
(192,75,l),
(50,16,l),
(50,0,l)
);
},
{
closed = 1;
nodes = (
(266,527,l),
(266,638,l),
(250,646,l),
(45,552,l),
(53,527,l)
);
}
);
width = 447;
}
);
metricLeft = "=n+15";
metricRight = "=n+35";
unicode = 49;
},
{
color = 8;
glyphname = two;
lastChange = "2022-12-18 03:45:34 +0000";
layers = (
{
associatedMasterId = m01;
layerId = "E8F16973-AC7B-4E03-AC8E-57DE4A40A6F3";
name = "20 Oct 22, 17:31";
shapes = (
{
closed = 1;
nodes = (
(327,602,o),
(373,542,o),
(373,447,cs),
(373,355,o),
(324,281,o),
(200,177,cs),
(32,36,l),
(41,0,l),
(472,0,l),
(502,190,l),
(473,198,l),
(407,88,l),
(129,88,l),
(156,80,l),
(221,138,ls),
(406,303,o),
(468,385,o),
(468,466,cs),
(468,575,o),
(380,652,o),
(254,652,cs),
(137,652,o),
(45,586,o),
(45,502,cs),
(45,449,o),
(75,415,o),
(124,415,cs),
(146,415,o),
(162,422,o),
(177,438,c),
(154,456,o),
(143,479,o),
(143,508,cs),
(143,566,o),
(186,602,o),
(254,602,cs)
);
}
);
width = 549;
},
{
associatedMasterId = m01;
layerId = "30F2564E-7A24-4FFA-BA31-29D37873272F";
name = "10 Nov 22, 08:22";
shapes = (
{
closed = 1;
nodes = (
(467,0,l),
(497,190,l),
(468,198,l),
(402,89,l),
(128,79,l),
(128,63,l),
(225,138,ls),
(407,278,o),
(467,363,o),
(467,476,cs),
(467,579,o),
(381,652,o),
(259,652,cs),
(173,652,o),
(107,620,o),
(42,547,c),
(91,442,l),
(126,452,l),
(121,547,l),
(152,581,o),
(188,596,o),
(240,596,cs),
(323,596,o),
(370,546,o),
(370,457,cs),
(370,357,o),
(325,280,o),
(205,180,cs),
(37,39,l),
(46,0,l)
);
}
);
width = 549;
},
{
associatedMasterId = m01;
layerId = "2DA2F512-AD91-4165-88AF-AAC94D76CC3E";
name = "12 Nov 22, 08:22";
shapes = (
{
closed = 1;
nodes = (
(467,0,l),
(497,190,l),
(468,198,l),
(402,89,l),
(128,79,l),
(128,63,l),
(225,138,ls),
(391,266,o),
(473,379,o),
(473,479,cs),
(473,581,o),
(385,652,o),
(259,652,cs),
(173,652,o),
(107,620,o),
(42,547,c),
(91,442,l),
(126,452,l),
(121,547,l),
(152,581,o),
(188,596,o),
(240,596,cs),
(327,596,o),
(376,547,o),
(376,460,cs),
(376,365,o),
(324,280,o),
(205,180,cs),
(37,39,l),
(46,0,l)
);
}
);
width = 549;
},
{
associatedMasterId = m01;
background = {
shapes = (
{
closed = 1;
nodes = (
(391,-12,o),
(485,116,o),
(485,320,cs),
(485,524,o),
(391,652,o),
(240,652,cs),
(89,652,o),
(-5,524,o),
(-5,320,cs),
(-5,116,o),
(89,-12,o),
(240,-12,cs)
);
},
{
closed = 1;
nodes = (
(147,33,o),
(90,154,o),
(90,370,cs),
(90,522,o),
(140,607,o),
(230,607,cs),
(333,607,o),
(390,486,o),
(390,270,cs),
(390,118,o),
(340,33,o),
(250,33,cs)
);
}
);
};
layerId = "11C5B729-E9E7-4D93-B199-2F53C1E9E3EF";
name = "19 Nov 22, 19:11";
shapes = (
{
closed = 1;
nodes = (
(437,0,l),
(460,170,l),
(449,173,l),
(368,89,l),
(126,79,l),
(126,60,l),
(224,150,ls),
(394,308,o),
(451,391,o),
(451,482,cs),
(451,582,o),
(365,652,o),
(242,652,cs),
(171,652,o),
(98,624,o),
(40,574,c),
(100,474,l),
(113,476,l),
(175,594,l),
(190,599,o),
(206,602,o),
(223,602,cs),
(302,602,o),
(357,544,o),
(357,462,cs),
(357,372,o),
(314,297,o),
(202,190,cs),
(51,46,l),
(65,0,l)
);
}
);
width = 515;
},
{
associatedMasterId = m01;
layerId = "4E7B70C4-D1B1-4142-B8F3-05139769D12E";
name = "10 Dec 22, 12:34";
shapes = (
{
closed = 1;
nodes = (
(475,0,l),
(496,174,l),
(482,174,l),
(406,85,l),
(132,75,l),
(124,55,l),
(222,142,ls),
(390,291,o),
(474,382,o),
(474,471,cs),
(474,580,o),
(386,656,o),
(260,656,cs),
(184,656,o),
(111,626,o),
(40,565,c),
(100,480,l),
(114,480,l),
(221,626,l),
(178,615,l),
(217,615,ls),
(314,615,o),
(375,554,o),
(375,456,cs),
(375,370,o),
(306,285,o),
(173,155,cs),
(50,34,l),
(64,0,l)
);
}
);
width = 536;
},
{
associatedMasterId = m01;
layerId = "665CA9D8-7A60-4907-BC6D-15A05CAE94E4";
name = "11 Dec 22, 11:13";
shapes = (
{
closed = 1;
nodes = (
(137,593,o),
(184,615,o),
(242,615,cs),
(307,615,o),
(362,554,o),
(362,456,cs),
(362,376,o),
(311,292,o),
(178,155,cs),
(61,34,l),
(74,0,l),
(465,0,l),
(483,146,l),
(469,146,l),
(382,80,l),
(139,80,l),
(131,55,l),
(224,142,ls),
(400,307,o),
(459,393,o),
(459,486,cs),
(459,581,o),
(372,656,o),
(260,656,cs),
(184,656,o),
(114,627,o),
(48,568,c),
(74,535,l)
);
}
);
width = 534;
},
{
layerId = m01;
name = Italic;
shapes = (
{
closed = 1;
nodes = (
(435,0,l),
(477,119,l),
(463,119,l),
(359,81,l),
(125,81,l),
(108,55,l),
(221,142,ls),
(406,285,o),
(496,384,o),
(516,467,cs),
(540,573,o),
(465,656,o),
(346,656,cs),
(274,656,o),
(198,626,o),
(116,565,c),
(160,506,l),
(174,506,l),
(298,626,l),
(258,619,l),
(296,619,ls),
(403,619,o),
(443,559,o),
(416,438,cs),
(399,368,o),
(321,274,o),
(178,155,cs),
(33,34,l),
(38,0,l)
);
}
);
width = 534;
}
);
metricLeft = "=o";
metricRight = "=o";
unicode = 50;
},
{
color = 8;
glyphname = three;
lastChange = "2022-12-11 10:45:00 +0000";
layers = (
{
associatedMasterId = m01;
layerId = "89574643-5EA2-408D-9E4B-350A7B556FCB";
name = "16 Oct 22, 14:05";
shapes = (
{
closed = 1;
nodes = (
(305,336,l),
(418,373,o),
(467,422,o),
(467,496,cs),
(467,583,o),
(375,652,o),
(258,652,cs),
(141,652,o),
(58,595,o),
(58,515,cs),
(58,462,o),
(84,433,o),
(131,433,cs),
(153,433,o),
(169,440,o),
(184,456,c),
(160,475,o),
(150,494,o),
(150,521,cs),
(150,571,o),
(192,602,o),
(258,602,cs),
(333,602,o),
(375,557,o),
(375,477,cs),
(375,408,o),
(321,365,o),
(234,365,c),
(213,319,l),
(317,308,o),
(383,252,o),
(383,174,cs),
(383,90,o),
(335,38,o),
(259,38,cs),
(188,38,o),
(143,74,o),
(143,132,cs),
(143,161,o),
(154,184,o),
(177,202,c),
(162,218,o),
(146,225,o),
(124,225,cs),
(75,225,o),
(45,191,o),
(45,138,cs),
(45,54,o),
(139,-12,o),
(259,-12,cs),
(386,-12,o),
(475,65,o),
(475,174,cs),
(475,263,o),
(423,317,o),
(305,353,c)
);
}
);
width = 600;
},
{
associatedMasterId = m01;
layerId = "FB14544B-D9C5-4701-B24B-CDE7B5B27F30";
name = "21 Oct 22, 20:33";
shapes = (
{
closed = 1;
nodes = (
(298,336,l),
(411,373,o),
(460,422,o),
(460,496,cs),
(460,583,o),
(368,652,o),
(251,652,cs),
(134,652,o),
(51,595,o),
(51,515,cs),
(51,462,o),
(77,433,o),
(124,433,cs),
(146,433,o),
(162,440,o),
(177,456,c),
(153,475,o),
(143,494,o),
(143,521,cs),
(143,571,o),
(185,602,o),
(251,602,cs),
(326,602,o),
(368,557,o),
(368,477,cs),
(368,408,o),
(314,365,o),
(227,365,c),
(206,319,l),
(310,308,o),
(376,252,o),
(376,174,cs),
(376,93,o),
(328,42,o),
(252,42,cs),
(177,42,o),
(130,77,o),
(130,132,cs),
(130,161,o),
(136,180,o),
(151,201,c),
(108,247,o),
(32,228,o),
(32,138,cs),
(32,54,o),
(129,-12,o),
(252,-12,cs),
(379,-12,o),
(468,65,o),
(468,174,cs),
(468,263,o),
(416,317,o),
(298,353,c)
);
}
);
width = 510;
},
{
associatedMasterId = m01;
layerId = "353F9390-28EC-446F-B1C7-137FBC44C02B";
name = "9 Nov 22, 21:14";
shapes = (
{
closed = 1;
nodes = (
(270,350,l),
(392,350,o),
(487,418,o),
(487,504,cs),
(487,592,o),
(400,652,o),
(289,652,cs),
(205,652,o),
(141,619,o),
(79,543,c),
(127,452,l),
(162,462,l),
(158,543,l),
(187,580,o),
(224,596,o),
(278,596,cs),
(350,596,o),
(390,561,o),
(390,497,cs),
(390,427,o),
(350,383,o),
(287,383,c)
);
},
{
closed = 1;
nodes = (
(407,76,o),
(358,33,o),
(260,33,cs),
(173,33,o),
(127,57,o),
(94,118,c),
(67,107,l),
(109,16,o),
(169,-12,o),
(260,-12,cs),
(394,-12,o),
(500,87,o),
(500,213,cs),
(500,300,o),
(429,338,o),
(287,383,c),
(251,314,l),
(350,288,o),
(407,231,o),
(407,163,cs)
);
}
);
width = 554;
},
{
associatedMasterId = m01;
layerId = "6052658F-4FA1-4590-94EE-50689D8CC4FA";
name = "10 Nov 22, 08:28";
shapes = (
{
closed = 1;
nodes = (
(52,72,l),
(112,11,o),
(164,-12,o),
(240,-12,cs),
(382,-12,o),
(494,81,o),
(494,200,cs),
(494,299,o),
(399,377,o),
(279,377,c),
(279,367,l),
(471,617,l),
(456,640,l),
(118,640,l),
(104,640,l),
(88,472,l),
(123,461,l),
(161,559,l),
(424,567,l),
(402,587,l),
(211,364,l),
(224,323,l),
(337,323,o),
(400,267,o),
(400,167,cs),
(400,89,o),
(337,34,o),
(247,34,cs),
(181,34,o),
(138,50,o),
(73,97,c)
);
}
);
width = 541;
},
{
background = {
shapes = (
{
closed = 0;
nodes = (
(256,28,ls),
(214,28,l),
(273,10,l),
(168,159,l),
(154,159,l),
(94,62,l),
(152,12,o),
(225,-16,o),
(296,-16,cs)
);
}
);
};
layerId = m01;
name = Regular;
shapes = (
{
closed = 1;
nodes = (
(332,-16,o),
(438,67,o),
(465,185,cs),
(489,288,o),
(410,361,o),
(275,361,c),
(269,348,l),
(378,348,o),
(478,416,o),
(498,503,cs),
(518,589,o),
(446,656,o),
(335,656,cs),
(264,656,o),
(193,628,o),
(134,578,c),
(165,526,l),
(178,526,l),
(292,630,l),
(244,620,l),
(284,620,ls),
(385,620,o),
(436,572,o),
(418,495,cs),
(401,417,o),
(354,378,o),
(276,378,cs),
(257,378,l),
(243,369,l),
(223,318,l),
(230,318,l),
(337,318,o),
(397,254,o),
(376,162,cs),
(355,74,o),
(284,19,o),
(193,19,cs),
(140,19,l),
(193,10,l),
(95,127,l),
(82,127,l),
(30,62,l),
(74,8,o),
(128,-16,o),
(209,-16,cs)
);
}
);
width = 517;
},
{
associatedMasterId = m01;
layerId = "09A264C8-1A52-4910-B58A-E4678CEEF4F8";
name = "10 Nov 22, 08:47";
shapes = (
{
closed = 1;
nodes = (
(404,-12,o),
(507,81,o),
(507,199,cs),
(507,303,o),
(407,374,o),
(249,384,c),
(233,322,l),
(348,314,o),
(413,260,o),
(413,172,cs),
(413,92,o),
(357,41,o),
(269,41,cs),
(187,41,o),
(134,81,o),
(122,153,cs),
(113,207,l),
(86,212,l),
(52,86,l),
(111,20,o),
(184,-12,o),
(273,-12,cs)
);
},
{
closed = 1;
nodes = (
(389,382,o),
(459,435,o),
(459,516,cs),
(459,596,o),
(385,652,o),
(279,652,cs),
(200,652,o),
(139,622,o),
(79,554,c),
(124,458,l),
(156,466,l),
(158,554,l),
(187,585,o),
(221,598,o),
(271,598,cs),
(331,598,o),
(369,563,o),
(369,508,cs),
(369,444,o),
(323,396,o),
(249,384,c),
(249,357,l)
);
}
);
width = 554;
},
{
associatedMasterId = m01;
layerId = "140DFE97-948A-4A5A-ADC4-EAF523F48278";
name = "12 Nov 22, 08:44";
shapes = (
{
closed = 1;
nodes = (
(395,-12,o),
(496,80,o),
(496,198,cs),
(496,293,o),
(405,359,o),
(259,368,cs),
(226,370,l),
(219,327,l),
(252,325,ls),
(344,319,o),
(402,261,o),
(402,172,cs),
(402,92,o),
(350,41,o),
(266,41,cs),
(182,41,o),
(134,78,o),
(122,153,cs),
(113,207,l),
(86,212,l),
(52,86,l),
(113,18,o),
(179,-12,o),
(267,-12,cs)
);
},
{
closed = 1;
nodes = (
(377,366,o),
(454,432,o),
(454,516,cs),
(454,596,o),
(375,652,o),
(269,652,cs),
(190,652,o),
(129,622,o),
(69,554,c),
(114,458,l),
(146,466,l),
(148,554,l),
(177,585,o),
(211,598,o),
(261,598,cs),
(322,598,o),
(364,563,o),
(364,508,cs),
(364,434,o),
(315,385,o),
(226,370,c),
(255,343,l)
);
}
);
width = 543;
},
{
associatedMasterId = m01;
layerId = "00AEBF72-1542-424B-9EC0-28CF3D5749A4";
name = "12 Nov 22, 09:01";
shapes = (
{
closed = 1;
nodes = (
(395,-12,o),
(496,80,o),
(496,198,cs),
(496,293,o),
(405,359,o),
(259,368,cs),
(226,370,l),
(219,327,l),
(252,325,ls),
(344,319,o),
(402,261,o),
(402,172,cs),
(402,92,o),
(350,41,o),
(266,41,cs),
(182,41,o),
(134,78,o),
(122,153,cs),
(113,207,l),
(86,212,l),
(52,86,l),
(113,18,o),
(179,-12,o),
(267,-12,cs)
);
},
{
closed = 1;
nodes = (
(377,366,o),
(454,432,o),
(454,516,cs),
(454,596,o),
(375,652,o),
(269,652,cs),
(190,652,o),
(129,622,o),
(69,554,c),
(114,458,l),
(146,466,l),
(148,554,l),
(177,585,o),
(211,598,o),
(261,598,cs),
(322,598,o),
(364,563,o),
(364,508,cs),
(364,434,o),
(315,385,o),
(226,370,c),
(255,343,l)
);
}
);
width = 543;
},
{
associatedMasterId = m01;
background = {
shapes = (
{
closed = 1;
nodes = (
(42,640,l),
(12,450,l),
(41,442,l),
(107,551,l),
(353,561,l),
(353,580,l),
(265,490,ls),
(95,316,o),
(38,230,o),
(38,148,cs),
(38,54,o),
(120,-12,o),
(237,-12,cs),
(309,-12,o),
(375,20,o),
(436,86,c),
(391,174,l),
(356,164,l),
(362,76,l),
(331,54,o),
(299,44,o),
(256,44,cs),
(180,44,o),
(132,92,o),
(132,168,cs),
(132,261,o),
(175,341,o),
(287,455,cs),
(428,599,l),
(414,640,l)
);
}
);
};
layerId = "34656BCF-7070-48D1-8EC9-6C2198993444";
name = "19 Nov 22, 16:53";
shapes = (
{
closed = 1;
nodes = (
(384,376,o),
(431,442,o),
(431,506,cs),
(431,592,o),
(362,652,o),
(263,652,cs),
(186,652,o),
(117,622,o),
(72,567,c),
(110,486,l),
(145,496,l),
(138,571,l),
(176,593,o),
(202,600,o),
(244,600,cs),
(303,600,o),
(349,552,o),
(349,490,cs),
(349,418,o),
(309,376,o),
(237,373,c),
(217,373,l),
(206,322,l),
(302,317,o),
(370,251,o),
(370,163,cs),
(370,80,o),
(324,33,o),
(241,33,cs),
(180,33,o),
(139,61,o),
(127,110,cs),
(115,161,l),
(85,166,l),
(59,57,l),
(88,16,o),
(163,-12,o),
(241,-12,cs),
(366,-12,o),
(464,72,o),
(464,179,cs),
(464,257,o),
(400,335,o),
(318,356,c)
);
}
);
width = 518;
},
{
associatedMasterId = m01;
background = {
shapes = (
{
closed = 0;
nodes = (
(221,28,ls),
(179,28,l),
(238,10,l),
(133,159,l),
(119,159,l),
(59,62,l),
(117,12,o),
(190,-16,o),
(261,-16,cs)
);
}
);
};
layerId = "D352B18B-6583-4F9C-AD5E-AAD23A68C500";
name = "2 Dec 22, 10:07";
shapes = (
{
closed = 1;
nodes = (
(381,-16,o),
(480,72,o),
(480,185,cs),
(480,288,o),
(376,360,o),
(227,360,c),
(227,352,l),
(369,352,o),
(449,411,o),
(449,516,cs),
(449,598,o),
(374,656,o),
(267,656,cs),
(194,656,o),
(127,630,o),
(67,578,c),
(122,491,l),
(136,491,l),
(235,630,l),
(179,615,l),
(221,615,ls),
(306,615,o),
(354,572,o),
(354,495,cs),
(354,423,o),
(305,378,o),
(227,378,cs),
(198,378,l),
(194,369,l),
(205,312,l),
(227,312,l),
(320,312,o),
(379,254,o),
(379,162,cs),
(379,77,o),
(322,24,o),
(230,24,cs),
(174,24,l),
(234,10,l),
(124,156,l),
(110,156,l),
(55,62,l),
(115,10,o),
(182,-16,o),
(255,-16,cs)
);
}
);
width = 530;
},
{
associatedMasterId = m01;
background = {
shapes = (
{
closed = 0;
nodes = (
(231,28,ls),
(189,28,l),
(248,10,l),
(143,159,l),
(129,159,l),
(69,62,l),
(127,12,o),
(200,-16,o),
(271,-16,cs)
);
}
);
};
layerId = "90184515-91BA-486D-AE0F-F69D861E73E9";
name = "10 Dec 22, 12:34";
shapes = (
{
closed = 1;
nodes = (
(390,-16,o),
(488,72,o),
(488,185,cs),
(488,288,o),
(384,360,o),
(237,360,c),
(237,348,l),
(373,348,o),
(459,413,o),
(459,516,cs),
(459,598,o),
(379,656,o),
(265,656,cs),
(194,656,o),
(114,626,o),
(59,578,c),
(111,499,l),
(125,499,l),
(227,630,l),
(171,615,l),
(213,615,ls),
(306,615,o),
(364,569,o),
(364,495,cs),
(364,423,o),
(315,378,o),
(237,378,cs),
(208,378,l),
(200,367,l),
(215,312,l),
(237,312,l),
(330,312,o),
(389,254,o),
(389,162,cs),
(389,77,o),
(322,24,o),
(230,24,cs),
(174,24,l),
(234,10,l),
(124,147,l),
(110,147,l),
(55,62,l),
(114,8,o),
(178,-16,o),
(265,-16,cs)
);
}
);
width = 538;
}
);
metricLeft = "=o+15";
metricRight = "=o+10";
unicode = 51;
},
{
color = 8;
glyphname = four;
lastChange = "2022-12-18 03:55:45 +0000";
layers = (
{
layerId = m01;
shapes = (
{
closed = 1;
nodes = (
(490,152,l),
(516,226,l),
(57,196,l),
(72,184,l),
(451,623,l),
(445,640,l),
(342,640,l),
(25,173,l),
(33,152,l)
);
},
{
closed = 1;
nodes = (
(411,0,l),
(416,22,l),
(333,59,l),
(337,35,l),
(419,390,l),
(411,395,l),
(332,354,l),
(296,197,l),
(259,35,l),
(279,66,l),
(161,16,l),
(158,0,l)
);
}
);
width = 548;
},
{
associatedMasterId = m01;
layerId = "3B93D78B-70C9-4765-8E62-C00A48EF6066";
name = "2 Dec 22, 10:12";
shapes = (
{
closed = 1;
nodes = (
(512,152,l),
(521,226,l),
(68,196,l),
(85,184,l),
(367,623,l),
(357,640,l),
(263,640,l),
(40,173,l),
(54,152,l)
);
},
{
closed = 1;
nodes = (
(463,0,l),
(463,22,l),
(369,59,l),
(385,35,l),
(385,390,l),
(375,395,l),
(297,354,l),
(297,197,l),
(297,35,l),
(311,66,l),
(199,16,l),
(199,0,l)
);
}
);
width = 561;
},
{
associatedMasterId = m01;
layerId = "E92714DB-58F4-4D07-8E98-27968F653967";
name = "10 Dec 22, 12:34";
shapes = (
{
closed = 1;
nodes = (
(525,152,l),
(534,226,l),
(68,196,l),
(85,184,l),
(380,623,l),
(370,640,l),
(276,640,l),
(40,173,l),
(54,152,l)
);
},
{
closed = 1;
nodes = (
(479,0,l),
(479,22,l),
(382,59,l),
(398,35,l),
(398,390,l),
(388,395,l),
(310,354,l),
(310,197,l),
(310,35,l),
(324,66,l),
(212,16,l),
(212,0,l)
);
}
);
width = 574;
}
);
metricLeft = "=o";
metricRight = "=o";
unicode = 52;
},
{
color = 8;
glyphname = five;
lastChange = "2022-12-11 10:45:00 +0000";
layers = (
{
associatedMasterId = m01;
layerId = "05AF4FA1-93A4-40AD-AB0F-DC68048F0424";
name = "8 Nov 22, 20:25";
shapes = (
{
closed = 1;
nodes = (
(399,-12,o),
(499,74,o),
(499,184,cs),
(499,303,o),
(405,387,o),
(271,387,cs),
(231,387,o),
(205,385,o),
(167,377,c),
(177,560,l),
(450,549,l),
(477,652,l),
(447,652,l),
(133,640,l),
(106,328,l),
(157,319,l),
(201,330,o),
(230,333,o),
(271,333,cs),
(354,333,o),
(406,276,o),
(406,184,cs),
(406,97,o),
(354,42,o),
(271,42,cs),
(180,42,o),
(135,76,o),
(122,153,cs),
(110,222,l),
(76,218,l),
(52,86,l),
(116,18,o),
(183,-12,o),
(271,-12,cs)
);
}
);
width = 546;
},
{
associatedMasterId = m01;
layerId = "5CBAC92A-F115-40F6-9821-36F86FE4FBE3";
name = "10 Nov 22, 07:59";
shapes = (
{
closed = 1;
nodes = (
(124,411,l),
(329,448,o),
(483,366,o),
(483,212,cs),
(483,80,o),
(380,-12,o),
(247,-12,cs),
(157,-12,o),
(77,31,o),
(52,91,c),
(75,113,l),
(112,64,o),
(176,37,o),
(253,37,cs),
(337,37,o),
(389,84,o),
(389,180,cs),
(389,309,o),
(286,362,o),
(119,328,c),
(103,348,l),
(128,640,l),
(428,652,l),
(458,652,l),
(431,549,l),
(162,560,l),
(145,354,l)
);
}
);
width = 530;
},
{
associatedMasterId = m01;
layerId = "376FEAFE-BAA6-453B-8F18-ADC27004F14D";
name = "10 Nov 22, 08:09";
shapes = (
{
closed = 0;
nodes = (
(100,328,l),
(84,348,l),
(109,640,l),
(409,652,l),
(439,652,l),
(412,549,l),
(143,560,l),
(126,354,l),
(105,411,l)
);
},
{
closed = 0;
nodes = (
(259,338,ls),
(346,338,o),
(394,280,o),
(394,177,cs),
(394,87,o),
(342,33,o),
(238,33,cs),
(175,33,o),
(131,42,o),
(62,67,c),
(52,30,l),
(108,0,o),
(164,-12,o),
(256,-12,cs),
(383,-12,o),
(482,91,o),
(482,210,cs),
(482,319,o),
(399,395,o),
(280,395,cs)
);
}
);
width = 539;
},
{
background = {
shapes = (
{
closed = 1;
nodes = (
(317,-16,o),
(423,67,o),
(450,185,cs),
(474,288,o),
(395,361,o),
(260,361,c),
(254,348,l),
(364,348,o),
(467,422,o),
(489,516,cs),
(507,594,o),
(434,656,o),
(323,656,cs),
(252,656,o),
(178,628,o),
(119,578,c),
(150,526,l),
(163,526,l),
(277,630,l),
(229,620,l),
(269,620,ls),
(370,620,o),
(421,572,o),
(403,495,cs),
(386,417,o),
(339,378,o),
(261,378,cs),
(242,378,l),
(228,369,l),
(208,318,l),
(215,318,l),
(322,318,o),
(382,254,o),
(361,162,cs),
(340,74,o),
(269,19,o),
(178,19,cs),
(125,19,l),
(178,10,l),
(80,127,l),
(67,127,l),
(15,62,l),
(59,8,o),
(113,-16,o),
(194,-16,cs)
);
}
);
};
guides = (
{
angle = 264.4368;
pos = (154,486);
}
);
layerId = m01;
name = Regular;
shapes = (
{
closed = 1;
nodes = (
(318,-16,o),
(424,67,o),
(451,185,cs),
(479,308,o),
(361,405,o),
(182,405,c),
(187,370,l),
(254,564,l),
(489,564,l),
(514,667,l),
(501,667,l),
(415,640,l),
(238,640,l),
(142,361,l),
(155,343,l),
(308,343,o),
(389,277,o),
(365,172,cs),
(343,78,o),
(271,19,o),
(177,19,cs),
(124,19,l),
(178,10,l),
(79,126,l),
(66,126,l),
(15,62,l),
(59,8,o),
(113,-16,o),
(194,-16,cs)
);
}
);
width = 503;
},
{
associatedMasterId = m01;
layerId = "9FA62583-6661-46DC-A72E-18771394C3E4";
name = "12 Nov 22, 10:58";
shapes = (
{
closed = 1;
nodes = (
(400,-12,o),
(502,87,o),
(502,213,cs),
(502,323,o),
(405,401,o),
(267,401,cs),
(218,401,o),
(180,392,o),
(143,373,c),
(151,360,l),
(170,560,l),
(445,555,l),
(463,652,l),
(433,652,l),
(130,640,l),
(100,332,l),
(131,316,l),
(175,336,o),
(205,343,o),
(251,343,cs),
(343,343,o),
(408,278,o),
(408,186,cs),
(408,93,o),
(357,41,o),
(267,41,cs),
(178,41,o),
(134,72,o),
(122,143,cs),
(110,212,l),
(81,217,l),
(52,76,l),
(105,17,o),
(178,-12,o),
(271,-12,cs)
);
}
);
width = 559;
},
{
associatedMasterId = m01;
guides = (
{
angle = 264.4368;
pos = (122,486);
}
);
layerId = "91B90DEB-C6F4-4F1B-B994-047E1F4DC65D";
name = "30 Nov 22, 19:45";
shapes = (
{
closed = 1;
nodes = (
(377,-12,o),
(474,73,o),
(474,195,cs),
(474,307,o),
(389,396,o),
(281,396,cs),
(226,396,o),
(186,385,o),
(152,360,c),
(158,355,l),
(177,560,l),
(419,555,l),
(437,652,l),
(407,652,l),
(137,640,l),
(108,333,l),
(140,309,l),
(178,331,o),
(207,338,o),
(257,338,c),
(341,335,o),
(380,282,o),
(380,175,cs),
(380,80,o),
(337,38,o),
(239,38,cs),
(222,38,o),
(208,40,o),
(191,46,c),
(129,164,l),
(116,166,l),
(55,65,l),
(102,18,o),
(173,-12,o),
(238,-12,cs)
);
}
);
width = 534;
},
{
associatedMasterId = m01;
guides = (
{
angle = 264.4368;
pos = (140,486);
}
);
layerId = "F8A7F663-D0CC-43FB-B0BB-FAA89A16FC5B";
name = "10 Dec 22, 12:34";
shapes = (
{
closed = 1;
nodes = (
(384,-16,o),
(500,79,o),
(500,200,cs),
(500,317,o),
(405,391,o),
(254,391,cs),
(209,391,o),
(167,382,o),
(127,363,c),
(150,348,l),
(170,567,l),
(456,567,l),
(473,697,l),
(459,697,l),
(350,656,l),
(130,640,l),
(106,345,l),
(127,318,l),
(166,335,o),
(204,342,o),
(251,342,cs),
(342,342,o),
(399,278,o),
(399,177,cs),
(399,87,o),
(329,24,o),
(230,24,cs),
(174,24,l),
(234,10,l),
(124,147,l),
(110,147,l),
(55,62,l),
(115,6,o),
(166,-16,o),
(236,-16,cs)
);
}
);
width = 550;
}
);
metricLeft = "=o+15";
metricRight = "=o+10";
unicode = 53;
},
{
color = 8;
glyphname = six;
lastChange = "2022-12-11 10:45:00 +0000";
layers = (
{
layerId = m01;
shapes = (
{
closed = 1;
nodes = (
(329,-16,o),
(441,74,o),
(467,189,cs),
(493,299,o),
(432,385,o),
(329,385,cs),
(262,385,o),
(207,359,o),
(147,299,c),
(143,254,l),
(188,306,o),
(236,332,o),
(286,332,cs),
(365,332,o),
(405,270,o),
(384,177,cs),
(359,71,o),
(306,19,o),
(224,19,cs),
(144,19,o),
(114,106,o),
(147,245,cs),
(195,458,o),
(293,562,o),
(498,620,c),
(498,656,l),
(289,615,o),
(110,450,o),
(65,257,cs),
(28,97,o),
(89,-16,o),
(213,-16,cs)
);
}
);
width = 528;
},
{
associatedMasterId = m01;
guides = (
{
pos = (-19,399);
}
);
layerId = "C87FAABE-606F-440E-A651-63066C10FD0D";
name = "21 Oct 22, 21:11";
shapes = (
{
closed = 1;
nodes = (
(368,602,o),
(398,578,o),
(398,531,cs),
(398,508,o),
(391,496,o),
(374,486,c),
(386,454,o),
(401,442,o),
(428,442,cs),
(467,442,o),
(492,471,o),
(492,517,cs),
(492,596,o),
(416,652,o),
(308,652,cs),
(158,652,o),
(52,508,o),
(52,302,cs),
(52,92,o),
(137,-12,o),
(308,-12,cs),
(432,-12,o),
(524,83,o),
(524,204,cs),
(524,315,o),
(428,399,o),
(318,399,c),
(251,399,o),
(180,361,o),
(134,301,c),
(145,256,l),
(184,320,o),
(243,348,o),
(318,348,cs),
(388,348,o),
(433,292,o),
(433,204,cs),
(433,105,o),
(376,42,o),
(300,42,cs),
(193,42,o),
(146,121,o),
(146,302,cs),
(146,511,o),
(202,602,o),
(308,602,cs)
);
}
);
width = 576;
},
{
associatedMasterId = m01;
guides = (
{
pos = (-14,399);
}
);
layerId = "4588DE95-373F-4717-B4CD-57DE5C2B0417";
name = "8 Nov 22, 18:02";
shapes = (
{
closed = 1;
nodes = (
(434,-12,o),
(531,84,o),
(531,206,cs),
(531,318,o),
(440,396,o),
(311,396,cs),
(242,396,o),
(187,371,o),
(129,313,c),
(141,246,l),
(185,313,o),
(236,343,o),
(311,343,cs),
(387,343,o),
(441,286,o),
(441,206,cs),
(441,96,o),
(398,41,o),
(311,41,cs),
(197,41,o),
(147,126,o),
(147,320,cs),
(147,505,o),
(201,596,o),
(311,596,cs),
(372,596,o),
(407,574,o),
(426,525,cs),
(450,463,l),
(484,467,l),
(502,594,l),
(451,634,o),
(393,652,o),
(311,652,cs),
(162,652,o),
(57,515,o),
(57,320,cs),
(57,98,o),
(141,-12,o),
(311,-12,cs)
);
}
);
width = 588;
},
{
associatedMasterId = m01;
layerId = "D826A0C9-CE70-4198-A36E-75969B3BC3D8";
name = "8 Nov 22, 20:13";
shapes = (
{
closed = 1;
nodes = (
(139,315,l),
(187,351,o),
(220,363,o),
(273,363,cs),
(358,363,o),
(405,298,o),
(405,182,cs),
(405,82,o),
(366,33,o),
(286,33,cs),
(193,33,o),
(147,112,o),
(147,271,cs),
(147,471,o),
(214,557,o),
(416,616,c),
(407,652,l),
(192,610,o),
(57,458,o),
(57,257,cs),
(57,92,o),
(139,-12,o),
(270,-12,cs),
(402,-12,o),
(495,82,o),
(495,215,cs),
(495,332,o),
(409,415,o),
(286,415,cs),
(226,415,o),
(180,398,o),
(135,358,c)
);
}
);
width = 552;
},
{
associatedMasterId = m01;
layerId = "BA93EF45-35FE-4DF0-9F73-58087522A4AD";
name = "30 Nov 22, 19:58";
shapes = (
{
closed = 1;
nodes = (
(404,-12,o),
(500,81,o),
(500,200,cs),
(500,309,o),
(415,385,o),
(295,385,cs),
(224,385,o),
(175,357,o),
(135,294,c),
(141,258,l),
(165,303,o),
(213,328,o),
(274,328,cs),
(361,328,o),
(409,270,o),
(409,167,cs),
(409,82,o),
(364,35,o),
(283,35,cs),
(203,35,o),
(153,116,o),
(153,245,cs),
(153,465,o),
(219,558,o),
(417,616,c),
(408,652,l),
(194,610,o),
(60,457,o),
(60,257,cs),
(60,84,o),
(139,-12,o),
(281,-12,cs)
);
}
);
width = 560;
},
{
associatedMasterId = m01;
background = {
shapes = (
{
closed = 1;
nodes = (
(404,-12,o),
(507,99,o),
(507,240,cs),
(507,353,o),
(426,442,o),
(323,442,cs),
(270,442,o),
(230,422,o),
(164,362,c),
(151,362,l),
(151,307,l),
(194,356,o),
(238,378,o),
(293,378,cs),
(371,378,o),
(420,311,o),
(420,205,cs),
(420,98,o),
(365,31,o),
(277,31,cs),
(199,31,o),
(160,55,o),
(124,128,c),
(124,28,l),
(163,1,o),
(213,-12,o),
(273,-12,cs)
);
},
{
closed = 1;
nodes = (
(92,-8,l),
(157,56,l),
(164,56,l),
(164,362,l),
(159,362,l),
(166,541,l),
(166,735,l),
(143,735,l),
(13,679,l),
(13,666,l),
(117,588,l),
(80,662,l),
(80,-8,l)
);
}
);
};
layerId = "1FD5123C-04B2-4448-95B2-A30B03EAF1BB";
name = "2 Dec 22, 10:30";
shapes = (
{
closed = 1;
nodes = (
(404,-16,o),
(499,83,o),
(499,210,cs),
(499,313,o),
(419,385,o),
(306,385,cs),
(245,385,o),
(193,359,o),
(136,299,c),
(142,254,l),
(173,301,o),
(221,328,o),
(275,328,cs),
(355,328,o),
(405,270,o),
(405,177,cs),
(405,74,o),
(365,23,o),
(284,23,cs),
(204,23,o),
(159,103,o),
(159,245,cs),
(159,463,o),
(231,557,o),
(448,620,c),
(439,656,l),
(216,612,o),
(60,447,o),
(60,257,cs),
(60,82,o),
(140,-16,o),
(282,-16,cs)
);
}
);
width = 559;
},
{
associatedMasterId = m01;
layerId = "CFE935DB-9F73-4B54-BDDB-2E297EB5B4FF";
name = "10 Dec 22, 12:34";
shapes = (
{
closed = 1;
nodes = (
(411,-16,o),
(509,83,o),
(509,210,cs),
(509,313,o),
(427,385,o),
(311,385,cs),
(250,385,o),
(198,359,o),
(141,299,c),
(147,254,l),
(179,301,o),
(227,328,o),
(280,328,cs),
(363,328,o),
(415,270,o),
(415,177,cs),
(415,78,o),
(370,23,o),
(289,23,cs),
(206,23,o),
(159,103,o),
(159,245,cs),
(159,463,o),
(236,557,o),
(453,620,c),
(444,656,l),
(221,612,o),
(60,447,o),
(60,257,cs),
(60,82,o),
(141,-16,o),
(287,-16,cs)
);
}
);
width = 569;
}
);
metricLeft = "=o+20";
metricRight = "=o+20";
unicode = 54;
},
{
color = 8;
glyphname = seven;
lastChange = "2022-12-18 03:55:55 +0000";
layers = (
{
background = {
shapes = (
{
closed = 1;
nodes = (
(75,640,l),
(54,466,l),
(68,466,l),
(144,555,l),
(418,565,l),
(426,585,l),
(328,498,ls),
(160,349,o),
(76,258,o),
(76,169,cs),
(76,60,o),
(164,-16,o),
(290,-16,cs),
(366,-16,o),
(439,14,o),
(510,75,c),
(450,160,l),
(436,160,l),
(329,14,l),
(372,25,l),
(333,25,ls),
(236,25,o),
(175,86,o),
(175,184,cs),
(175,270,o),
(244,355,o),
(377,485,cs),
(500,606,l),
(486,640,l)
);
}
);
};
layerId = m01;
shapes = (
{
closed = 1;
nodes = (
(203,0,l),
(553,606,l),
(551,640,l),
(159,640,l),
(146,632,l),
(118,510,l),
(131,510,l),
(220,560,l),
(502,560,l),
(503,587,l),
(100,11,l),
(106,0,l)
);
}
);
width = 498;
},
{
associatedMasterId = m01;
layerId = "BD20D215-7984-4E34-AB05-C7C80A210B5A";
name = "10 Dec 22, 12:34";
shapes = (
{
closed = 1;
nodes = (
(272,0,l),
(482,617,l),
(467,640,l),
(62,649,l),
(55,645,l),
(87,499,l),
(101,499,l),
(184,567,l),
(435,567,l),
(428,587,l),
(164,11,l),
(172,0,l)
);
}
);
width = 484;
}
);
metricLeft = "=o+15";
metricRight = "=v";
unicode = 55;
},
{
color = 8;
glyphname = eight;
lastChange = "2022-12-11 10:45:00 +0000";
layers = (
{
associatedMasterId = m01;
layerId = "D1D4BDAE-2399-4C1C-ABF4-2AF710EE8D90";
name = "1 Dec 22, 06:44";
shapes = (
{
closed = 1;
nodes = (
(399,-16,o),
(494,82,o),
(494,206,cs),
(494,377,o),
(187,388,o),
(187,523,cs),
(187,578,o),
(219,616,o),
(285,616,cs),
(346,616,o),
(379,564,o),
(379,501,cs),
(379,427,o),
(347,396,o),
(296,360,c),
(299,333,l),
(397,389,o),
(459,437,o),
(459,501,cs),
(459,596,o),
(392,656,o),
(285,656,cs),
(179,656,o),
(105,594,o),
(105,506,cs),
(105,304,o),
(406,336,o),
(406,164,cs),
(406,74,o),
(360,24,o),
(278,24,cs),
(203,24,o),
(161,75,o),
(161,166,cs),
(161,230,o),
(201,306,o),
(269,341,c),
(258,372,l),
(133,316,o),
(77,233,o),
(77,145,cs),
(77,46,o),
(155,-16,o),
(278,-16,cs)
);
}
);
width = 547;
},
{
associatedMasterId = m01;
layerId = "FD2DF186-37C4-4650-B4DB-155EE1BE8F51";
name = "1 Dec 22, 06:44";
shapes = (
{
closed = 1;
nodes = (
(399,-16,o),
(494,82,o),
(494,206,cs),
(494,377,o),
(187,388,o),
(187,523,cs),
(187,578,o),
(219,616,o),
(285,616,cs),
(346,616,o),
(379,564,o),
(379,501,cs),
(379,427,o),
(347,396,o),
(296,360,c),
(299,333,l),
(397,389,o),
(459,437,o),
(459,501,cs),
(459,596,o),
(392,656,o),
(285,656,cs),
(179,656,o),
(105,594,o),
(105,506,cs),
(105,304,o),
(406,336,o),
(406,164,cs),
(406,74,o),
(360,24,o),
(278,24,cs),
(203,24,o),
(161,75,o),
(161,166,cs),
(161,230,o),
(201,306,o),
(269,341,c),
(258,372,l),
(133,316,o),
(77,233,o),
(77,145,cs),
(77,46,o),
(155,-16,o),
(278,-16,cs)
);
}
);
width = 547;
},
{
background = {
shapes = (
{
closed = 1;
nodes = (
(317,-16,o),
(425,66,o),
(449,170,cs),
(492,354,o),
(199,366,o),
(232,511,cs),
(248,580,o),
(290,618,o),
(350,618,cs),
(406,618,o),
(434,570,o),
(418,501,cs),
(402,433,o),
(371,388,o),
(315,352,c),
(313,321,l),
(428,382,o),
(478,432,o),
(494,501,cs),
(515,592,o),
(460,656,o),
(359,656,cs),
(261,656,o),
(167,583,o),
(145,491,cs),
(102,301,o),
(393,298,o),
(359,152,cs),
(340,69,o),
(287,23,o),
(212,23,cs),
(142,23,o),
(100,83,o),
(118,159,cs),
(136,239,o),
(179,294,o),
(259,340,c),
(284,381,l),
(139,319,o),
(57,247,o),
(38,162,cs),
(13,55,o),
(76,-16,o),
(203,-16,cs)
);
}
);
};
layerId = m01;
name = Regular;
shapes = (
{
closed = 1;
nodes = (
(314,-16,o),
(419,61,o),
(442,160,cs),
(486,348,o),
(194,371,o),
(229,521,cs),
(244,583,o),
(290,622,o),
(350,622,cs),
(406,622,o),
(434,572,o),
(418,501,cs),
(402,433,o),
(371,388,o),
(315,352,c),
(313,321,l),
(415,375,o),
(474,435,o),
(489,501,cs),
(509,588,o),
(452,656,o),
(359,656,cs),
(264,656,o),
(173,587,o),
(153,500,cs),
(113,326,o),
(401,310,o),
(362,142,cs),
(344,66,o),
(287,19,o),
(212,19,cs),
(141,19,o),
(100,81,o),
(118,159,cs),
(136,239,o),
(179,294,o),
(259,340,c),
(284,381,l),
(148,323,o),
(61,244,o),
(43,162,cs),
(20,62,o),
(90,-16,o),
(203,-16,cs)
);
}
);
width = 510;
},
{
associatedMasterId = m01;
layerId = "2E853EDA-2478-4EB9-8C37-CD6A7C81A4FA";
name = "1 Dec 22, 06:44";
shapes = (
{
closed = 1;
nodes = (
(395,-12,o),
(487,64,o),
(487,160,cs),
(487,242,o),
(429,305,o),
(278,387,cs),
(215,421,o),
(187,459,o),
(187,511,cs),
(187,571,o),
(220,604,o),
(278,604,cs),
(339,604,o),
(378,564,o),
(378,501,cs),
(378,434,o),
(356,388,o),
(306,352,c),
(312,321,l),
(418,382,o),
(458,432,o),
(458,501,cs),
(458,590,o),
(384,652,o),
(278,652,cs),
(179,652,o),
(101,581,o),
(101,491,cs),
(101,419,o),
(143,363,o),
(239,307,cs),
(352,242,o),
(396,197,o),
(396,142,cs),
(396,76,o),
(354,39,o),
(278,39,cs),
(200,39,o),
(145,89,o),
(145,159,cs),
(145,239,o),
(177,294,o),
(250,340,c),
(267,381,l),
(129,319,o),
(60,247,o),
(60,162,cs),
(60,55,o),
(144,-12,o),
(278,-12,cs)
);
}
);
width = 547;
},
{
associatedMasterId = m01;
layerId = "F0F20396-0883-483B-AADB-130EA19A2ED3";
name = "10 Dec 22, 12:35";
shapes = (
{
closed = 1;
nodes = (
(398,-16,o),
(492,66,o),
(492,170,cs),
(492,354,o),
(180,366,o),
(180,511,cs),
(180,580,o),
(215,618,o),
(278,618,cs),
(337,618,o),
(378,570,o),
(378,501,cs),
(378,433,o),
(356,388,o),
(306,352,c),
(312,321,l),
(418,382,o),
(458,432,o),
(458,501,cs),
(458,592,o),
(384,656,o),
(278,656,cs),
(175,656,o),
(94,583,o),
(94,491,cs),
(94,301,o),
(401,298,o),
(401,152,cs),
(401,69,o),
(357,23,o),
(278,23,cs),
(204,23,o),
(145,83,o),
(145,159,cs),
(145,239,o),
(177,294,o),
(250,340,c),
(267,381,l),
(129,319,o),
(60,247,o),
(60,162,cs),
(60,55,o),
(144,-16,o),
(278,-16,cs)
);
}
);
width = 552;
}
);
metricLeft = "=o+20";
metricRight = "=o+20";
unicode = 56;
},
{
color = 8;
glyphname = nine;
lastChange = "2022-12-11 10:45:00 +0000";
layers = (
{
layerId = m01;
shapes = (
{
angle = 180;
pos = (576,640);
ref = six;
}
);
width = 528;
},
{
associatedMasterId = m01;
layerId = "4C347677-4605-4C9F-85E1-1C8A6B71D47C";
name = "21 Oct 22, 21:25";
shapes = (
{
closed = 1;
nodes = (
(212,42,o),
(166,65,o),
(158,101,cs),
(152,125,o),
(154,143,o),
(163,165,c),
(108,185,o),
(70,164,o),
(70,114,cs),
(70,37,o),
(146,-12,o),
(268,-12,cs),
(425,-12,o),
(524,123,o),
(524,338,cs),
(524,548,o),
(439,652,o),
(268,652,cs),
(144,652,o),
(52,557,o),
(52,436,cs),
(52,325,o),
(148,241,o),
(258,241,c),
(325,241,o),
(396,279,o),
(442,339,c),
(431,384,l),
(392,320,o),
(333,292,o),
(258,292,cs),
(188,292,o),
(143,348,o),
(143,436,cs),
(143,535,o),
(200,598,o),
(276,598,cs),
(383,598,o),
(430,519,o),
(430,338,cs),
(430,132,o),
(383,42,o),
(277,42,cs)
);
}
);
width = 576;
},
{
associatedMasterId = m01;
layerId = "E732E201-2517-4763-8091-8A800196A4FB";
name = "8 Nov 22, 18:25";
shapes = (
{
closed = 1;
nodes = (
(418,-12,o),
(521,125,o),
(521,320,cs),
(521,542,o),
(438,652,o),
(272,652,cs),
(146,652,o),
(57,565,o),
(57,441,cs),
(57,329,o),
(140,258,o),
(272,258,cs),
(333,258,o),
(387,281,o),
(449,334,c),
(437,400,l),
(388,336,o),
(343,311,o),
(272,311,cs),
(195,311,o),
(147,361,o),
(147,441,cs),
(147,547,o),
(188,599,o),
(272,599,cs),
(383,599,o),
(431,514,o),
(431,320,cs),
(431,135,o),
(378,44,o),
(272,44,cs),
(190,44,o),
(147,77,o),
(132,153,cs),
(122,205,l),
(83,202,l),
(62,86,l),
(124,15,o),
(182,-12,o),
(272,-12,cs)
);
}
);
width = 578;
}
);
metricLeft = "=o+20";
metricRight = "=o+20";
unicode = 57;
},
{
color = 8;
glyphname = fraction;
lastChange = "2022-12-18 03:46:33 +0000";
layers = (
{
layerId = m01;
shapes = (
{
closed = 1;
nodes = (
(618,652,l),
(594,671,l),
(-57,-12,l),
(-33,-32,l)
);
}
);
width = 561;
}
);
unicode = 8260;
},
{
color = 8;
glyphname = onehalf;
lastChange = "2022-12-18 03:46:33 +0000";
layers = (
{
layerId = m01;
shapes = (
{
closed = 1;
nodes = (
(656,0,l),
(685,100,l),
(674,100,l),
(617,65,l),
(480,56,l),
(521,85,l),
(647,170,o),
(705,223,o),
(717,276,c),
(731,336,o),
(689,378,o),
(616,378,c),
(568,378,o),
(517,360,o),
(467,325,c),
(495,282,l),
(505,282,l),
(580,349,l),
(629,349,o),
(652,315,o),
(640,259,c),
(629,212,o),
(579,163,o),
(488,93,c),
(403,28,l),
(404,0,l)
);
},
{
closed = 1;
nodes = (
(265,277,l),
(268,292,l),
(206,314,l),
(283,647,l),
(266,652,l),
(128,588,l),
(129,573,l),
(197,573,l),
(138,317,l),
(64,287,l),
(62,277,l)
);
},
{
pos = (106,0);
ref = fraction;
}
);
width = 754;
},
{
associatedMasterId = m01;
layerId = "74EB7272-40C9-48B9-8751-1EF2D5448F63";
name = "6 Nov 22, 17:03";
shapes = (
{
closed = 1;
nodes = (
(369,91,l),
(590,91,l),
(604,190,l),
(589,194,l),
(555,139,l),
(429,135,l),
(462,159,l),
(556,230,o),
(589,273,o),
(589,321,c),
(589,373,o),
(543,409,o),
(476,409,c),
(435,409,o),
(398,394,o),
(364,360,c),
(393,293,l),
(413,299,l),
(415,356,l),
(430,372,o),
(446,379,o),
(470,379,c),
(503,379,o),
(525,352,o),
(525,314,c),
(525,262,o),
(499,222,o),
(439,173,c),
(364,113,l)
);
},
{
closed = 1;
nodes = (
(193,400,l),
(86,169,l),
(92,158,l),
(221,156,l),
(221,118,l),
(177,97,l),
(178,87,l),
(316,87,l),
(317,101,l),
(281,115,l),
(281,156,l),
(345,156,l),
(351,207,l),
(281,200,l),
(281,269,l),
(274,275,l),
(224,256,l),
(221,194,l),
(119,184,l),
(277,390,l),
(271,400,l)
);
},
{
closed = 1;
nodes = (
(5,395,l),
(-104,346,l),
(-99,329,l),
(-44,334,l),
(-42,334,l),
(-42,111,l),
(-100,89,l),
(-99,78,l),
(74,78,l),
(75,93,l),
(18,109,l),
(18,392,l)
);
},
{
closed = 1;
nodes = (
(343,488,o),
(389,546,o),
(389,651,c),
(389,755,o),
(343,813,o),
(260,813,c),
(176,813,o),
(130,755,o),
(130,651,c),
(130,546,o),
(176,488,o),
(260,488,c)
);
},
{
closed = 1;
nodes = (
(193,747,o),
(212,784,o),
(260,784,c),
(307,784,o),
(325,747,o),
(325,651,c),
(325,554,o),
(307,517,o),
(260,517,c),
(212,517,o),
(193,554,o),
(193,651,c)
);
},
{
closed = 1;
nodes = (
(822,398,o),
(876,441,o),
(876,499,c),
(876,535,o),
(847,565,o),
(796,582,c),
(841,596,o),
(860,617,o),
(860,650,c),
(860,694,o),
(819,724,o),
(757,724,c),
(716,724,o),
(680,707,o),
(648,673,c),
(675,615,l),
(696,621,l),
(696,670,l),
(713,686,o),
(730,694,o),
(753,694,c),
(786,694,o),
(806,677,o),
(806,644,c),
(806,611,o),
(784,591,o),
(747,591,c),
(737,561,l),
(790,547,o),
(815,526,o),
(815,490,c),
(815,453,o),
(790,429,o),
(750,429,c),
(708,429,o),
(686,444,o),
(680,480,c),
(673,516,l),
(652,513,l),
(640,447,l),
(670,414,o),
(705,398,o),
(750,398,c)
);
}
);
width = 600;
},
{
associatedMasterId = m01;
layerId = "13454A9D-7EB0-4C02-8A0D-3FE0D2C3BC11";
name = "4 Dec 22, 13:33";
shapes = (
{
closed = 1;
nodes = (
(643,0,l),
(660,110,l),
(634,116,l),
(597,55,l),
(486,50,l),
(518,84,ls),
(612,182,o),
(645,229,o),
(645,274,cs),
(645,326,o),
(597,365,o),
(530,365,cs),
(487,365,o),
(448,345,o),
(414,308,c),
(441,254,l),
(470,263,l),
(467,312,l),
(483,323,o),
(499,328,o),
(519,328,cs),
(558,328,o),
(582,304,o),
(582,263,cs),
(582,211,o),
(558,168,o),
(498,107,cs),
(419,26,l),
(427,0,l)
);
},
{
closed = 1;
nodes = (
(241,287,l),
(242,306,l),
(173,324,l),
(173,642,l),
(158,649,l),
(40,599,l),
(45,585,l),
(113,585,l),
(113,326,l),
(42,301,l),
(43,287,l)
);
},
{
pos = (67,0);
ref = fraction;
}
);
width = 700;
}
);
metricLeft = "=O";
metricRight = "=O";
unicode = 189;
},
{
color = 8;
glyphname = onequarter;
lastChange = "2022-12-18 03:46:33 +0000";
layers = (
{
layerId = m01;
shapes = (
{
closed = 1;
nodes = (
(605,0,l),
(608,14,l),
(568,32,l),
(580,82,l),
(648,82,l),
(666,137,l),
(591,132,l),
(610,214,l),
(604,222,l),
(538,198,l),
(519,125,l),
(393,115,l),
(629,356,l),
(626,368,l),
(548,368,l),
(354,102,l),
(359,85,l),
(508,83,l),
(497,36,l),
(434,10,l),
(432,0,l)
);
},
{
pos = (106,0);
ref = fraction;
},
{
closed = 1;
nodes = (
(265,277,l),
(268,292,l),
(206,314,l),
(283,647,l),
(266,652,l),
(128,588,l),
(129,573,l),
(197,573,l),
(138,317,l),
(64,287,l),
(62,277,l)
);
}
);
width = 726;
}
);
metricLeft = "=O";
metricRight = "=O";
unicode = 188;
},
{
color = 8;
glyphname = .notdef;
lastChange = "2022-12-11 11:29:17 +0000";
layers = (
{
layerId = m01;
shapes = (
{
closed = 1;
nodes = (
(477,-82,l),
(659,710,l),
(164,710,l),
(-18,-82,l)
);
},
{
closed = 1;
nodes = (
(221,645,l),
(573,645,l),
(420,-17,l),
(68,-17,l)
);
}
);
width = 596;
}
);
},
{
color = 8;
glyphname = period;
lastChange = "2022-12-11 10:45:17 +0000";
layers = (
{
layerId = m01;
shapes = (
{
closed = 1;
nodes = (
(109,-12,o),
(138,13,o),
(146,49,cs),
(153,84,o),
(133,112,o),
(102,112,cs),
(69,112,o),
(40,87,o),
(32,51,cs),
(25,16,o),
(45,-12,o),
(76,-12,cs)
);
}
);
width = 254;
}
);
metricLeft = "=o*2";
metricRight = "=o*2";
unicode = 46;
},
{
color = 8;
glyphname = comma;
lastChange = "2022-12-11 10:45:17 +0000";
layers = (
{
background = {
shapes = (
{
closed = 1;
nodes = (
(107,-12,o),
(136,13,o),
(144,49,cs),
(151,86,o),
(133,112,o),
(100,112,cs),
(67,112,o),
(38,87,o),
(30,51,cs),
(23,14,o),
(41,-12,o),
(74,-12,cs)
);
}
);
};
guides = (
{
pos = (188,-139);
}
);
layerId = m01;
shapes = (
{
closed = 1;
nodes = (
(52,-106,o),
(126,-41,o),
(142,32,cs),
(152,75,o),
(135,112,o),
(100,112,cs),
(65,112,o),
(39,86,o),
(29,43,c),
(66,0,l),
(56,-45,o),
(21,-78,o),
(-38,-100,c),
(-37,-124,l)
);
}
);
width = 254;
},
{
associatedMasterId = m01;
layerId = "560B0FF2-0023-4E75-9D6D-04DA04A11B1D";
name = "20 Oct 22, 15:17";
shapes = (
{
closed = 1;
nodes = (
(160,-76,o),
(195,-2,o),
(195,43,cs),
(195,84,o),
(166,116,o),
(128,116,cs),
(90,116,o),
(60,90,o),
(60,58,cs),
(60,26,o),
(89,0,o),
(125,0,c),
(125,-31,o),
(110,-84,o),
(90,-121,c),
(110,-135,l)
);
}
);
width = 225;
},
{
associatedMasterId = m01;
guides = (
{
pos = (205,-139);
}
);
layerId = "3AD00052-932D-431B-B6CC-8656EDD5ECC7";
name = "21 Oct 22, 22:12";
shapes = (
{
closed = 1;
nodes = (
(86,-139,l),
(168,-16,ls),
(181,4,o),
(187,27,o),
(187,58,cs),
(187,91,o),
(158,116,o),
(120,116,cs),
(82,116,o),
(52,90,o),
(52,58,cs),
(52,26,o),
(76,3,o),
(118,-6,c),
(120,-10,l),
(30,-79,l),
(72,-139,l)
);
}
);
width = 217;
}
);
metricLeft = "=o";
metricRight = "=o*2";
unicode = 44;
},
{
color = 8;
glyphname = semicolon;
lastChange = "2022-12-11 10:45:17 +0000";
layers = (
{
guides = (
{
angle = 270;
pos = (155,276);
},
{
angle = 270;
pos = (281,277);
}
);
layerId = m01;
shapes = (
{
ref = comma;
},
{
pos = (56,254);
ref = period;
}
);
width = 254;
},
{
associatedMasterId = m01;
layerId = "1C2A620D-54C4-41A8-B34F-F8F03B65876B";
name = "20 Oct 22, 15:24";
shapes = (
{
closed = 1;
nodes = (
(160,-76,o),
(195,-2,o),
(195,43,cs),
(195,84,o),
(166,116,o),
(128,116,cs),
(90,116,o),
(60,90,o),
(60,58,cs),
(60,26,o),
(89,0,o),
(125,0,c),
(125,-31,o),
(110,-84,o),
(90,-121,c),
(110,-135,l)
);
},
{
closed = 1;
nodes = (
(169,263,o),
(195,288,o),
(195,327,cs),
(195,366,o),
(169,390,o),
(128,390,cs),
(86,390,o),
(60,366,o),
(60,327,cs),
(60,288,o),
(86,263,o),
(128,263,cs)
);
}
);
width = 225;
}
);
metricLeft = "=o";
metricRight = "=o*2";
unicode = 59;
},
{
color = 8;
glyphname = exclam;
lastChange = "2022-12-11 05:03:41 +0000";
layers = (
{
guides = (
{
angle = 258.6901;
pos = (80,48);
}
);
layerId = m01;
shapes = (
{
closed = 1;
nodes = (
(114,178,l),
(270,653,l),
(250,660,l),
(148,629,l),
(89,178,l)
);
},
{
closed = 1;
nodes = (
(96,-12,o),
(122,11,o),
(130,47,cs),
(138,83,o),
(120,108,o),
(87,108,cs),
(54,108,o),
(28,85,o),
(20,49,cs),
(12,13,o),
(30,-12,o),
(63,-12,cs)
);
}
);
width = 224;
}
);
unicode = 33;
},
{
color = 8;
glyphname = question;
lastChange = "2022-12-11 05:03:41 +0000";
layers = (
{
guides = (
{
angle = 78.6901;
pos = (178,48);
}
);
layerId = m01;
shapes = (
{
closed = 1;
nodes = (
(216,180,l),
(263,319,l),
(367,344,o),
(462,425,o),
(479,501,cs),
(499,588,o),
(430,656,o),
(321,656,cs),
(261,656,o),
(196,630,o),
(126,578,c),
(157,515,l),
(171,515,l),
(305,632,l),
(254,632,l),
(250,619,l),
(294,619,ls),
(368,619,o),
(410,555,o),
(390,474,cs),
(374,406,o),
(301,357,o),
(187,338,c),
(182,180,l)
);
},
{
closed = 1;
nodes = (
(194,-12,o),
(220,11,o),
(228,47,cs),
(236,83,o),
(218,108,o),
(185,108,cs),
(152,108,o),
(126,85,o),
(118,49,cs),
(110,13,o),
(128,-12,o),
(161,-12,cs)
);
}
);
width = 455;
},
{
associatedMasterId = m01;
layerId = "FBF5AB30-77E4-4A13-B236-EE600628AB1C";
name = "19 Nov 22, 18:09";
shapes = (
{
closed = 1;
nodes = (
(239,180,l),
(259,322,l),
(364,352,o),
(438,426,o),
(438,501,cs),
(438,592,o),
(354,656,o),
(234,656,cs),
(161,656,o),
(97,634,o),
(55,595,c),
(91,481,l),
(120,488,l),
(138,577,l),
(161,597,o),
(188,605,o),
(234,605,cs),
(296,605,o),
(339,564,o),
(339,506,cs),
(339,418,o),
(284,366,o),
(172,348,c),
(203,180,l)
);
},
{
closed = 1;
nodes = (
(260,-12,o),
(284,10,o),
(284,45,cs),
(284,80,o),
(260,102,o),
(223,102,cs),
(186,102,o),
(162,80,o),
(162,45,cs),
(162,10,o),
(186,-12,o),
(223,-12,cs)
);
}
);
width = 483;
}
);
metricLeft = "=O";
metricRight = "=O";
unicode = 63;
},
{
color = 8;
glyphname = bullet;
lastChange = "2022-12-11 10:46:53 +0000";
layers = (
{
background = {
shapes = (
{
closed = 1;
nodes = (
(164,231,o),
(197,263,o),
(197,314,cs),
(197,365,o),
(164,397,o),
(111,397,cs),
(58,397,o),
(25,365,o),
(25,314,cs),
(25,263,o),
(58,231,o),
(111,231,cs)
);
}
);
};
layerId = m01;
shapes = (
{
closed = 1;
nodes = (
(142,227,o),
(177,258,o),
(189,313,cs),
(199,362,o),
(173,401,o),
(129,401,cs),
(80,401,o),
(45,370,o),
(33,315,cs),
(23,266,o),
(49,227,o),
(93,227,cs)
);
}
);
width = 221;
}
);
unicode = 8226;
},
{
color = 8;
glyphname = asterisk;
lastChange = "2022-12-11 10:47:27 +0000";
layers = (
{
layerId = m01;
shapes = (
{
closed = 1;
nodes = (
(259,353,l),
(268,361,l),
(266,510,l),
(268,522,l),
(340,671,l),
(335,679,l),
(266,679,l),
(257,671,l),
(259,522,l),
(257,510,l),
(185,361,l),
(190,353,l)
);
},
{
closed = 1;
nodes = (
(409,464,l),
(407,474,l),
(270,517,l),
(262,523,l),
(175,629,l),
(165,627,l),
(116,568,l),
(118,558,l),
(255,515,l),
(263,509,l),
(350,403,l),
(360,405,l)
);
},
{
closed = 1;
nodes = (
(412,627,l),
(402,629,l),
(267,523,l),
(255,517,l),
(98,474,l),
(92,464,l),
(113,405,l),
(123,403,l),
(258,509,l),
(270,515,l),
(427,558,l),
(433,568,l)
);
}
);
width = 387;
},
{
associatedMasterId = m01;
layerId = "1968169C-EDF7-4E9D-8EEF-4012FEDB699C";
name = "10 Nov 22, 21:47";
shapes = (
{
closed = 1;
nodes = (
(203,502,l),
(216,502,l),
(212,519,l),
(207,520,l),
(59,441,l),
(58,427,l),
(139,372,l)
);
},
{
closed = 1;
nodes = (
(329,405,l),
(225,506,l),
(229,518,l),
(212,519,l),
(209,515,l),
(239,350,l),
(252,344,l)
);
},
{
closed = 1;
nodes = (
(212,519,l),
(212,523,l),
(90,641,l),
(76,637,l),
(50,542,l),
(194,522,l),
(197,509,l)
);
},
{
closed = 1;
nodes = (
(216,520,l),
(290,672,l),
(282,684,l),
(184,680,l),
(209,537,l),
(198,530,l),
(212,519,l)
);
},
{
closed = 1;
nodes = (
(390,503,l),
(356,595,l),
(228,527,l),
(218,535,l),
(212,519,l),
(214,515,l),
(381,492,l)
);
}
);
width = 450;
},
{
associatedMasterId = m01;
layerId = "29F189B6-B8DC-4B92-B5A6-93A7CA26559C";
name = "10 Nov 22, 21:51";
shapes = (
{
closed = 1;
nodes = (
(370,562,l),
(373,577,l),
(320,633,l),
(304,630,l),
(217,525,l),
(212,528,l),
(205,516,l),
(210,513,l)
);
},
{
closed = 1;
nodes = (
(106,402,l),
(193,507,l),
(198,504,l),
(205,516,l),
(200,519,l),
(40,470,l),
(37,455,l),
(90,399,l)
);
},
{
closed = 1;
nodes = (
(249,358,l),
(255,373,l),
(207,501,l),
(212,504,l),
(205,516,l),
(200,513,l),
(163,350,l),
(174,340,l)
);
},
{
closed = 1;
nodes = (
(205,516,l),
(205,522,l),
(82,635,l),
(68,631,l),
(47,557,l),
(56,544,l),
(191,522,l),
(191,516,l)
);
},
{
closed = 1;
nodes = (
(342,401,l),
(363,475,l),
(354,488,l),
(219,510,l),
(219,516,l),
(205,516,l),
(205,510,l),
(328,397,l)
);
},
{
closed = 1;
nodes = (
(210,519,l),
(247,682,l),
(236,692,l),
(161,674,l),
(155,659,l),
(203,531,l),
(198,528,l),
(205,516,l)
);
}
);
width = 410;
}
);
metricLeft = "=o";
metricRight = "=o";
unicode = 42;
},
{
color = 8;
glyphname = interrobang;
lastChange = "2022-12-12 02:25:59 +0000";
layers = (
{
layerId = m01;
shapes = (
{
closed = 1;
nodes = (
(216,180,l),
(263,319,l),
(367,344,o),
(462,425,o),
(479,501,cs),
(499,588,o),
(430,656,o),
(321,656,cs),
(261,656,o),
(196,630,o),
(126,578,c),
(157,515,l),
(171,515,l),
(305,632,l),
(254,632,l),
(250,619,l),
(294,619,ls),
(368,619,o),
(410,555,o),
(390,474,cs),
(374,406,o),
(301,357,o),
(187,338,c),
(182,180,l)
);
},
{
closed = 1;
nodes = (
(194,-12,o),
(220,11,o),
(228,47,cs),
(236,83,o),
(218,108,o),
(185,108,cs),
(152,108,o),
(126,85,o),
(118,49,cs),
(110,13,o),
(128,-12,o),
(161,-12,cs)
);
},
{
closed = 1;
nodes = (
(216,180,l),
(326,489,l),
(306,496,l),
(183,453,l),
(182,180,l)
);
}
);
width = 455;
}
);
metricLeft = "=O";
metricRight = "=O";
unicode = 8253;
},
{
color = 8;
glyphname = numbersign;
lastChange = "2022-12-11 10:47:12 +0000";
layers = (
{
layerId = m01;
shapes = (
{
closed = 1;
nodes = (
(467,315,l),
(484,375,l),
(107,375,l),
(90,315,l)
);
},
{
closed = 1;
nodes = (
(137,-12,l),
(176,190,l),
(138,190,l),
(63,-12,l)
);
},
{
closed = 1;
nodes = (
(307,-12,l),
(346,190,l),
(308,190,l),
(233,-12,l)
);
},
{
closed = 1;
nodes = (
(417,133,l),
(434,193,l),
(57,193,l),
(40,133,l)
);
},
{
closed = 1;
nodes = (
(169,153,l),
(224,355,l),
(183,355,l),
(128,153,l)
);
},
{
closed = 1;
nodes = (
(339,153,l),
(394,355,l),
(353,355,l),
(298,153,l)
);
},
{
closed = 1;
nodes = (
(214,318,l),
(289,520,l),
(215,520,l),
(176,318,l)
);
},
{
closed = 1;
nodes = (
(384,318,l),
(459,520,l),
(385,520,l),
(346,318,l)
);
}
);
width = 524;
}
);
unicode = 35;
},
{
color = 8;
glyphname = slash;
lastChange = "2022-12-11 23:16:37 +0000";
layers = (
{
layerId = m01;
shapes = (
{
closed = 1;
nodes = (
(351,667,l),
(303,667,l),
(-36,-39,l),
(12,-39,l)
);
}
);
width = 285;
}
);
unicode = 47;
},
{
color = 8;
glyphname = backslash;
lastChange = "2022-12-11 23:16:37 +0000";
layers = (
{
layerId = m01;
shapes = (
{
closed = 1;
nodes = (
(149,-39,l),
(136,667,l),
(97,667,l),
(110,-39,l)
);
}
);
width = 285;
}
);
unicode = 92;
},
{
color = 8;
glyphname = hyphen;
lastChange = "2022-12-12 01:28:08 +0000";
layers = (
{
layerId = m01;
shapes = (
{
closed = 1;
nodes = (
(285,218,l),
(311,288,l),
(53,280,l),
(31,218,l)
);
}
);
width = 324;
}
);
unicode = 45;
},
{
color = 8;
glyphname = endash;
lastChange = "2022-12-11 05:05:00 +0000";
layers = (
{
layerId = m01;
shapes = (
{
closed = 1;
nodes = (
(483,234,l),
(498,289,l),
(34,289,l),
(19,234,l)
);
}
);
width = 496;
}
);
unicode = 8211;
},
{
color = 8;
glyphname = emdash;
lastChange = "2022-12-11 05:05:02 +0000";
layers = (
{
layerId = m01;
shapes = (
{
closed = 1;
nodes = (
(19,234,l),
(34,289,l),
(829,289,l),
(814,234,l)
);
}
);
width = 827;
}
);
unicode = 8212;
},
{
color = 8;
glyphname = underscore;
lastChange = "2022-12-11 23:11:28 +0000";
layers = (
{
layerId = m01;
shapes = (
{
closed = 1;
nodes = (
(314,-133,l),
(329,-83,l),
(-45,-83,l),
(-60,-133,l)
);
}
);
width = 418;
}
);
unicode = 95;
},
{
color = 8;
glyphname = parenleft;
lastChange = "2022-12-11 11:06:30 +0000";
layers = (
{
layerId = m01;
shapes = (
{
closed = 1;
nodes = (
(255,-91,l),
(39,137,o),
(141,552,o),
(443,717,c),
(436,730,l),
(-30,482,o),
(-8,42,o),
(244,-102,c)
);
}
);
width = 342;
},
{
associatedMasterId = m01;
layerId = "46F5CB36-1E9A-485B-B78C-19D95BA2556E";
name = "20 Oct 22, 15:32";
shapes = (
{
closed = 1;
nodes = (
(325,-89,l),
(191,45,o),
(132,168,o),
(132,314,cs),
(132,460,o),
(191,583,o),
(325,717,c),
(315,730,l),
(139,617,o),
(52,479,o),
(52,314,cs),
(52,147,o),
(139,10,o),
(315,-102,c)
);
}
);
width = 340;
}
);
metricLeft = "=o+20";
unicode = 40;
},
{
color = 8;
glyphname = braceleft;
lastChange = "2022-12-11 11:06:30 +0000";
layers = (
{
layerId = m01;
shapes = (
{
closed = 1;
nodes = (
(209,-91,l),
(126,-73,o),
(100,-42,o),
(115,22,cs),
(132,95,o),
(167,135,o),
(181,198,cs),
(195,256,o),
(177,291,o),
(122,312,c),
(123,316,l),
(188,337,o),
(221,372,o),
(235,430,cs),
(249,493,o),
(233,533,o),
(250,606,cs),
(263,664,o),
(287,694,o),
(344,710,c),
(349,730,l),
(260,717,o),
(211,676,o),
(195,606,cs),
(178,533,o),
(191,493,o),
(176,430,cs),
(165,384,o),
(144,360,o),
(87,331,cs),
(74,324,o),
(69,320,o),
(68,314,cs),
(66,308,o),
(69,304,o),
(79,297,cs),
(122,268,o),
(133,244,o),
(122,198,cs),
(108,135,o),
(77,95,o),
(60,22,cs),
(43,-53,o),
(91,-97,o),
(204,-111,c)
);
}
);
width = 295;
}
);
metricLeft = "=o+10";
unicode = 123;
},
{
color = 8;
glyphname = bracketleft;
lastChange = "2022-12-11 11:06:30 +0000";
layers = (
{
layerId = m01;
shapes = (
{
closed = 1;
nodes = (
(166,-82,l),
(179,-48,l),
(44,-48,l),
(212,676,l),
(341,676,l),
(354,710,l),
(159,710,l),
(-24,-82,l)
);
}
);
width = 255;
}
);
metricLeft = "=o+10";
unicode = 91;
},
{
color = 8;
glyphname = bracketright;
lastChange = "2022-12-11 11:06:30 +0000";
layers = (
{
layerId = m01;
shapes = (
{
closed = 1;
nodes = (
(141,-82,l),
(324,710,l),
(134,710,l),
(121,676,l),
(256,676,l),
(88,-48,l),
(-41,-48,l),
(-54,-82,l)
);
}
);
width = 255;
}
);
metricRight = "=o+10";
unicode = 93;
},
{
color = 8;
glyphname = quoteright;
lastChange = "2022-12-11 10:45:22 +0000";
layers = (
{
background = {
shapes = (
{
closed = 1;
nodes = (
(213,516,o),
(242,541,o),
(250,577,cs),
(257,614,o),
(239,640,o),
(206,640,cs),
(173,640,o),
(144,615,o),
(136,579,cs),
(129,542,o),
(147,516,o),
(180,516,cs)
);
}
);
};
layerId = m01;
shapes = (
{
closed = 1;
nodes = (
(165,424,o),
(229,493,o),
(246,566,cs),
(256,609,o),
(240,640,o),
(207,640,cs),
(172,640,o),
(144,613,o),
(135,571,cs),
(168,524,l),
(158,478,o),
(129,442,o),
(81,414,c),
(91,397,l)
);
}
);
width = 200;
},
{
associatedMasterId = m01;
layerId = "267FB45D-62E4-47C4-84C1-986FCCFCF0AA";
name = "21 Oct 22, 23:00";
shapes = (
{
closed = 1;
nodes = (
(149,501,ls),
(168,529,o),
(175,548,o),
(175,571,cs),
(175,607,o),
(150,632,o),
(114,632,cs),
(80,632,o),
(53,609,o),
(53,580,cs),
(53,551,o),
(75,531,o),
(112,522,c),
(114,519,l),
(30,453,l),
(74,403,l),
(83,401,l)
);
}
);
width = 185;
}
);
metricLeft = "=o";
metricRight = v;
unicode = 8217;
},
{
color = 8;
glyphname = guilsinglright;
lastChange = "2022-12-11 11:08:48 +0000";
layers = (
{
layerId = m01;
shapes = (
{
closed = 1;
nodes = (
(231,320,l),
(232,324,l),
(233,328,l),
(102,540,l),
(81,524,l),
(143,324,l),
(-11,124,l),
(2,108,l)
);
}
);
width = 277;
}
);
unicode = 8250;
},
